<svg xmlns="http://www.w3.org/2000/svg" xmlns:xlink="http://www.w3.org/1999/xlink" viewBox="0 0 187.85416 156.10417" height="590" width="710"><defs><radialGradient xlink:href="#a" id="b" cx="94.683" cy="255.217" fx="94.683" fy="255.217" r="71.249" gradientTransform="matrix(2.1351 0 0 .788 -88.937 114.935)" gradientUnits="userSpaceOnUse"/><linearGradient id="a"><stop offset="0" stop-color="#c87137"/><stop offset="1" stop-color="#c87137" stop-opacity="0"/></linearGradient></defs><g transform="translate(24.196 -79.647) scale(.60253)"><ellipse cx="120.028" cy="315.919" rx="152.123" ry="56.144" opacity=".486" fill="url(#b)"/><path d="M4.662 253.866v-5.856q0-.427-.274-.701-.275-.275-.702-.275h-9.76q-.426 0-.7.275-.275.274-.275.701v5.856q0 .427.274.702.275.274.702.274h9.76q.426 0 .7-.274.275-.275.275-.702zm0-11.711v-5.856q0-.427-.274-.702-.275-.274-.702-.274h-9.76q-.426 0-.7.274-.275.275-.275.702v5.856q0 .427.274.701.275.274.702.274h9.76q.426 0 .7-.274.275-.274.275-.701zm15.616 11.711v-5.856q0-.427-.275-.701-.274-.275-.701-.275h-9.76q-.427 0-.701.275-.275.274-.275.701v5.856q0 .427.275.702.274.274.701.274h9.76q.427 0 .701-.274.275-.275.275-.702zM4.662 230.443v-5.856q0-.427-.274-.701-.275-.275-.702-.275h-9.76q-.426 0-.7.275-.275.274-.275.701v5.856q0 .427.274.701.275.275.702.275h9.76q.426 0 .7-.275.275-.274.275-.701zm15.616 11.712v-5.856q0-.427-.275-.702-.274-.274-.701-.274h-9.76q-.427 0-.701.274-.275.275-.275.702v5.856q0 .427.275.701.274.274.701.274h9.76q.427 0 .701-.274.275-.274.275-.701zm15.615 11.711v-5.856q0-.427-.274-.701-.275-.275-.702-.275h-9.76q-.426 0-.701.275-.274.274-.274.701v5.856q0 .427.274.702.275.274.701.274h9.76q.427 0 .702-.274.274-.275.274-.702zm-15.615-23.423v-5.856q0-.427-.275-.701-.274-.275-.701-.275h-9.76q-.427 0-.701.275-.275.274-.275.701v5.856q0 .427.275.701.274.275.701.275h9.76q.427 0 .701-.275.275-.274.275-.701zm15.615 11.712v-5.856q0-.427-.274-.702-.275-.274-.702-.274h-9.76q-.426 0-.701.274-.274.275-.274.702v5.856q0 .427.274.701.275.274.701.274h9.76q.427 0 .702-.274.274-.274.274-.701zm0-11.712v-5.856q0-.427-.274-.701-.275-.275-.702-.275h-9.76q-.426 0-.701.275-.274.274-.274.701v5.856q0 .427.274.701.275.275.701.275h9.76q.427 0 .702-.275.274-.274.274-.701zm3.904-9.76v33.183q0 2.013-1.434 3.446-1.433 1.434-3.446 1.434h-40.99q-2.013 0-3.447-1.434-1.433-1.433-1.433-3.446v-33.183q0-2.013 1.433-3.446 1.434-1.433 3.447-1.433h40.99q2.013 0 3.446 1.433 1.434 1.433 1.434 3.446z" style="line-height:125%;-inkscape-font-specification:FontAwesome;text-align:center" font-weight="400" font-size="54.654" font-family="FontAwesome" letter-spacing="0" word-spacing="0" text-anchor="middle" fill="#ffd42a" stroke-width=".569"/><g style="line-height:125%;-inkscape-font-specification:FontAwesome;text-align:center" font-weight="400" font-size="50.8" font-family="FontAwesome" letter-spacing="0" word-spacing="0" text-anchor="middle" fill="#003380" stroke="#003380" stroke-width=".265"><text style="line-height:125%;-inkscape-font-specification:FontAwesome;text-align:center" x="-29.025" y="380.135" font-size="11.71" stroke-width=".439"/><path d="M51.727 339.408c.53.53.984 1.249 1.362 2.157.379.908.568 1.74.568 2.497v32.695c0 .757-.265 1.4-.795 1.93s-1.173.795-1.93.795H12.79c-.757 0-1.4-.265-1.93-.795a2.627 2.627 0 0 1-.795-1.93v-45.41c0-.756.265-1.4.795-1.93a2.627 2.627 0 0 1 1.93-.794h25.429c.757 0 1.59.19 2.497.568.909.378 1.628.832 2.157 1.362z" fill="#fff" style="line-height:125%;-inkscape-font-specification:FontAwesome;text-align:center" font-size="100.329" stroke="none" stroke-width=".523"/><path d="M51.83 339.292c.53.529.983 1.247 1.361 2.154.378.907.567 1.739.567 2.495v32.657c0 .756-.264 1.398-.794 1.927-.529.53-1.171.794-1.927.794h-38.1a2.624 2.624 0 0 1-1.928-.794 2.624 2.624 0 0 1-.794-1.927V331.24c0-.756.265-1.399.794-1.928a2.624 2.624 0 0 1 1.928-.794h25.4c.756 0 1.587.19 2.494.567.907.378 1.626.832 2.155 1.36zm-12.586-6.917v10.658h10.659c-.19-.548-.397-.935-.624-1.162l-8.873-8.873c-.227-.227-.614-.434-1.162-.623zM50.13 375.69v-29.029H38.337a2.624 2.624 0 0 1-1.928-.794 2.624 2.624 0 0 1-.794-1.927v-11.793H13.844v43.543z"/><g style="line-height:125%;-inkscape-font-specification:FontAwesome;text-align:center" font-size="14.836" stroke-width=".556" font-family="Hiragino Maru Gothic ProN"><path d="M20.61 359.725h5.163c.371 0 .579-.282.579-.623 0-.371-.193-.638-.579-.638H20.61v-3.205c0-.296.178-.474.46-.474h5.534c.4 0 .609-.282.609-.653 0-.371-.208-.638-.609-.638h-5.89c-1.053 0-1.513.445-1.513 1.587v9.421c0 .43.297.638.697.638.416 0 .712-.207.712-.623v-4.792zM31.936 353.479a.651.651 0 0 0-.401-.134c-.178 0-.37.09-.52.282-1.527 2.048-2.329 3.991-2.329 6.78 0 2.805.802 4.763 2.315 6.825.148.193.326.282.504.282a.689.689 0 0 0 .43-.148c.179-.119.312-.282.312-.49 0-.104-.044-.222-.133-.356-1.306-1.75-2.107-3.531-2.107-6.113 0-2.551.786-4.302 2.121-6.082a.587.587 0 0 0 .134-.342c0-.207-.134-.385-.326-.504zM36.108 360.808l-2.478 3.323a.592.592 0 0 0-.133.356c0 .193.119.371.267.505a.847.847 0 0 0 .46.148.592.592 0 0 0 .475-.252l2.225-3.13 2.21 3.13a.554.554 0 0 0 .475.252c.149 0 .297-.059.43-.148a.622.622 0 0 0 .149-.905l-2.433-3.279 2.27-3.041a.592.592 0 0 0 .133-.356.683.683 0 0 0-.311-.55.727.727 0 0 0-.416-.133.598.598 0 0 0-.49.252l-2.017 2.893-2.092-2.878a.598.598 0 0 0-.49-.252.763.763 0 0 0-.415.133.642.642 0 0 0-.311.535c0 .118.044.237.133.356l2.359 3.041zM41.885 353.479c-.193.119-.311.297-.311.49 0 .118.044.237.133.356 1.335 1.78 2.122 3.53 2.122 6.082 0 2.582-.801 4.362-2.107 6.113a.592.592 0 0 0-.134.356c0 .193.134.371.312.49a.788.788 0 0 0 .415.148.6.6 0 0 0 .505-.282c1.513-2.062 2.33-4.02 2.33-6.825 0-2.789-.802-4.732-2.345-6.78a.624.624 0 0 0-.52-.282.683.683 0 0 0-.4.134z" style="-inkscape-font-specification:'Hiragino Maru Gothic ProN'"/></g></g><g font-weight="400" font-size="53.637" font-family="FontAwesome" letter-spacing="0" word-spacing="0" text-anchor="middle" fill="#d45500" stroke-width=".559"><path d="M37.57 280.58q1.148 1.78.517 4.028l-7.89 28.291q-.545 1.999-2.209 3.341-1.635 1.374-3.5 1.374H-1.993q-2.21 0-4.275-1.686-2.037-1.655-2.84-4.09-.689-2.093-.058-3.966 0-.125.087-.843.086-.719.114-1.156.029-.25-.086-.655-.115-.438-.086-.625.058-.343.23-.656.172-.312.459-.718.315-.437.487-.75.66-1.186 1.292-2.841.63-1.686.86-2.873.086-.312 0-.937-.057-.624 0-.874.086-.343.488-.874.402-.531.488-.719.602-1.124 1.205-2.872.602-1.749.717-2.81.029-.282-.086-1-.086-.718.029-.874.114-.406.63-.937.517-.562.632-.718.545-.812 1.205-2.623.688-1.843.803-3.03.029-.25-.086-.78-.115-.562-.057-.843.057-.25.258-.562.2-.312.516-.718.316-.406.488-.656.23-.375.46-.937.257-.593.43-1.093.2-.53.459-1.124.287-.625.573-1 .287-.405.746-.749.488-.343 1.033-.343.574-.031 1.377.156l-.028.094q1.09-.281 1.463-.281h21.833q2.123 0 3.27 1.748 1.148 1.749.517 4.06l-7.86 28.29q-1.034 3.717-2.067 4.81-1.004 1.061-3.672 1.061H-4.977q-.774 0-1.09.469-.316.5-.029 1.343.689 2.185 4.132 2.185h26.48q.833 0 1.607-.468.775-.5 1.005-1.311l8.607-30.82q.2-.688.143-1.78 1.09.468 1.693 1.342zm-30.526.062q-.114.406.058.719.172.28.574.28h17.443q.373 0 .718-.28.372-.313.487-.719l.603-1.998q.114-.406-.058-.687-.172-.312-.573-.312H8.852q-.373 0-.746.312-.344.28-.46.687l-.602 1.998zm-2.38 7.994q-.116.406.057.719.172.28.573.28h17.444q.373 0 .717-.28.373-.313.488-.719l.602-1.998q.115-.406-.057-.687-.172-.312-.574-.312H6.471q-.373 0-.746.312-.345.28-.46.687l-.602 1.998z" style="line-height:125%;-inkscape-font-specification:FontAwesome;text-align:center"/><g style="line-height:125%;-inkscape-font-specification:FontAwesome;text-align:center"><path d="M33.272 272.53l2.606 6.707-7.098 34.304-31.636 2.344-4.102-2.148-2.208-5.865 10.9-20.603 4.393-12.2z" fill="#fff" fill-rule="evenodd"/><path d="M37.57 280.58q1.148 1.78.517 4.028l-7.89 28.291q-.545 1.999-2.209 3.341-1.635 1.374-3.5 1.374H-1.993q-2.21 0-4.275-1.686-2.037-1.655-2.84-4.09-.689-2.093-.058-3.966 0-.125.087-.843.086-.719.114-1.156.029-.25-.086-.655-.115-.438-.086-.625.058-.343.23-.656.172-.312.459-.718.315-.437.487-.75.66-1.186 1.292-2.841.63-1.686.86-2.873.086-.312 0-.937-.057-.624 0-.874.086-.343.488-.874.402-.531.488-.719.602-1.124 1.205-2.872.602-1.749.717-2.81.029-.282-.086-1-.086-.718.029-.874.114-.406.63-.937.517-.562.632-.718.545-.812 1.205-2.623.688-1.843.803-3.03.029-.25-.086-.78-.115-.562-.057-.843.057-.25.258-.562.2-.312.516-.718.316-.406.488-.656.23-.375.46-.937.257-.593.43-1.093.2-.53.459-1.124.287-.625.573-1 .287-.405.746-.749.488-.343 1.033-.343.574-.031 1.377.156l-.028.094q1.09-.281 1.463-.281h21.833q2.123 0 3.27 1.748 1.148 1.749.517 4.06l-7.86 28.29q-1.034 3.717-2.067 4.81-1.004 1.061-3.672 1.061H-4.977q-.774 0-1.09.469-.316.5-.029 1.343.689 2.185 4.132 2.185h26.48q.833 0 1.607-.468.775-.5 1.005-1.311l8.607-30.82q.2-.688.143-1.78 1.09.468 1.693 1.342zm-30.526.062q-.114.406.058.719.172.28.574.28h17.443q.373 0 .718-.28.372-.313.487-.719l.603-1.998q.114-.406-.058-.687-.172-.312-.573-.312H8.852q-.373 0-.746.312-.344.28-.46.687l-.602 1.998zm-2.38 7.994q-.116.406.057.719.172.28.573.28h17.444q.373 0 .717-.28.373-.313.488-.719l.602-1.998q.115-.406-.057-.687-.172-.312-.574-.312H6.471q-.373 0-.746.312-.345.28-.46.687l-.602 1.998z"/></g></g><path d="M19.428 174.651q5.84 1.22 12.559 1.22 6.718 0 12.558-1.22 5.84-1.219 9.213-3.6v4.82q0 1.955-2.92 3.628-2.92 1.672-7.937 2.665-5.018.963-10.914.963-5.897 0-10.914-.963-5.018-.993-7.938-2.665-2.92-1.673-2.92-3.629v-4.819q3.374 2.381 9.213 3.6zm0 21.772q5.84 1.219 12.559 1.219 6.718 0 12.558-1.22 5.84-1.218 9.213-3.6v4.82q0 1.956-2.92 3.628-2.92 1.673-7.937 2.637-5.018.992-10.914.992-5.897 0-10.914-.992-5.018-.964-7.938-2.637-2.92-1.672-2.92-3.628v-4.82q3.374 2.382 9.213 3.6zm0-10.886q5.84 1.219 12.559 1.219 6.718 0 12.558-1.219t9.213-3.6v4.819q0 1.956-2.92 3.629-2.92 1.672-7.937 2.664-5.018.964-10.914.964-5.897 0-10.914-.964-5.018-.992-7.938-2.664-2.92-1.673-2.92-3.629v-4.82q3.374 2.382 9.213 3.601zm1.645-30.446q5.017-.992 10.914-.992 5.896 0 10.914.992 5.017.964 7.937 2.636 2.92 1.673 2.92 3.629v3.629q0 1.956-2.92 3.628-2.92 1.673-7.937 2.665-5.018.964-10.914.964-5.897 0-10.914-.964-5.018-.992-7.938-2.665-2.92-1.672-2.92-3.628v-3.629q0-1.956 2.92-3.629 2.92-1.672 7.938-2.636z" style="line-height:125%;-inkscape-font-specification:FontAwesome;text-align:center" font-weight="400" font-size="50.8" font-family="FontAwesome" letter-spacing="0" word-spacing="0" text-anchor="middle" stroke-width=".265" fill="#006c35"/><g font-weight="400" font-size="100.329" font-family="FontAwesome" letter-spacing="0" word-spacing="0" text-anchor="middle" stroke-width=".523"><path d="M256.9 231.133c1.044 1.045 1.94 2.463 2.687 4.255.746 1.792 1.12 3.434 1.12 4.927v64.497c0 1.493-.523 2.762-1.568 3.807s-2.314 1.568-3.807 1.568h-75.247c-1.493 0-2.762-.523-3.807-1.568-1.046-1.045-1.568-2.314-1.568-3.807v-89.58c0-1.492.522-2.762 1.568-3.807 1.045-1.045 2.314-1.567 3.807-1.567h50.164c1.493 0 3.136.373 4.927 1.12 1.792.746 3.21 1.642 4.255 2.687z" fill="#fff" style="line-height:125%;-inkscape-font-specification:FontAwesome;text-align:center"/><path d="M256.9 231.133q1.567 1.568 2.687 4.255 1.12 2.687 1.12 4.927v64.497q0 2.24-1.568 3.807-1.568 1.568-3.807 1.568h-75.247q-2.24 0-3.807-1.568-1.568-1.567-1.568-3.807v-89.58q0-2.239 1.568-3.807 1.567-1.567 3.807-1.567h50.164q2.24 0 4.927 1.12 2.688 1.12 4.255 2.687l17.468 17.468zm-24.86-13.661v21.051h21.052q-.56-1.623-1.232-2.295l-17.524-17.524q-.671-.672-2.295-1.232zm21.5 85.549V245.69h-23.29q-2.24 0-3.808-1.568-1.567-1.568-1.567-3.807v-23.29h-42.999v85.996h71.664zm-51.956-50.165q.448-.616 1.176-.672.727-.112 1.343.336l2.856 2.128q.615.448.671 1.175.112.728-.336 1.344l-10.19 13.605 10.19 13.605q.448.616.336 1.344-.056.727-.671 1.175l-2.856 2.128q-.616.448-1.343.392-.728-.112-1.176-.728l-12.653-16.852q-.784-1.064 0-2.128l12.653-16.852zm44.902 16.852q.783 1.064 0 2.128l-12.654 16.852q-.447.616-1.175.728-.728.056-1.344-.392l-2.855-2.128q-.616-.448-.728-1.175-.056-.728.392-1.344l10.19-13.605-10.19-13.605q-.448-.616-.392-1.344.112-.728.728-1.175l2.855-2.128q.616-.448 1.344-.336.728.056 1.175.672l12.654 16.852zm-34.713 25.81q-.727-.112-1.175-.727-.392-.616-.28-1.344l7.726-46.526q.112-.727.728-1.12.616-.447 1.344-.335l3.527.56q.728.112 1.12.727.447.616.335 1.344l-7.726 46.526q-.112.727-.728 1.175-.615.392-1.343.28l-3.528-.56z" style="line-height:125%;-inkscape-font-specification:FontAwesome;text-align:center"/></g><path style="line-height:normal;font-variant-ligatures:none;font-variant-position:normal;font-variant-caps:normal;font-variant-numeric:normal;font-variant-alternates:normal;font-feature-settings:normal;text-indent:0;text-align:start;text-decoration-line:none;text-decoration-style:solid;text-decoration-color:#000;text-transform:none;block-progression:tb;shape-padding:0;isolation:auto;mix-blend-mode:normal" d="M68.703 174.594l-5.246 16.209c13.743 4.448 21.922 19.751 31.016 36.695 1.857 3.462 3.743 6.947 5.778 10.342l-1.552-.655c-12.43-5.269-26.73-11.189-47.07-11.189v17.037c17.155 0 28.049 4.594 40.42 9.838 3.23 1.37 6.569 2.784 10.082 4.13-3.973 2.18-7.696 4.492-11.25 6.698-12.367 7.676-22.836 14.114-39.252 14.114v17.037c20.8 0 35.408-8.72 47.74-16.368-1.7 3.359-3.308 6.786-4.902 10.204-8.994 19.277-17.59 36.876-31.084 41.383l5.396 16.158c22.897-7.646 32.267-31.35 41.125-50.339 4.43-9.494 8.757-18.142 13.356-23.744 3.355-4.086 6.336-6.506 10.107-7.52v16.678l25.088-24.114 1.33-1.28-26.418-25.393v16.052c-4.085-.885-7.206-3.076-10.59-6.641-4.542-4.785-8.844-12.196-13.293-20.485-8.897-16.577-18.685-37.696-40.781-44.847z" color="#000" font-weight="400" font-family="sans-serif" white-space="normal" overflow="visible" fill="#80b3ff" fill-rule="evenodd"/><g fill="#80b3ff" stroke="#80b3ff"><path d="M-131.552-58.68c35.838 11.6 35.933 72.843 71.866 72.843M-146.003-6.863c37.495 0 50.384 21.026 86.317 21.026M-146.003 44.954c37.495 0 50.384-30.79 86.317-30.79M-131.552 96.77c36.39-12.151 35.933-82.607 71.866-82.607" fill-rule="evenodd" stroke-width="17.036"/><path d="M-32.577 13.654l-1.33 1.279-25.089 24.114V-11.74z" stroke-width="1.525" stroke-linecap="round" stroke-linejoin="round"/></g></g></svg>