<svg xmlns="http://www.w3.org/2000/svg" xmlns:xlink="http://www.w3.org/1999/xlink" width="466.245" height="379.401" viewBox="0 0 123.36071 100.38322"><defs><linearGradient id="f"><stop offset="0" stop-color="#80b3ff"/><stop offset=".641" stop-color="#80b3ff" stop-opacity=".599"/><stop offset=".743" stop-color="#80b3ff" stop-opacity=".38"/><stop offset="1" stop-color="#80b3ff" stop-opacity=".063"/></linearGradient><linearGradient id="e"><stop offset="0" stop-color="#80b3ff"/><stop offset=".745" stop-color="#80b3ff" stop-opacity=".599"/><stop offset=".849" stop-color="#80b3ff" stop-opacity=".38"/><stop offset="1" stop-color="#80b3ff" stop-opacity=".063"/></linearGradient><linearGradient id="d"><stop offset="0" stop-color="#80b3ff"/><stop offset="1" stop-color="#80b3ff" stop-opacity="0"/></linearGradient><linearGradient id="a"><stop offset="0" stop-color="#fff" stop-opacity=".652"/><stop offset="1" stop-color="#fff" stop-opacity="0"/></linearGradient><linearGradient id="b"><stop offset="0" stop-color="#fff"/><stop offset="1" stop-color="#fff" stop-opacity="0"/></linearGradient><radialGradient xlink:href="#b" id="j" cx="25.365" cy="298.676" fx="25.365" fy="298.676" r="22.264" gradientTransform="matrix(1.48271 0 0 1.14539 -12.977 -64.06)" gradientUnits="userSpaceOnUse"/><linearGradient id="c"><stop offset="0" stop-color="#c87137"/><stop offset=".12" stop-color="#c87137" stop-opacity=".878"/><stop offset="1" stop-color="#c87137" stop-opacity="0"/></linearGradient><radialGradient xlink:href="#a" id="i" gradientUnits="userSpaceOnUse" gradientTransform="matrix(.80636 0 0 .32366 -2.181 162.981)" cx="25.365" cy="298.676" fx="25.365" fy="298.676" r="22.264"/><linearGradient xlink:href="#d" id="g" x1="22.698" y1="41.086" x2="39.617" y2="27.052" gradientUnits="userSpaceOnUse"/><radialGradient xlink:href="#a" id="p" gradientUnits="userSpaceOnUse" gradientTransform="matrix(.80636 0 0 .5927 51.264 59.96)" cx="25.365" cy="298.676" fx="25.365" fy="298.676" r="22.264"/><linearGradient xlink:href="#f" id="h" gradientUnits="userSpaceOnUse" x1="48.961" y1="90.474" x2="30.428" y2="69.677"/></defs><path d="M40.824 25.844c-15.823 6.067-19.411 19.696-16.056 31.28" fill="none" stroke="url(#g)" stroke-width="7.108" stroke-linecap="square" transform="translate(-6.168 -12.962)"/><path d="M29.566 68.815c1.683 2.836 3.936 5.564 6.61 8.003 7.434 6.78 18.118 11.32 28.823 9.69" fill="none" stroke="url(#h)" stroke-width="8.408" transform="translate(-6.168 -12.962)"/><path transform="matrix(.7073 -.07768 .06429 .65142 -4.707 -118.83)" d="M57.048 288.272l11.988 6.922 11.99 6.921-11.99 6.922-11.988 6.922v-13.844z" fill="#80b3ff" stroke="#80b3ff" stroke-linecap="round" stroke-linejoin="round"/><path d="M57.048 288.272l11.988 6.922 11.99 6.921-11.99 6.922-11.988 6.922v-13.844z" transform="matrix(.17012 .4173 -.4569 .1757 147.123 -32.627)" fill="#80b3ff" stroke="#80b3ff" stroke-width="1.265" stroke-linecap="round" stroke-linejoin="round"/><g><text y="266.651" x="112.984" style="line-height:125%;-inkscape-font-specification:'Open Sans';text-align:center" font-weight="400" font-size="7.056" font-family="Open Sans" letter-spacing="0" word-spacing="0" text-anchor="middle" stroke-width=".265" transform="matrix(.80611 0 0 .80611 5.529 -171.081)"><tspan style="-inkscape-font-specification:'Open Sans, Verdana, Helvetica, Arial, sans-serif Semi-Bold'" y="266.651" x="112.984" font-family="'Open Sans',Verdana,Helvetica,Arial,sans-serif">Visualisierung</tspan></text><path d="M85.92 56.097v1.137h-18.2v-13.65h1.138v12.513h17.063zm-3.412-9.1l2.275 7.962H69.996v-5.118l3.98-5.12 5.12 5.12 3.412-2.844z" style="line-height:125%;-inkscape-font-specification:FontAwesome;text-align:center" font-weight="400" font-size="19.756" font-family="FontAwesome" letter-spacing="0" word-spacing="0" text-anchor="middle" fill="#c83737" stroke-width=".265"/><path d="M80.989 54.502v4.55h-2.275v-4.55h2.275zm3.413-4.55v9.1h-2.276v-9.1h2.276zm9.1 10.237v1.138h-18.2v-13.65h1.137v12.512h17.063zm-5.688-7.962v6.825H85.54v-6.825h2.275zm3.413-3.413v10.238h-2.275V48.814h2.275z" font-size="19.756" style="line-height:125%;-inkscape-font-specification:FontAwesome;text-align:center" font-weight="400" font-family="FontAwesome" letter-spacing="0" word-spacing="0" text-anchor="middle" fill="#ff7f2a" stroke-width=".265"/><path d="M100.89 64.282v1.137H82.688V51.77h1.137v12.513h17.063zM99.751 53.19v3.866q0 .186-.178.266-.169.071-.311-.07l-1.075-1.076-5.626 5.625q-.089.09-.204.09-.116 0-.205-.09l-2.07-2.07-3.697 3.697-1.706-1.707 5.198-5.198q.09-.09.205-.09.115 0 .204.09l2.07 2.07 4.124-4.123-1.075-1.076q-.142-.142-.071-.31.08-.178.266-.178h3.866q.125 0 .205.08.08.08.08.204z" style="line-height:125%;-inkscape-font-specification:FontAwesome;text-align:center" font-weight="400" font-size="19.756" font-family="FontAwesome" letter-spacing="0" word-spacing="0" text-anchor="middle" fill="green" stroke-width=".265"/><path d="M84.599 77.711v.91h-2.501v-.91h2.5zm2.5-.91q.186 0 .32.136.136.135.136.32v1.818q0 .185-.135.32t-.32.135H85.28q-.185 0-.32-.135t-.135-.32v-1.818q0-.185.135-.32t.32-.135H87.1zm1.138-2.727v.909h-6.14v-.91h6.14zm-4.548-3.638v.91h-1.591v-.91h1.591zm9.322 7.275v.91h-5.23v-.91h5.23zm-6.82-8.185q.184 0 .32.135.134.135.134.32V71.8q0 .185-.135.32t-.32.135h-1.818q-.185 0-.32-.135t-.135-.32V69.98q0-.185.135-.32t.32-.135h1.818zm4.547 3.638q.184 0 .32.135.134.135.134.32v1.819q0 .184-.135.32-.135.134-.32.134H88.92q-.185 0-.32-.135t-.135-.32V73.62q0-.185.135-.32t.32-.135h1.819zm2.273.91v.909H91.42v-.91h1.591zm0-3.638v.91h-6.139v-.91h6.14z" style="line-height:125%;-inkscape-font-specification:FontAwesome;text-align:center" font-weight="400" font-size="15.795" font-family="FontAwesome" letter-spacing="0" word-spacing="0" text-anchor="middle" fill="#ff7f2a" stroke-width=".212"/><text y="293.533" x="77.553" style="line-height:125%;-inkscape-font-specification:'Open Sans';text-align:center" font-weight="400" font-size="7.056" font-family="Open Sans" letter-spacing="0" word-spacing="0" text-anchor="middle" stroke-width=".265" transform="matrix(.80611 0 0 .80611 46.049 -157.871)"><tspan dy="0 0 0" style="-inkscape-font-specification:'Open Sans, Verdana, Helvetica, Arial, sans-serif Semi-Bold'" y="293.533" x="77.553" font-family="'Open Sans',Verdana,Helvetica,Arial,sans-serif">Web-App</tspan></text><text style="line-height:125%;-inkscape-font-specification:'Open Sans';text-align:center" x="77.144" y="296.156" font-weight="400" font-size="5.805" font-family="Open Sans" letter-spacing="0" word-spacing="0" text-anchor="middle" stroke-width=".265" transform="matrix(.80611 0 0 .80611 46.049 -165.28)"><tspan x="77.144" y="296.156" style="-inkscape-font-specification:'Open Sans, Verdana, Helvetica, Arial, sans-serif Semi-Bold'" font-family="'Open Sans',Verdana,Helvetica,Arial,sans-serif">interaktive</tspan></text><g font-weight="400" letter-spacing="0" word-spacing="0" text-anchor="middle"><g stroke-width=".182" font-size="4.439" font-family="Open Sans"><text y="298.922" x="92.718" style="line-height:125%;-inkscape-font-specification:'Open Sans';text-align:center" transform="matrix(1.17383 0 0 1.17383 -33.096 -260.78)"><tspan style="-inkscape-font-specification:'Open Sans, Verdana, Helvetica, Arial, sans-serif Semi-Bold'" y="298.922" x="93.295" font-family="'Open Sans',Verdana,Helvetica,Arial,sans-serif">Dynamische</tspan></text><text style="line-height:125%;-inkscape-font-specification:'Open Sans';text-align:center" x="97.352" y="303.275" transform="matrix(1.17383 0 0 1.17383 -33.096 -260.78)"><tspan x="97.352" y="303.275" style="-inkscape-font-specification:'Open Sans, Verdana, Helvetica, Arial, sans-serif Semi-Bold'" font-family="'Open Sans',Verdana,Helvetica,Arial,sans-serif">Dokumente</tspan></text></g><path d="M109.157 87.356q.206.206.353.559.147.353.147.647v8.47q0 .294-.206.5-.206.205-.5.205h-9.882q-.294 0-.5-.205-.206-.206-.206-.5V85.268q0-.294.206-.5.206-.206.5-.206h6.588q.294 0 .647.147.353.147.559.353l2.294 2.294zm-3.265-1.794v2.764h2.765q-.074-.213-.162-.301l-2.301-2.301q-.089-.089-.302-.162zm2.824 11.234v-7.529h-3.06q-.293 0-.499-.205-.206-.206-.206-.5v-3.059h-5.647v11.293h9.412zm-7.53-6.352q0-.103.067-.17.066-.065.169-.065h5.176q.103 0 .17.066.065.066.065.169v.47q0 .103-.066.17-.066.066-.169.066h-5.176q-.103 0-.17-.066-.065-.067-.065-.17v-.47zm5.412 1.647q.103 0 .17.066.065.066.065.17v.47q0 .103-.066.169-.066.066-.169.066h-5.176q-.103 0-.17-.066-.065-.066-.065-.17v-.47q0-.103.066-.169.066-.066.169-.066h5.176zm0 1.882q.103 0 .17.066.065.066.065.17v.47q0 .103-.066.169-.066.066-.169.066h-5.176q-.103 0-.17-.066-.065-.066-.065-.17v-.47q0-.103.066-.169.066-.066.169-.066h5.176z" style="line-height:125%;-inkscape-font-specification:FontAwesome;text-align:center" font-size="16.345" font-family="FontAwesome" fill="green" stroke-width=".328"/></g><g transform="matrix(.80611 0 0 .80611 10.62 -151.22)"><ellipse ry="7.206" rx="17.952" cy="259.65" cx="18.272" fill="url(#i)"/><text y="261.258" x="16.666" style="line-height:125%;-inkscape-font-specification:'Open Sans';text-align:center" font-weight="400" font-size="7.847" font-family="Open Sans" letter-spacing="0" word-spacing="0" text-anchor="middle" stroke-width=".294"><tspan style="-inkscape-font-specification:'Open Sans, Verdana, Helvetica, Arial, sans-serif Semi-Bold'" y="261.258" x="16.666" font-family="'Open Sans',Verdana,Helvetica,Arial,sans-serif">Auswertung</tspan></text><g transform="translate(-3.745 73.357) scale(.73367)"><ellipse cx="24.631" cy="278.038" rx="33.01" ry="25.5" fill="url(#j)"/><g style="line-height:125%;-inkscape-font-specification:FontAwesome;text-align:center" font-weight="400" font-size="16.636" font-family="FontAwesome" letter-spacing=".031" word-spacing="0" text-anchor="middle" fill="#ff7f2a" stroke="#ff7f2a" stroke-width=".665" stroke-linecap="round" stroke-linejoin="round"><path d="M8.324 265.652q.032-.91.317-1.332.511-.748 1.974-.748.138 0 .284.008.146.008.333.025v1.332q-.227-.016-.333-.016-.097-.008-.187-.008-.666 0-.796.35-.13.34-.13 1.754h1.446v1.153H9.77v7.506H8.324v-7.506h-1.21v-1.153h1.21v-1.365zM17.94 263.548q-1.276 2.478-1.658 3.647-.577 1.78-.577 4.11 0 2.357.658 4.306.406 1.202 1.6 3.46h-.982q-1.186-1.851-1.47-2.363-.285-.512-.618-1.39-.455-1.201-.634-2.566-.09-.707-.09-1.349 0-2.404.756-4.28.48-1.195 1.999-3.575h1.015z" letter-spacing=".966"/><path d="M18.753 266.976h1.892l1.999 3.063 2.023-3.063 1.779.04-2.933 4.2 3.062 4.46h-1.868l-2.16-3.265-2.096 3.265h-1.853l3.063-4.46-2.908-4.24zM27.435 279.072q1.292-2.519 1.666-3.672.568-1.747.568-4.094 0-2.348-.658-4.297-.406-1.203-1.6-3.46h.983q1.25 1.997 1.51 2.469.269.463.578 1.283.39 1.015.552 2.007.17.99.17 1.908 0 2.405-.763 4.29-.48 1.21-1.99 3.566h-1.016z"/></g><path d="M41.069 280.846l-.551.551q-.11.11-.254.11-.143 0-.253-.11l-5.138-5.137q-.11-.11-.11-.254 0-.143.11-.253l5.138-5.138q.11-.11.253-.11.144 0 .254.11l.551.552q.11.11.11.253 0 .144-.11.254l-4.333 4.332 4.333 4.333q.11.11.11.253 0 .144-.11.254zm6.515-11.763l-4.112 14.232q-.044.144-.176.21-.121.077-.254.033l-.683-.187q-.143-.045-.22-.177-.067-.121-.023-.264l4.112-14.233q.045-.143.166-.21.132-.076.264-.032l.684.187q.143.044.21.176.077.122.032.265zm7.243 7.177l-5.137 5.137q-.11.11-.254.11-.143 0-.253-.11l-.551-.551q-.11-.11-.11-.254 0-.143.11-.253l4.332-4.333-4.332-4.332q-.11-.11-.11-.254 0-.143.11-.253l.55-.552q.111-.11.254-.11.144 0 .254.11l5.137 5.138q.11.11.11.253 0 .144-.11.254z" style="line-height:125%;-inkscape-font-specification:FontAwesome;text-align:center" font-weight="400" font-size="19.756" font-family="FontAwesome" letter-spacing="0" word-spacing="0" text-anchor="middle" fill="green" stroke="green" stroke-width=".465"/><g stroke="red" stroke-linecap="round"><path d="M25.882 296.539H49.15m-11.634 0v-14.817" fill="red" fill-rule="evenodd" stroke-width=".5"/><path d="M26.735 295.158c7.257 0 5.35-10.54 10.594-10.763 5.244-.222 4.088 10.763 10.967 10.763" fill="none" stroke-width="1.081"/></g><g transform="rotate(14.618 161.257 302.968)"><path d="M10.583 329.015L29.007 316.3" fill="none" stroke="#00f" stroke-width="1.081" stroke-linecap="round"/><circle r=".398" cy="321.582" cx="13.119" fill="#00f"/><circle r=".72" id="k" cx="13.408" cy="321.233" fill="#00f" stroke-width=".906" stroke-linecap="round" stroke-linejoin="round"/><use height="100%" width="100%" transform="translate(10.617 -4.63)" id="l" xlink:href="#k"/><use height="100%" width="100%" transform="translate(4.911 3.134)" id="m" xlink:href="#l"/><use height="100%" width="100%" transform="translate(-15.762 9.822)" id="n" xlink:href="#m"/><use height="100%" width="100%" transform="translate(10.804 -6.782)" id="o" xlink:href="#n"/><use height="100%" width="100%" transform="translate(-4.958 -2.245)" xlink:href="#o"/><use height="100%" width="100%" transform="translate(6.314 6.267)" xlink:href="#k"/></g></g></g><g transform="matrix(.80611 0 0 .80611 -36.97 -160.196)"><ellipse ry="13.196" rx="17.952" cy="236.985" cx="71.717" fill="url(#p)"/><text y="237.612" x="68.809" style="line-height:125%;-inkscape-font-specification:'Open Sans';text-align:center" font-weight="400" font-size="6.405" font-family="Open Sans" letter-spacing="0" word-spacing="0" text-anchor="middle" stroke-width=".24"><tspan style="-inkscape-font-specification:'Open Sans, Verdana, Helvetica, Arial, sans-serif Semi-Bold'" y="237.612" x="68.809" font-family="'Open Sans',Verdana,Helvetica,Arial,sans-serif">Übertragung</tspan></text><g font-weight="400" font-family="FontAwesome" letter-spacing="0" word-spacing="0" text-anchor="middle"><path d="M103.762 239.737v.94q0 .064-.065.113-.06.044-.145.044h-9.04v.941q0 .064-.066.108-.059.049-.144.049-.079 0-.158-.05l-2.096-1.567q-.059-.044-.059-.108 0-.068.06-.113l2.102-1.567q.059-.044.15-.044.086 0 .145.049.066.044.066.107v.941h9.04q.086 0 .145.049.065.044.065.108zm-.059-2.778q.06.044.06.113 0 .068-.06.112l-2.102 1.568q-.06.044-.151.044-.086 0-.151-.044-.06-.049-.06-.113v-.94H92.2q-.085 0-.15-.044-.06-.05-.06-.113v-.94q0-.065.06-.109.065-.049.15-.049h9.04v-.94q0-.069.06-.113.059-.044.15-.044.08 0 .158.049l2.096 1.563z" style="line-height:125%;-inkscape-font-specification:FontAwesome;text-align:center" font-size="10.167" fill="green" stroke-width=".136"/><path d="M96.814 238.733q-.388.388-.494.388-.106 0-.494-.388-.388-.393-.388-.5 0-.17.33-.286.334-.117.552-.117.218 0 .547.117.335.117.335.287 0 .106-.388.499zm.94-1.052q-.01 0-.213-.132-.201-.133-.541-.266-.335-.133-.68-.133-.345 0-.685.133-.335.133-.536.266-.197.132-.213.132-.095 0-.5-.398-.397-.398-.397-.494 0-.069.053-.122.414-.409 1.04-.643.627-.233 1.238-.233.61 0 1.237.233.627.234 1.041.643.053.053.053.122 0 .096-.403.494-.399.398-.494.398zm1.45-1.444q-.059 0-.122-.043-.723-.557-1.339-.817-.616-.266-1.423-.266-.451 0-.908.117-.452.117-.791.281-.335.165-.6.33-.266.164-.42.281-.154.117-.165.117-.09 0-.488-.398-.399-.399-.399-.494 0-.064.054-.117.7-.701 1.699-1.089.998-.388 2.018-.388 1.02 0 2.018.388.998.388 1.7 1.089.053.053.053.117 0 .095-.399.494-.398.398-.488.398zm1.439-1.44q-.059 0-.117-.047-.95-.834-1.976-1.253-1.02-.425-2.23-.425t-2.236.425q-1.02.42-1.97 1.253-.058.048-.117.048-.09 0-.494-.399-.398-.398-.398-.494 0-.069.053-.122.993-.987 2.363-1.53 1.37-.54 2.799-.54 1.429 0 2.799.54 1.37.543 2.363 1.53.053.053.053.122 0 .096-.404.494-.398.399-.488.399z" style="line-height:125%;-inkscape-font-specification:FontAwesome;text-align:center" font-size="9.517" fill="#f60" stroke-width=".127"/></g></g><g font-weight="400" letter-spacing="0" word-spacing="0" text-anchor="middle"><g font-size="5.894" font-family="'Open Sans',Verdana,Helvetica,Arial,sans-serif" stroke-width=".221"><text style="line-height:125%;-inkscape-font-specification:'Open Sans, Verdana, Helvetica, Arial, sans-serif';text-align:center" x="62.514" y="203.486" transform="matrix(.80611 0 0 .80611 18.393 -152.43)"><tspan x="62.514" y="203.486" style="-inkscape-font-specification:'Open Sans, Verdana, Helvetica, Arial, sans-serif'">Aufzeichnung</tspan></text><text style="line-height:125%;-inkscape-font-specification:'Open Sans, Verdana, Helvetica, Arial, sans-serif';text-align:center" x="62.514" y="214.291" transform="matrix(.80611 0 0 .80611 18.393 -152.43)"><tspan x="62.514" y="214.291" style="-inkscape-font-specification:'Open Sans, Verdana, Helvetica, Arial, sans-serif'">Vorverarbeitung</tspan></text><text y="209.11" x="59.799" style="line-height:125%;-inkscape-font-specification:'Open Sans, Verdana, Helvetica, Arial, sans-serif';text-align:center" transform="matrix(.80611 0 0 .80611 18.393 -152.43)"><tspan style="-inkscape-font-specification:'Open Sans, Verdana, Helvetica, Arial, sans-serif'" y="209.11" x="59.799">+</tspan></text></g><g font-family="FontAwesome"><path d="M45.237 12.784v-.914q0-.066-.043-.11-.042-.042-.109-.042h-1.523q-.067 0-.11.043t-.043.11v.913q0 .067.043.11t.11.043h1.523q.067 0 .11-.043.042-.043.042-.11zm0-1.828v-.914q0-.066-.043-.109-.042-.043-.109-.043h-1.523q-.067 0-.11.043t-.043.11v.913q0 .067.043.11t.11.043h1.523q.067 0 .11-.043.042-.043.042-.11zm2.438 1.828v-.914q0-.066-.043-.11-.043-.042-.11-.042H46q-.067 0-.11.043-.042.043-.042.11v.913q0 .067.042.11.043.043.11.043h1.523q.067 0 .11-.043t.043-.11zM45.237 9.13v-.914q0-.067-.043-.11-.042-.043-.109-.043h-1.523q-.067 0-.11.043t-.043.11v.914q0 .066.043.109t.11.043h1.523q.067 0 .11-.043.042-.043.042-.11zm2.438 1.827v-.914q0-.066-.043-.109t-.11-.043H46q-.067 0-.11.043-.042.043-.042.11v.913q0 .067.042.11.043.043.11.043h1.523q.067 0 .11-.043t.043-.11zm2.437 1.828v-.914q0-.066-.043-.11-.043-.042-.11-.042h-1.523q-.067 0-.11.043-.042.043-.042.11v.913q0 .067.043.11.042.043.11.043h1.522q.067 0 .11-.043t.043-.11zM47.675 9.13v-.914q0-.067-.043-.11t-.11-.043H46q-.067 0-.11.043-.042.043-.042.11v.914q0 .066.042.109.043.043.11.043h1.523q.067 0 .11-.043t.043-.11zm2.437 1.827v-.914q0-.066-.043-.109t-.11-.043h-1.523q-.067 0-.11.043-.042.043-.042.11v.913q0 .067.043.11.042.043.11.043h1.522q.067 0 .11-.043t.043-.11zm0-1.827v-.914q0-.067-.043-.11t-.11-.043h-1.523q-.067 0-.11.043-.042.043-.042.11v.914q0 .066.043.109.042.043.11.043h1.522q.067 0 .11-.043t.043-.11zm.609-1.524v5.18q0 .313-.224.537-.223.224-.538.224h-6.397q-.314 0-.538-.224-.224-.224-.224-.538V7.605q0-.314.224-.538.224-.223.538-.223h6.397q.315 0 .538.223.224.224.224.538z" style="line-height:125%;-inkscape-font-specification:FontAwesome;text-align:center" font-size="13.369" fill="#ff7f2a" stroke-width=".179"/><path d="M39.307 15.583q.98.204 2.109.204 1.128 0 2.109-.204.98-.205 1.547-.605v.81q0 .328-.49.609-.49.28-1.333.447-.843.162-1.833.162t-1.833-.162q-.842-.167-1.332-.447-.49-.281-.49-.61v-.809q.566.4 1.546.605zm0 3.655q.98.205 2.109.205 1.128 0 2.109-.205.98-.204 1.547-.604v.809q0 .328-.49.61-.49.28-1.333.442-.843.167-1.833.167t-1.833-.167q-.842-.162-1.332-.443-.49-.28-.49-.609v-.81q.566.4 1.546.605zm0-1.828q.98.205 2.109.205 1.128 0 2.109-.205.98-.204 1.547-.604v.81q0 .328-.49.608-.49.281-1.333.448-.843.162-1.833.162t-1.833-.162q-.842-.167-1.332-.448-.49-.28-.49-.609v-.81q.566.4 1.546.605zm.276-5.112q.843-.167 1.833-.167t1.833.167q.842.162 1.333.443.49.28.49.609v.61q0 .328-.49.609-.49.28-1.333.447-.843.162-1.833.162t-1.833-.162q-.842-.167-1.332-.447-.49-.281-.49-.61v-.609q0-.328.49-.61.49-.28 1.332-.442z" style="line-height:125%;-inkscape-font-specification:FontAwesome;text-align:center" font-size="13.369" fill="green" stroke-width=".179"/><path d="M40.346 4.852q.133.133.229.361.095.229.095.42v5.483q0 .19-.133.324-.134.133-.324.133h-6.398q-.19 0-.323-.133-.134-.134-.134-.324V3.5q0-.19.134-.324.133-.133.323-.133h4.265q.19 0 .42.095.228.095.361.229l1.485 1.485zM38.233 3.69v1.79h1.79q-.048-.138-.105-.195l-1.49-1.49q-.057-.057-.195-.105zm1.828 7.274V6.089h-1.98q-.191 0-.324-.133-.134-.133-.134-.324v-1.98h-3.655v7.312h6.093zm-4.418-4.265q.038-.053.1-.057.062-.01.114.028l.243.181q.052.038.057.1.01.062-.028.114l-.867 1.157.867 1.157q.038.052.028.114-.005.062-.057.1l-.243.18q-.052.039-.114.034-.062-.01-.1-.062l-1.076-1.433q-.066-.09 0-.18l1.076-1.433zm3.818 1.432q.066.09 0 .181l-1.076 1.433q-.038.052-.1.062-.062.004-.114-.033l-.243-.181q-.052-.038-.062-.1-.005-.062.033-.114l.867-1.157-.867-1.157q-.038-.052-.033-.114.01-.062.062-.1l.243-.18q.052-.039.114-.03.062.005.1.058l1.076 1.432zm-2.952 2.195q-.061-.01-.1-.062-.033-.052-.023-.114l.657-3.956q.01-.062.061-.095.053-.038.115-.029l.3.048q.061.01.095.062.038.052.028.114l-.657 3.956q-.009.062-.061.1-.053.033-.115.023l-.3-.047z" style="line-height:125%;-inkscape-font-specification:FontAwesome;text-align:center" font-size="13.369" fill="#80b3ff" stroke-width=".179"/><g style="line-height:125%;-inkscape-font-specification:FontAwesome;text-align:center" font-size="19.756" fill="#c83737" stroke-width=".265"><path d="M41.193 9.248l.433-.433-1.119-1.119-.433.434v.509h.61v.61h.509zm2.49-4.417q0-.105-.105-.105-.048 0-.081.033l-2.58 2.58q-.034.034-.034.081 0 .105.105.105.048 0 .081-.033l2.58-2.58q.033-.034.033-.081zm-.258-.914l1.98 1.98-3.96 3.96h-1.98v-1.98l3.96-3.96zm3.251.457q0 .252-.176.428l-.79.79-1.98-1.98.79-.785q.171-.181.429-.181.252 0 .433.18L46.5 3.942q.176.185.176.433z"/><path d="M46.22 4.83q0 .253-.177.43l-.79.79-1.98-1.98.79-.786q.171-.181.429-.181.252 0 .433.18l1.118 1.115q.176.185.176.433z" fill="#fff"/><path d="M43.425 3.917l-3.96 3.96v1.98h1.98l3.96-3.96-1.98-1.98z"/><path d="M44.492 5.64c.07 0 .104.035.104.105a.11.11 0 0 1-.033.08l-2.58 2.58a.11.11 0 0 1-.08.034c-.07 0-.106-.035-.106-.105a.11.11 0 0 1 .034-.08l2.58-2.58a.11.11 0 0 1 .08-.034zM41.193 9.248l.433-.433-1.119-1.119-.433.434v.509h.61v.61h.509zM43.682 4.83q0-.104-.104-.104-.048 0-.081.033l-2.58 2.58q-.034.034-.034.081 0 .105.105.105.048 0 .081-.033l2.58-2.58q.033-.034.033-.081z" fill="#fff"/><path d="M46.676 4.374q0 .252-.176.428l-.79.79-1.98-1.98.79-.785q.171-.181.429-.181.252 0 .433.18L46.5 3.942q.176.185.176.433z"/><path d="M44.14 5.288q0-.105-.105-.105-.048 0-.081.033l-2.58 2.58q-.034.034-.034.081 0 .105.105.105.048 0 .081-.033l2.58-2.58q.033-.034.033-.081z" fill="#fff"/></g></g></g></g></svg>