<svg xmlns="http://www.w3.org/2000/svg" xmlns:xlink="http://www.w3.org/1999/xlink" preserveAspectRatio="xMidYMin meet" viewBox="0 0 223.40539 123.52594"><defs><linearGradient id="a"><stop offset="0" stop-color="#006c35"/><stop offset="1" stop-color="#006cea"/></linearGradient></defs><g opacity=".783"><path d="M103.574 21.5c-11.22 0-20.34 9.018-20.34 20.133 0 7.957 4.712 14.776 11.485 18.045.858 1.196 1.376 2.231 1.467 3.011.112.974-.18 1.71-.791 2.47-.982 1.218-2.843 2.342-4.657 3.575a26.542 26.542 0 0 0-13.37 8.032c-9.945 11.03-9.165 28.139 1.743 38.197 10.909 10.058 27.849 9.267 37.793-1.764 9.945-11.031 9.164-28.139-1.744-38.197-1.624-1.498-3.409-2.679-5.258-3.697-2.149-1.382-3.727-3.178-3.765-5.108-.033-1.659.934-3.567 3.603-5.476 8.193-2.6 14.176-10.117 14.176-19.088 0-11.115-9.122-20.133-20.342-20.133zM51.021 23.475c-9.65 0-17.492 7.833-17.492 17.476 0 .923.134 1.81.272 2.694l.193 1.177c.96 3.42 1.177 6.29.637 8.358-.6 2.3-1.916 3.752-3.856 4.502-1.522.588-3.508.642-5.765.222a13.822 13.822 0 0 0-5.094-.994C12.24 56.91 6 63.144 6 70.814s6.24 13.907 13.916 13.907c1.625 0 3.163-.335 4.613-.848l.02.053c2.577-.833 4.408-1.032 5.652-.852 1.244.18 1.915.673 2.428 1.428 1.012 1.49 1.127 4.241 1.562 6.842-.19.992-.308 2.01-.308 3.056 0 8.982 7.305 16.28 16.293 16.28s16.29-7.298 16.29-16.28c0-8.981-7.302-16.279-16.29-16.279-1.666 0-3.243.323-4.758.79l-.024-.073c-4.202 1.154-7.244 1.295-9.222.709-1.919-.569-2.889-1.736-3.342-3.617a13.787 13.787 0 0 0 1.002-5.116c0-1.698-.348-3.306-.908-4.812l.062-.215c1.416-4.86 5.469-8.742 13.276-8.033l.017-.06c1.518.43 3.088.734 4.742.734 9.65 0 17.49-7.834 17.49-17.477s-7.84-17.477-17.49-17.477zM152.18 28.568c-9.65 0-17.498 7.759-17.498 17.319 0 9.56 7.848 17.318 17.498 17.318 2.792 0 5.396-.708 7.74-1.863l.002.015c1.73-.161 2.924-.118 3.658.061.735.18.977.405 1.154.771.356.733.119 2.572-.058 5.118h.002c-1.4 2.488-2.266 5.311-2.266 8.359 0 1.527.263 2.981.639 4.393h-.004c-.214 1.74-.807 3.251-1.889 3.984-1.082.733-2.85 1.306-5.686-.353-2.837-1.66-6.02-3.27-9.511-3.27-8.413 0-15.258 6.767-15.258 15.103 0 8.337 6.845 15.102 15.258 15.102s15.258-6.765 15.258-15.102c0-1.046-.11-2.068-.315-3.054.426-2.982 1.327-4.284 2.389-4.787 1.053-.5 2.57-.295 4.342.304a17.524 17.524 0 0 0 12.273 4.998c9.65 0 17.498-7.758 17.498-17.318 0-9.56-7.848-17.32-17.498-17.32-2.527 0-4.916.558-7.088 1.515-2.766.204-4.328-.067-4.998-.709-.337-.323-.557-.775-.654-1.543-.097-.767-.047-1.821.156-3.166l-.02-.006c1.467-2.532 2.372-5.425 2.372-8.55 0-9.56-7.847-17.319-17.496-17.319z" fill="#fff"/><path d="M113.574 1.5c-11.22 0-20.34 9.018-20.34 20.133 0 7.957 4.712 14.776 11.485 18.045.858 1.196 1.376 2.231 1.467 3.011.112.974-.18 1.71-.791 2.47-.982 1.218-2.843 2.342-4.657 3.575a26.542 26.542 0 0 0-13.37 8.032c-9.945 11.03-9.165 28.139 1.743 38.197 10.909 10.058 27.849 9.267 37.793-1.764 9.945-11.031 9.164-28.139-1.744-38.197-1.624-1.498-3.409-2.679-5.258-3.697-2.149-1.382-3.727-3.178-3.765-5.108-.033-1.659.934-3.567 3.603-5.476 8.193-2.6 14.176-10.117 14.176-19.088 0-11.115-9.122-20.133-20.342-20.133zM61.021 3.475c-9.65 0-17.492 7.833-17.492 17.476 0 .923.134 1.81.272 2.694l.193 1.177c.96 3.42 1.177 6.29.637 8.358-.6 2.3-1.916 3.752-3.856 4.502-1.522.588-3.508.642-5.765.222a13.822 13.822 0 0 0-5.094-.994C22.24 36.91 16 43.144 16 50.814s6.24 13.907 13.916 13.907c1.625 0 3.163-.335 4.613-.848l.02.053c2.577-.833 4.408-1.032 5.652-.852 1.244.18 1.915.673 2.428 1.428 1.012 1.49 1.127 4.241 1.562 6.842-.19.992-.308 2.01-.308 3.056 0 8.982 7.305 16.28 16.293 16.28s16.29-7.298 16.29-16.28c0-8.981-7.302-16.279-16.29-16.279-1.666 0-3.243.323-4.758.79l-.024-.073c-4.202 1.154-7.244 1.295-9.222.709-1.919-.569-2.889-1.736-3.342-3.617a13.787 13.787 0 0 0 1.002-5.116c0-1.698-.348-3.306-.908-4.812l.062-.215c1.416-4.86 5.469-8.742 13.276-8.033l.017-.06c1.518.43 3.088.734 4.742.734 9.65 0 17.49-7.834 17.49-17.477s-7.84-17.477-17.49-17.477zM162.18 8.568c-9.65 0-17.498 7.759-17.498 17.319 0 9.56 7.848 17.318 17.498 17.318 2.792 0 5.396-.708 7.74-1.863l.002.015c1.73-.161 2.924-.118 3.658.061.735.18.977.405 1.154.771.356.733.119 2.572-.058 5.118h.002c-1.4 2.488-2.266 5.311-2.266 8.359 0 1.527.263 2.981.639 4.393h-.004c-.214 1.74-.807 3.251-1.889 3.984-1.082.733-2.85 1.306-5.686-.353-2.837-1.66-6.02-3.27-9.511-3.27-8.413 0-15.258 6.767-15.258 15.103 0 8.337 6.845 15.102 15.258 15.102s15.258-6.765 15.258-15.102c0-1.046-.11-2.068-.315-3.054.426-2.982 1.327-4.284 2.389-4.787 1.053-.5 2.57-.295 4.342.304a17.524 17.524 0 0 0 12.273 4.998c9.65 0 17.498-7.758 17.498-17.318 0-9.56-7.848-17.32-17.498-17.32-2.527 0-4.916.558-7.088 1.515-2.766.204-4.328-.067-4.998-.709-.337-.323-.557-.775-.654-1.543-.097-.767-.047-1.821.156-3.166l-.02-.006c1.467-2.532 2.372-5.425 2.372-8.55 0-9.56-7.847-17.319-17.496-17.319z" fill="#ccc"/><path d="M152.18 28.568c-9.65 0-17.498 7.759-17.498 17.319 0 9.56 7.848 17.318 17.498 17.318 2.792 0 5.396-.708 7.74-1.863l.002.015c1.73-.161 2.924-.118 3.658.061.735.18.977.405 1.154.771.356.733.119 2.572-.058 5.118h.002c-1.4 2.488-2.266 5.311-2.266 8.359 0 1.527.263 2.981.639 4.393h-.004c-.214 1.74-.807 3.251-1.889 3.984-1.082.733-2.85 1.306-5.686-.353-2.837-1.66-6.02-3.27-9.511-3.27-8.413 0-15.258 6.767-15.258 15.103 0 8.337 6.845 15.102 15.258 15.102s15.258-6.765 15.258-15.102c0-1.046-.11-2.068-.315-3.054.426-2.982 1.327-4.284 2.389-4.787 1.053-.5 2.57-.295 4.342.304a17.524 17.524 0 0 0 12.273 4.998c9.65 0 17.498-7.758 17.498-17.318 0-9.56-7.848-17.32-17.498-17.32-2.527 0-4.916.558-7.088 1.515-2.766.204-4.328-.067-4.998-.709-.337-.323-.557-.775-.654-1.543-.097-.767-.047-1.821.156-3.166l-.02-.006c1.467-2.532 2.372-5.425 2.372-8.55 0-9.56-7.847-17.319-17.496-17.319" fill="#fff"/><path d="M152.502 27.923c-9.65 0-17.498 7.758-17.498 17.319 0 9.56 7.849 17.318 17.498 17.318 2.792 0 5.397-.709 7.74-1.863l.002.015c1.731-.162 2.924-.119 3.659.06.734.18.976.406 1.154.772.356.733.118 2.572-.059 5.118H165c-1.399 2.488-2.265 5.311-2.265 8.359 0 1.527.262 2.981.638 4.392h-.004c-.213 1.74-.806 3.252-1.888 3.985-1.082.733-2.85 1.306-5.687-.354-2.837-1.66-6.019-3.27-9.51-3.27-8.413 0-15.258 6.768-15.258 15.104 0 8.337 6.845 15.102 15.258 15.102 8.412 0 15.257-6.765 15.257-15.102 0-1.046-.109-2.068-.314-3.054.425-2.982 1.326-4.284 2.389-4.787 1.053-.5 2.57-.296 4.341.304a17.524 17.524 0 0 0 12.274 4.998c9.65 0 17.498-7.758 17.498-17.318 0-9.56-7.849-17.32-17.498-17.32-2.528 0-4.917.558-7.088 1.515-2.766.203-4.329-.067-4.998-.709-.337-.323-.557-.776-.654-1.543-.098-.767-.047-1.821.156-3.166l-.02-.006c1.467-2.532 2.371-5.425 2.371-8.55 0-9.56-7.846-17.319-17.496-17.319" fill="#fdfdfd"/><path d="M152.825 27.278c-9.65 0-17.498 7.758-17.498 17.318 0 9.56 7.848 17.319 17.498 17.319 2.792 0 5.396-.709 7.74-1.864l.002.016c1.73-.162 2.924-.119 3.658.06.735.18.977.406 1.155.772.355.733.118 2.572-.059 5.117h.002c-1.4 2.489-2.266 5.312-2.266 8.36 0 1.527.263 2.981.64 4.392h-.005c-.214 1.74-.807 3.252-1.889 3.985-1.081.733-2.849 1.306-5.686-.354-2.837-1.66-6.02-3.27-9.51-3.27-8.414 0-15.259 6.768-15.259 15.104 0 8.337 6.845 15.102 15.258 15.102s15.258-6.766 15.258-15.102c0-1.046-.11-2.068-.314-3.055.425-2.98 1.326-4.283 2.388-4.787 1.053-.5 2.57-.295 4.342.305a17.524 17.524 0 0 0 12.273 4.998c9.65 0 17.498-7.758 17.498-17.318 0-9.56-7.848-17.32-17.498-17.32-2.527 0-4.916.558-7.087 1.515-2.766.203-4.329-.067-4.998-.709-.338-.323-.558-.776-.655-1.543-.097-.767-.046-1.821.156-3.166l-.019-.006c1.466-2.532 2.371-5.425 2.371-8.55 0-9.56-7.847-17.32-17.496-17.32v.001" fill="#fbfbfb"/><path d="M153.147 26.633c-9.649 0-17.498 7.758-17.498 17.318 0 9.56 7.85 17.319 17.498 17.319 2.792 0 5.397-.709 7.74-1.864l.003.016c1.73-.162 2.923-.119 3.658.06.734.18.976.405 1.154.772.356.733.119 2.572-.058 5.117h.002c-1.4 2.489-2.266 5.312-2.266 8.36 0 1.527.263 2.98.639 4.392h-.004c-.214 1.74-.807 3.251-1.889 3.984-1.082.733-2.85 1.307-5.686-.353-2.838-1.66-6.02-3.27-9.511-3.27-8.413 0-15.258 6.768-15.258 15.104 0 8.336 6.845 15.102 15.258 15.102s15.258-6.766 15.258-15.102c0-1.046-.11-2.068-.315-3.055.426-2.981 1.327-4.283 2.389-4.787 1.053-.5 2.57-.295 4.342.305a17.524 17.524 0 0 0 12.273 4.998c9.65 0 17.498-7.758 17.498-17.318 0-9.56-7.849-17.32-17.498-17.32-2.527 0-4.916.557-7.088 1.515-2.766.203-4.328-.067-4.998-.71-.337-.323-.557-.775-.654-1.542-.097-.767-.047-1.822.156-3.166l-.02-.006c1.467-2.533 2.372-5.425 2.372-8.55v-.001c0-9.56-7.847-17.318-17.496-17.318" fill="#fafafa"/><path d="M153.47 25.988c-9.65 0-17.498 7.758-17.498 17.318 0 9.56 7.849 17.318 17.498 17.318 2.792 0 5.396-.708 7.74-1.863l.002.016c1.73-.162 2.924-.12 3.658.06.735.18.977.405 1.155.772.355.733.118 2.572-.059 5.117h.002c-1.399 2.489-2.265 5.312-2.265 8.36 0 1.527.262 2.98.638 4.392h-.004c-.214 1.74-.807 3.251-1.888 3.984-1.082.733-2.85 1.306-5.687-.353-2.837-1.66-6.019-3.27-9.51-3.27-8.413 0-15.258 6.767-15.258 15.104 0 8.336 6.845 15.101 15.257 15.101 8.413 0 15.258-6.765 15.258-15.101 0-1.047-.109-2.068-.314-3.055.425-2.981 1.326-4.283 2.388-4.787 1.054-.5 2.57-.295 4.342.305a17.524 17.524 0 0 0 12.274 4.998c9.65 0 17.498-7.758 17.498-17.319 0-9.56-7.849-17.32-17.498-17.32-2.528 0-4.917.558-7.088 1.516-2.766.203-4.329-.067-4.998-.71-.338-.323-.557-.775-.655-1.542-.097-.768-.046-1.822.157-3.166l-.02-.006c1.467-2.533 2.371-5.425 2.371-8.551 0-9.56-7.847-17.318-17.496-17.318" fill="#f8f8f8"/><path d="M153.793 25.343c-9.65 0-17.498 7.758-17.498 17.318 0 9.56 7.848 17.318 17.498 17.318 2.792 0 5.396-.708 7.74-1.863l.002.016c1.73-.162 2.924-.12 3.658.06s.976.405 1.154.772c.356.733.119 2.571-.058 5.117h.002c-1.4 2.489-2.266 5.311-2.266 8.36 0 1.527.263 2.98.639 4.392h-.004c-.214 1.74-.807 3.251-1.889 3.984-1.082.733-2.85 1.306-5.686-.353-2.837-1.66-6.02-3.27-9.511-3.27-8.413 0-15.258 6.767-15.258 15.104 0 8.336 6.845 15.101 15.258 15.101s15.258-6.765 15.258-15.101c0-1.047-.11-2.068-.315-3.055.426-2.981 1.327-4.283 2.389-4.787 1.053-.5 2.57-.295 4.342.305a17.524 17.524 0 0 0 12.273 4.998c9.65 0 17.498-7.759 17.498-17.319 0-9.56-7.849-17.32-17.498-17.32-2.527 0-4.916.558-7.088 1.516-2.766.203-4.328-.068-4.998-.71-.337-.323-.557-.775-.654-1.542-.097-.768-.047-1.822.156-3.166l-.02-.006c1.467-2.533 2.372-5.426 2.372-8.551 0-9.56-7.847-17.319-17.496-17.319" fill="#f6f6f6"/><path d="M154.115 24.697c-9.65 0-17.498 7.759-17.498 17.319 0 9.56 7.849 17.318 17.498 17.318 2.792 0 5.397-.708 7.74-1.863l.002.015c1.731-.161 2.924-.118 3.659.061.734.18.976.405 1.154.772.356.733.118 2.571-.059 5.117h.002c-1.399 2.488-2.265 5.311-2.265 8.36 0 1.527.263 2.98.639 4.392h-.005c-.214 1.74-.807 3.251-1.888 3.984-1.082.733-2.85 1.306-5.687-.353-2.837-1.66-6.019-3.27-9.51-3.27-8.413 0-15.258 6.767-15.258 15.104 0 8.336 6.845 15.101 15.257 15.101 8.413 0 15.258-6.765 15.258-15.101 0-1.047-.109-2.069-.314-3.055.425-2.982 1.326-4.283 2.389-4.787 1.053-.5 2.57-.295 4.341.304a17.524 17.524 0 0 0 12.274 4.998c9.65 0 17.498-7.758 17.498-17.318 0-9.56-7.849-17.32-17.498-17.32-2.528 0-4.917.558-7.088 1.515-2.766.204-4.329-.067-4.998-.709-.338-.323-.557-.775-.654-1.543-.098-.767-.047-1.821.156-3.166l-.02-.006c1.467-2.532 2.371-5.425 2.371-8.55 0-9.56-7.846-17.319-17.496-17.319" fill="#f5f5f5"/><path d="M154.438 24.052c-9.65 0-17.498 7.758-17.498 17.319 0 9.56 7.848 17.318 17.498 17.318 2.792 0 5.396-.709 7.74-1.863l.002.015c1.73-.162 2.924-.119 3.658.06.735.18.977.406 1.154.772.356.733.119 2.572-.058 5.117h.002c-1.4 2.49-2.266 5.312-2.266 8.36 0 1.527.263 2.981.64 4.392h-.001-.004c-.214 1.74-.807 3.252-1.889 3.985-1.082.733-2.85 1.306-5.686-.354-2.837-1.66-6.02-3.27-9.51-3.27-8.414 0-15.259 6.768-15.259 15.104 0 8.337 6.845 15.102 15.258 15.102s15.258-6.765 15.258-15.102a14.985 14.985 0 0 0-.315-3.055c.426-2.98 1.327-4.283 2.39-4.787 1.052-.5 2.569-.295 4.34.305h.001a17.524 17.524 0 0 0 12.273 4.998c9.65 0 17.498-7.758 17.498-17.318 0-9.56-7.848-17.32-17.498-17.32-2.527 0-4.916.558-7.088 1.515-2.766.203-4.328-.067-4.998-.709-.337-.323-.557-.776-.654-1.543-.097-.767-.047-1.821.156-3.166l-.02-.006h.001c1.466-2.532 2.371-5.425 2.371-8.55 0-9.561-7.847-17.319-17.496-17.319" fill="#f3f3f3"/><path d="M154.76 23.407c-9.649 0-17.498 7.758-17.498 17.318 0 9.56 7.849 17.319 17.498 17.319 2.792 0 5.397-.709 7.74-1.863l.003.015c1.73-.162 2.923-.119 3.658.06.734.18.976.406 1.154.772.356.733.119 2.572-.059 5.117h.003c-1.4 2.489-2.266 5.312-2.266 8.36 0 1.527.263 2.981.639 4.392h-.004c-.214 1.74-.807 3.252-1.89 3.985-1.081.733-2.849 1.306-5.686-.354-2.837-1.66-6.019-3.27-9.51-3.27-8.413 0-15.258 6.768-15.258 15.104 0 8.337 6.845 15.102 15.258 15.102s15.257-6.766 15.257-15.102c0-1.046-.109-2.068-.314-3.055.426-2.98 1.327-4.283 2.389-4.787 1.053-.5 2.57-.295 4.342.305a17.524 17.524 0 0 0 12.273 4.998c9.65 0 17.498-7.758 17.498-17.318 0-9.56-7.849-17.32-17.498-17.32-2.528 0-4.916.558-7.088 1.515-2.766.203-4.328-.067-4.998-.709-.337-.323-.557-.776-.654-1.543-.098-.767-.047-1.821.156-3.166l-.02-.006c1.467-2.532 2.372-5.425 2.372-8.55v-.001c0-9.56-7.847-17.318-17.497-17.318" fill="#f1f1f1"/><path d="M155.083 22.762c-9.65 0-17.498 7.758-17.498 17.318 0 9.56 7.849 17.319 17.498 17.319 2.792 0 5.396-.709 7.74-1.864l.002.016c1.73-.162 2.924-.119 3.658.06.735.18.977.406 1.155.772.355.733.118 2.572-.059 5.117h.002c-1.399 2.489-2.265 5.312-2.265 8.36 0 1.527.262 2.981.638 4.392h-.004c-.214 1.74-.807 3.252-1.888 3.985-1.083.733-2.85 1.306-5.687-.354-2.837-1.66-6.02-3.27-9.51-3.27-8.413 0-15.259 6.768-15.259 15.104 0 8.336 6.846 15.102 15.258 15.102 8.413 0 15.258-6.766 15.258-15.102a14.986 14.986 0 0 0-.314-3.055c.425-2.981 1.326-4.283 2.388-4.787 1.054-.5 2.57-.295 4.342.305a17.524 17.524 0 0 0 12.274 4.998c9.65 0 17.498-7.758 17.498-17.318 0-9.56-7.85-17.32-17.498-17.32-2.528 0-4.917.557-7.088 1.515-2.766.203-4.329-.067-4.998-.71-.338-.323-.557-.775-.655-1.542-.097-.767-.046-1.822.157-3.166l-.02-.006c1.467-2.533 2.371-5.425 2.371-8.551 0-9.56-7.847-17.318-17.496-17.318" fill="#f0f0f0"/><path d="M155.405 22.117c-9.649 0-17.498 7.758-17.498 17.318 0 9.56 7.85 17.318 17.498 17.318 2.793 0 5.397-.708 7.74-1.863l.003.016c1.73-.162 2.924-.119 3.658.06.734.18.976.405 1.154.772.356.733.119 2.572-.058 5.117h.002c-1.4 2.489-2.266 5.312-2.266 8.36 0 1.527.263 2.98.639 4.392h-.004c-.214 1.74-.807 3.251-1.889 3.984-1.082.733-2.85 1.306-5.686-.353-2.838-1.66-6.02-3.27-9.511-3.27-8.413 0-15.258 6.768-15.258 15.104 0 8.336 6.845 15.101 15.258 15.101s15.258-6.765 15.258-15.101a14.986 14.986 0 0 0-.315-3.055c.426-2.981 1.327-4.283 2.389-4.787 1.053-.5 2.57-.295 4.342.305a17.524 17.524 0 0 0 12.273 4.998c9.65 0 17.498-7.758 17.498-17.319 0-9.56-7.849-17.32-17.498-17.32-2.527 0-4.916.558-7.088 1.516-2.766.203-4.328-.067-4.998-.71-.337-.323-.557-.775-.654-1.542-.097-.768-.047-1.822.156-3.166l-.02-.006c1.467-2.533 2.372-5.426 2.372-8.551 0-9.56-7.847-17.318-17.496-17.318" fill="#eee"/><path d="M155.728 21.472c-9.65 0-17.498 7.758-17.498 17.318 0 9.56 7.849 17.318 17.498 17.318 2.792 0 5.396-.708 7.74-1.863l.002.016c1.731-.162 2.924-.12 3.659.06.734.18.976.405 1.154.772.356.733.118 2.572-.059 5.117h.003c-1.4 2.489-2.266 5.312-2.266 8.36 0 1.527.263 2.98.639 4.392h-.005c-.214 1.74-.807 3.251-1.888 3.984-1.082.733-2.85 1.306-5.687-.353-2.837-1.66-6.019-3.27-9.51-3.27-8.413 0-15.258 6.767-15.258 15.104 0 8.336 6.845 15.101 15.258 15.101 8.412 0 15.257-6.765 15.257-15.101 0-1.047-.109-2.068-.314-3.055.425-2.981 1.326-4.283 2.389-4.787 1.053-.5 2.57-.295 4.341.305a17.524 17.524 0 0 0 12.274 4.998c9.65 0 17.498-7.759 17.498-17.319 0-9.56-7.849-17.32-17.498-17.32-2.528 0-4.917.558-7.088 1.516-2.766.203-4.329-.067-4.998-.71-.338-.323-.557-.775-.654-1.542-.098-.768-.047-1.822.156-3.166l-.02-.006c1.467-2.533 2.371-5.426 2.371-8.551 0-9.56-7.846-17.319-17.496-17.319" fill="#ececec"/><path d="M156.05 20.826c-9.649 0-17.497 7.759-17.497 17.319 0 9.56 7.848 17.318 17.498 17.318 2.792 0 5.396-.708 7.74-1.863a4.141 4.141 0 0 1 .002.015c1.73-.161 2.924-.118 3.658.061.735.18.977.405 1.154.771.356.734.119 2.572-.058 5.118h.002c-1.4 2.488-2.265 5.311-2.265 8.359 0 1.528.262 2.982.638 4.393h-.004c-.214 1.74-.807 3.251-1.889 3.984-1.082.733-2.85 1.306-5.686-.353-2.837-1.66-6.02-3.27-9.51-3.27-8.414 0-15.259 6.767-15.259 15.103 0 8.337 6.845 15.102 15.258 15.102s15.258-6.765 15.258-15.102c0-1.046-.11-2.068-.315-3.054.426-2.982 1.327-4.284 2.39-4.787 1.053-.5 2.57-.295 4.34.304h.001a17.524 17.524 0 0 0 12.273 4.998c9.65 0 17.498-7.758 17.498-17.318 0-9.56-7.848-17.32-17.498-17.32-2.527 0-4.916.558-7.088 1.515-2.766.204-4.328-.067-4.998-.709-.337-.323-.557-.776-.654-1.543-.097-.767-.046-1.821.156-3.166l-.02-.006h.001c1.466-2.532 2.37-5.425 2.37-8.55 0-9.56-7.846-17.319-17.495-17.319" fill="#ebebeb"/><path d="M156.373 20.181c-9.65 0-17.498 7.758-17.498 17.319 0 9.56 7.849 17.318 17.498 17.318 2.792 0 5.397-.709 7.74-1.863l.002.015c1.731-.162 2.924-.119 3.659.06.734.18.976.406 1.154.772.356.734.118 2.572-.059 5.118h.003c-1.4 2.488-2.266 5.311-2.266 8.359 0 1.527.263 2.981.639 4.392h-.004c-.214 1.74-.807 3.252-1.89 3.985-1.081.733-2.849 1.306-5.686-.354-2.837-1.66-6.019-3.27-9.51-3.27-8.413 0-15.258 6.768-15.258 15.104 0 8.337 6.845 15.102 15.258 15.102s15.258-6.765 15.258-15.102a14.985 14.985 0 0 0-.315-3.055c.426-2.98 1.327-4.283 2.389-4.786 1.053-.5 2.57-.295 4.342.304a17.524 17.524 0 0 0 12.273 4.998c9.65 0 17.498-7.758 17.498-17.318 0-9.56-7.849-17.32-17.498-17.32-2.528 0-4.916.558-7.088 1.515-2.766.203-4.328-.067-4.998-.709-.337-.323-.557-.776-.654-1.543-.097-.767-.047-1.821.156-3.166l-.02-.006c1.467-2.532 2.372-5.425 2.372-8.55v-.001c0-9.56-7.847-17.318-17.496-17.318" fill="#e9e9e9"/><path d="M156.696 19.536c-9.65 0-17.498 7.758-17.498 17.318 0 9.56 7.849 17.319 17.498 17.319 2.792 0 5.396-.709 7.74-1.863l.002.015c1.73-.162 2.924-.119 3.658.06.735.18.977.406 1.155.772.355.734.118 2.572-.059 5.117h.002c-1.399 2.49-2.265 5.312-2.265 8.36 0 1.527.263 2.981.639 4.392h-.005c-.214 1.74-.807 3.252-1.888 3.985-1.083.733-2.85 1.306-5.687-.354-2.837-1.66-6.02-3.27-9.51-3.27-8.413 0-15.259 6.768-15.258 15.104 0 8.337 6.845 15.102 15.257 15.102 8.413 0 15.258-6.766 15.258-15.102 0-1.046-.11-2.068-.314-3.055.425-2.98 1.326-4.283 2.388-4.787 1.054-.5 2.57-.295 4.342.305a17.524 17.524 0 0 0 12.274 4.998c9.65 0 17.498-7.758 17.498-17.318 0-9.56-7.85-17.32-17.498-17.32-2.528 0-4.917.558-7.088 1.515-2.766.203-4.329-.067-4.998-.709-.338-.324-.557-.776-.655-1.543-.097-.767-.046-1.821.157-3.166l-.02-.006c1.467-2.532 2.371-5.425 2.371-8.55v-.001c0-9.56-7.847-17.318-17.496-17.318" fill="#e7e7e7"/><path d="M157.018 18.89c-9.649 0-17.498 7.76-17.498 17.32s7.85 17.318 17.498 17.318c2.793 0 5.397-.709 7.74-1.864l.003.016c1.73-.162 2.923-.119 3.658.06.734.18.976.406 1.154.772.356.733.119 2.572-.058 5.117h.002c-1.4 2.489-2.266 5.312-2.266 8.36 0 1.527.263 2.981.64 4.392h-.001-.004c-.214 1.74-.807 3.252-1.889 3.985-1.082.733-2.85 1.306-5.686-.354-2.838-1.66-6.02-3.27-9.511-3.27-8.413 0-15.258 6.768-15.258 15.104 0 8.337 6.845 15.102 15.258 15.102s15.258-6.766 15.258-15.102c0-1.047-.11-2.068-.315-3.055.426-2.981 1.327-4.283 2.389-4.787 1.053-.5 2.57-.295 4.342.305a17.524 17.524 0 0 0 12.273 4.998c9.65 0 17.498-7.758 17.498-17.318 0-9.56-7.849-17.32-17.498-17.32-2.527 0-4.916.557-7.088 1.515-2.766.203-4.328-.067-4.998-.71-.337-.323-.557-.775-.654-1.542-.097-.767-.047-1.822.156-3.166l-.02-.006c1.467-2.533 2.372-5.425 2.372-8.55v-.001c0-9.56-7.847-17.318-17.496-17.318" fill="#e6e6e6"/><path d="M157.341 18.246c-9.65 0-17.498 7.758-17.498 17.318 0 9.56 7.849 17.318 17.498 17.318 2.792 0 5.396-.708 7.74-1.863l.002.016c1.731-.162 2.924-.119 3.658.06.735.18.977.405 1.155.772.355.733.118 2.572-.059 5.117h.002c-1.4 2.489-2.266 5.312-2.266 8.36 0 1.527.263 2.98.639 4.392h-.005c-.214 1.74-.807 3.251-1.888 3.984-1.082.733-2.85 1.306-5.687-.353-2.837-1.66-6.019-3.27-9.51-3.27-8.413 0-15.258 6.767-15.258 15.104 0 8.336 6.845 15.101 15.258 15.101 8.412 0 15.257-6.765 15.257-15.101 0-1.047-.109-2.068-.314-3.055.425-2.981 1.326-4.283 2.389-4.787 1.053-.5 2.57-.295 4.341.305a17.524 17.524 0 0 0 12.274 4.998c9.65 0 17.498-7.759 17.498-17.319 0-9.56-7.849-17.32-17.498-17.32-2.528 0-4.917.558-7.088 1.516-2.766.203-4.329-.067-4.998-.71-.338-.323-.557-.775-.654-1.542-.098-.768-.047-1.822.156-3.166l-.02-.006c1.467-2.533 2.371-5.426 2.371-8.551 0-9.56-7.847-17.319-17.496-17.319" fill="#e4e4e4"/><path d="M157.664 17.6c-9.65 0-17.498 7.759-17.498 17.319 0 9.56 7.848 17.318 17.498 17.318 2.792 0 5.396-.708 7.74-1.863l.002.016c1.73-.162 2.924-.12 3.658.06.735.18.976.405 1.154.772.356.733.119 2.572-.058 5.117h.001c-1.399 2.489-2.265 5.312-2.265 8.36 0 1.527.262 2.98.638 4.392h-.004c-.214 1.74-.807 3.251-1.889 3.984-1.082.733-2.85 1.306-5.686-.353-2.837-1.66-6.02-3.27-9.51-3.27-8.414 0-15.259 6.767-15.259 15.104 0 8.336 6.846 15.101 15.258 15.101 8.413 0 15.258-6.765 15.258-15.101 0-1.047-.11-2.069-.315-3.055.426-2.981 1.327-4.283 2.39-4.787 1.053-.5 2.57-.295 4.341.305a17.524 17.524 0 0 0 12.273 4.998c9.65 0 17.498-7.759 17.498-17.319 0-9.56-7.848-17.32-17.498-17.32-2.527 0-4.916.558-7.087 1.516-2.767.203-4.329-.068-4.999-.71-.337-.323-.557-.775-.654-1.542-.097-.768-.046-1.822.156-3.166l-.019-.007c1.466-2.532 2.371-5.425 2.371-8.55 0-9.56-7.847-17.319-17.496-17.319" fill="#e3e3e3"/><path d="M157.986 16.955c-9.65 0-17.498 7.759-17.498 17.319 0 9.56 7.849 17.318 17.498 17.318 2.792 0 5.397-.708 7.74-1.863l.002.015c1.731-.161 2.924-.118 3.659.061.734.18.976.405 1.154.772.356.733.118 2.571-.059 5.117h.002c-1.4 2.489-2.266 5.311-2.266 8.36 0 1.527.263 2.98.639 4.392h-.004c-.214 1.74-.807 3.251-1.89 3.984-1.081.733-2.849 1.306-5.686-.353-2.837-1.66-6.019-3.27-9.51-3.27-8.413 0-15.258 6.767-15.258 15.104 0 8.336 6.845 15.101 15.258 15.101s15.257-6.765 15.257-15.101c0-1.047-.109-2.069-.314-3.055.426-2.982 1.326-4.283 2.389-4.787 1.053-.5 2.57-.295 4.341.304a17.524 17.524 0 0 0 12.274 4.998c9.65 0 17.498-7.758 17.498-17.318 0-9.56-7.849-17.32-17.498-17.32-2.528 0-4.917.558-7.088 1.515-2.766.204-4.328-.067-4.998-.709-.338-.323-.557-.776-.654-1.543-.097-.767-.047-1.821.156-3.166a3.59 3.59 0 0 0-.02-.006c1.467-2.532 2.372-5.425 2.372-8.55v-.001c0-9.56-7.847-17.318-17.497-17.318" fill="#e1e1e1"/><path d="M158.309 16.31c-9.65 0-17.498 7.758-17.498 17.319 0 9.56 7.849 17.318 17.498 17.318 2.792 0 5.396-.708 7.74-1.863l.002.015c1.73-.161 2.924-.118 3.658.06v.001c.735.18.977.405 1.154.771.356.734.119 2.572-.058 5.118h.001c-1.399 2.488-2.265 5.311-2.265 8.359 0 1.528.263 2.981.639 4.393h-.005c-.214 1.74-.807 3.251-1.889 3.984-1.082.733-2.85 1.306-5.686-.354-2.837-1.66-6.02-3.27-9.51-3.27-8.414 0-15.259 6.768-15.259 15.104 0 8.337 6.846 15.102 15.258 15.102 8.413 0 15.258-6.765 15.258-15.102 0-1.046-.11-2.068-.314-3.054.425-2.982 1.326-4.284 2.388-4.787 1.054-.5 2.57-.295 4.342.304a17.524 17.524 0 0 0 12.274 4.998c9.65 0 17.498-7.758 17.498-17.318 0-9.56-7.85-17.32-17.498-17.32h-.001c-2.527 0-4.916.558-7.087 1.515-2.766.204-4.329-.067-4.998-.709-.338-.323-.558-.776-.655-1.543-.097-.767-.046-1.821.157-3.166h-.001l-.019-.006c1.467-2.532 2.371-5.425 2.371-8.55v-.001c0-9.56-7.847-17.318-17.496-17.318" fill="#dfdfdf"/><path d="M158.631 15.665c-9.65 0-17.498 7.758-17.498 17.318v.001c0 9.56 7.85 17.318 17.498 17.318 2.792 0 5.397-.709 7.74-1.863l.003.015c1.73-.162 2.923-.119 3.658.06.734.18.976.406 1.154.772.356.734.119 2.572-.059 5.117h.002c-1.4 2.49-2.266 5.312-2.266 8.36 0 1.527.263 2.981.64 4.392h-.005c-.214 1.74-.807 3.252-1.889 3.985-1.082.733-2.85 1.306-5.686-.354-2.838-1.66-6.02-3.27-9.511-3.27-8.413 0-15.258 6.768-15.258 15.104 0 8.337 6.845 15.102 15.258 15.102s15.258-6.766 15.258-15.102a14.985 14.985 0 0 0-.315-3.055c.426-2.98 1.327-4.283 2.389-4.787 1.054-.499 2.57-.295 4.342.305a17.524 17.524 0 0 0 12.273 4.998c9.65 0 17.498-7.758 17.498-17.318 0-9.56-7.849-17.32-17.498-17.32-2.528 0-4.916.558-7.088 1.515-2.766.203-4.328-.067-4.998-.709-.337-.324-.557-.776-.654-1.543-.097-.767-.047-1.821.156-3.166a1.272 1.272 0 0 0-.02-.006c1.467-2.533 2.372-5.425 2.372-8.55v-.001c0-9.56-7.847-17.318-17.496-17.318" fill="#dedede"/><path d="M158.954 15.02c-9.65 0-17.498 7.758-17.498 17.318 0 9.56 7.849 17.319 17.498 17.319 2.792 0 5.396-.709 7.74-1.864l.002.016c1.731-.162 2.924-.119 3.658.06.735.18.977.406 1.155.772.355.734.118 2.572-.059 5.117h.002c-1.4 2.489-2.266 5.312-2.266 8.36 0 1.527.263 2.981.639 4.392h-.005c-.214 1.74-.807 3.252-1.888 3.985-1.083.733-2.85 1.305-5.687-.354-2.837-1.66-6.02-3.27-9.51-3.27-8.413 0-15.258 6.768-15.258 15.104 0 8.337 6.845 15.102 15.257 15.102h.001c8.412 0 15.257-6.766 15.257-15.102 0-1.047-.109-2.068-.314-3.055.425-2.981 1.326-4.283 2.388-4.787h.001c1.053-.5 2.57-.295 4.341.305a17.524 17.524 0 0 0 12.274 4.998c9.65 0 17.498-7.758 17.498-17.318v-.001c0-9.56-7.85-17.32-17.498-17.32-2.528 0-4.917.558-7.088 1.516-2.766.203-4.329-.067-4.998-.71-.338-.323-.557-.775-.655-1.542-.097-.768-.046-1.822.157-3.166a.787.787 0 0 1-.02-.006c1.467-2.533 2.371-5.426 2.371-8.551 0-9.56-7.847-17.318-17.496-17.318" fill="#dcdcdc"/><path d="M159.276 14.375c-9.649 0-17.498 7.758-17.498 17.318 0 9.56 7.85 17.319 17.498 17.319 2.793 0 5.397-.709 7.74-1.864l.003.016c1.73-.162 2.924-.119 3.658.06.734.18.976.405 1.154.772.356.733.119 2.572-.058 5.117h.001c-1.399 2.489-2.265 5.312-2.265 8.36 0 1.527.262 2.981.638 4.392h-.004c-.214 1.74-.807 3.251-1.889 3.984-1.082.734-2.85 1.306-5.686-.353-2.837-1.66-6.02-3.27-9.51-3.27-8.414 0-15.259 6.768-15.259 15.104 0 8.336 6.846 15.101 15.258 15.101 8.413 0 15.258-6.765 15.258-15.101 0-1.047-.11-2.068-.315-3.055.426-2.981 1.327-4.283 2.39-4.787 1.053-.5 2.57-.295 4.34.305h.001a17.524 17.524 0 0 0 12.273 4.998h.001c9.649 0 17.497-7.759 17.497-17.319 0-9.56-7.848-17.32-17.498-17.32-2.527 0-4.916.558-7.088 1.516-2.766.203-4.328-.067-4.998-.71-.337-.323-.557-.775-.654-1.542-.097-.768-.047-1.822.156-3.166l-.02-.006h.001c1.466-2.533 2.37-5.426 2.37-8.551 0-9.56-7.846-17.319-17.495-17.319" fill="#dadada"/><path d="M159.599 13.73c-9.65 0-17.498 7.758-17.498 17.318 0 9.56 7.849 17.318 17.498 17.318 2.792 0 5.396-.708 7.74-1.863l.002.016c1.731-.162 2.924-.12 3.659.06.734.18.976.405 1.154.772.356.733.118 2.572-.059 5.117h.002c-1.4 2.489-2.266 5.312-2.266 8.36 0 1.527.263 2.98.639 4.392h-.004c-.214 1.74-.807 3.251-1.89 3.984-1.082.733-2.849 1.306-5.686-.353-2.837-1.66-6.019-3.27-9.51-3.27-8.413 0-15.258 6.767-15.258 15.104 0 8.336 6.845 15.101 15.258 15.101s15.257-6.765 15.257-15.101c0-1.047-.109-2.069-.314-3.055.426-2.981 1.327-4.283 2.389-4.787 1.053-.5 2.57-.295 4.342.305a17.524 17.524 0 0 0 12.273 4.998c9.65 0 17.498-7.759 17.498-17.319 0-9.56-7.849-17.32-17.498-17.32-2.528 0-4.917.558-7.088 1.516-2.766.203-4.328-.068-4.998-.71-.338-.323-.557-.775-.654-1.542-.097-.768-.047-1.822.156-3.166l-.02-.007c1.467-2.532 2.372-5.425 2.372-8.55v-.001c0-9.56-7.847-17.318-17.497-17.318" fill="#d9d9d9"/><path d="M159.922 13.084c-9.65 0-17.498 7.759-17.498 17.319 0 9.56 7.848 17.318 17.498 17.318 2.792 0 5.396-.708 7.74-1.863l.002.016c1.73-.162 2.924-.12 3.658.06.735.18.977.405 1.154.772.356.733.119 2.572-.058 5.117h.002c-1.4 2.489-2.266 5.312-2.266 8.36 0 1.527.263 2.98.639 4.392h-.005c-.214 1.74-.807 3.251-1.889 3.984-1.082.733-2.85 1.306-5.686-.353-2.837-1.66-6.02-3.27-9.51-3.27-8.414 0-15.259 6.767-15.259 15.104 0 8.336 6.846 15.101 15.258 15.101 8.413 0 15.258-6.765 15.258-15.101 0-1.047-.11-2.069-.314-3.055.425-2.981 1.326-4.283 2.388-4.787 1.054-.5 2.57-.295 4.342.305a17.524 17.524 0 0 0 12.274 4.998c9.65 0 17.498-7.759 17.498-17.319 0-9.56-7.85-17.32-17.498-17.32h-.001c-2.527 0-4.916.558-7.087 1.516-2.766.203-4.329-.068-4.998-.71-.338-.323-.558-.776-.655-1.542-.097-.768-.046-1.822.157-3.166h-.001l-.019-.007c1.467-2.532 2.371-5.425 2.371-8.55v-.001c0-9.56-7.847-17.318-17.496-17.318" fill="#d7d7d7"/><path d="M160.244 12.44c-9.65 0-17.498 7.757-17.498 17.318 0 9.56 7.85 17.318 17.498 17.318 2.792 0 5.397-.708 7.74-1.863l.003.015c1.73-.161 2.923-.118 3.658.061.734.18.976.405 1.154.771.356.734.118 2.573-.059 5.118h.002c-1.4 2.489-2.265 5.311-2.265 8.359 0 1.528.262 2.982.638 4.393h-.003c-.214 1.74-.807 3.251-1.889 3.984-1.082.733-2.85 1.306-5.686-.353-2.838-1.66-6.02-3.27-9.511-3.27-8.413 0-15.258 6.767-15.258 15.103v.001c0 8.336 6.845 15.101 15.258 15.101s15.258-6.765 15.258-15.102c0-1.046-.11-2.068-.315-3.054.426-2.982 1.327-4.284 2.389-4.787 1.054-.5 2.57-.295 4.342.304a17.524 17.524 0 0 0 12.273 4.998c9.65 0 17.498-7.758 17.498-17.318 0-9.56-7.849-17.32-17.498-17.32-2.528 0-4.916.558-7.088 1.515-2.766.204-4.328-.067-4.998-.709-.337-.323-.557-.776-.654-1.543-.097-.767-.047-1.821.156-3.166-.004 0-.02-.006-.02-.006 1.467-2.532 2.372-5.425 2.372-8.55v-.001c0-9.56-7.847-17.318-17.496-17.318" fill="#d5d5d5"/><path d="M160.567 11.794c-9.65 0-17.498 7.758-17.498 17.319 0 9.56 7.849 17.318 17.498 17.318 2.792 0 5.396-.709 7.74-1.863l.002.015c1.73-.162 2.924-.119 3.658.06.735.18.977.406 1.155.772.355.734.118 2.572-.059 5.117h.002c-1.4 2.49-2.266 5.312-2.266 8.36 0 1.528.263 2.981.639 4.392h-.004v.001c-.214 1.74-.807 3.25-1.888 3.984h-.001c-1.082.733-2.85 1.306-5.686-.354-2.837-1.66-6.02-3.27-9.51-3.27-8.413 0-15.258 6.768-15.258 15.104 0 8.337 6.845 15.102 15.257 15.102h.001c8.413 0 15.257-6.766 15.257-15.102 0-1.047-.109-2.068-.314-3.054.425-2.982 1.326-4.284 2.388-4.788h.001c1.053-.499 2.57-.294 4.341.305a17.524 17.524 0 0 0 12.274 4.998c9.65 0 17.498-7.758 17.498-17.318 0-9.56-7.85-17.32-17.498-17.32h-.001c-2.527 0-4.916.558-7.087 1.515-2.766.203-4.329-.067-4.998-.709-.338-.324-.557-.776-.655-1.543-.097-.767-.046-1.821.157-3.166h-.001a52.605 52.605 0 0 0-.019-.006c1.467-2.533 2.371-5.425 2.371-8.55v-.002c0-9.56-7.847-17.317-17.496-17.317" fill="#d4d4d4"/><path d="M160.89 11.149c-9.65 0-17.499 7.758-17.499 17.318v.001c0 9.56 7.85 17.318 17.498 17.318 2.793 0 5.397-.709 7.74-1.864v.001l.003.015c1.73-.162 2.924-.119 3.658.06.734.18.976.406 1.154.772.356.734.119 2.572-.058 5.117h.001c-1.399 2.49-2.265 5.312-2.265 8.36 0 1.527.263 2.981.639 4.392h-.004c-.214 1.74-.807 3.252-1.889 3.985-1.082.733-2.85 1.305-5.686-.354-2.838-1.66-6.02-3.27-9.51-3.27-8.414 0-15.259 6.768-15.259 15.104 0 8.337 6.846 15.102 15.258 15.102 8.413 0 15.258-6.766 15.258-15.102 0-1.047-.11-2.068-.315-3.055.426-2.981 1.327-4.283 2.39-4.787 1.053-.5 2.57-.295 4.34.305h.001a17.524 17.524 0 0 0 12.273 4.998h.001c9.65 0 17.497-7.758 17.497-17.318v-.001c0-9.56-7.849-17.32-17.498-17.32-2.528 0-4.916.559-7.088 1.516-2.766.203-4.328-.067-4.998-.709-.337-.324-.557-.776-.654-1.543-.097-.768-.047-1.822.156-3.166a3.156 3.156 0 0 0-.02-.006h.001c1.466-2.533 2.37-5.426 2.37-8.551 0-9.56-7.846-17.318-17.495-17.318" fill="#d2d2d2"/><path d="M161.212 10.504c-9.65 0-17.498 7.758-17.498 17.318v.001c0 9.56 7.849 17.318 17.498 17.318 2.792 0 5.396-.709 7.74-1.864l.002.016c1.731-.162 2.924-.119 3.658.06.735.18.977.406 1.155.772.355.734.118 2.572-.059 5.117h.002c-1.4 2.49-2.266 5.312-2.266 8.36 0 1.527.263 2.981.64 4.392h-.004c-.214 1.74-.807 3.252-1.89 3.985-1.082.733-2.85 1.305-5.686-.354-2.837-1.66-6.019-3.27-9.51-3.27-8.413 0-15.258 6.768-15.258 15.104 0 8.337 6.845 15.102 15.258 15.102s15.257-6.766 15.257-15.102c0-1.047-.109-2.068-.314-3.055.426-2.981 1.327-4.283 2.389-4.787 1.054-.5 2.57-.295 4.341.305h.001a17.524 17.524 0 0 0 12.273 4.998c9.65 0 17.498-7.758 17.498-17.318V57.6c0-9.56-7.849-17.32-17.498-17.32-2.528 0-4.917.559-7.088 1.516-2.766.203-4.328-.067-4.998-.71-.338-.323-.557-.775-.654-1.542-.097-.768-.047-1.822.156-3.166a3.554 3.554 0 0 0-.02-.006c1.467-2.533 2.372-5.426 2.372-8.551 0-9.56-7.847-17.318-17.497-17.318" fill="#d0d0d0"/><path d="M161.535 9.859c-9.65 0-17.499 7.758-17.499 17.318 0 9.56 7.85 17.318 17.499 17.318 2.792 0 5.396-.708 7.74-1.863l.002.016c1.73-.162 2.924-.12 3.658.06.735.18.976.406 1.154.772.356.734.119 2.572-.058 5.117h.002c-1.4 2.489-2.266 5.312-2.266 8.36 0 1.527.263 2.981.639 4.392h-.004c-.214 1.74-.807 3.251-1.889 3.984-1.082.734-2.85 1.306-5.686-.353-2.837-1.66-6.02-3.27-9.51-3.27-8.413 0-15.259 6.768-15.259 15.104 0 8.337 6.846 15.101 15.258 15.101h.001c8.412 0 15.257-6.765 15.257-15.101 0-1.047-.11-2.068-.314-3.055.425-2.981 1.326-4.283 2.388-4.787h.001c1.053-.5 2.57-.295 4.341.305a17.524 17.524 0 0 0 12.274 4.998c9.65 0 17.498-7.759 17.498-17.319 0-9.56-7.85-17.32-17.498-17.32h-.001c-2.527 0-4.916.558-7.087 1.516-2.766.203-4.329-.067-4.998-.71-.338-.323-.558-.775-.655-1.542-.097-.768-.046-1.822.157-3.166h-.001a3.554 3.554 0 0 0-.019-.006c1.467-2.533 2.371-5.426 2.371-8.551v-.001c0-9.56-7.847-17.318-17.496-17.318" fill="#cfcfcf"/><path d="M161.857 9.214c-9.65 0-17.498 7.758-17.498 17.318 0 9.56 7.849 17.318 17.498 17.318 2.792 0 5.397-.708 7.74-1.863l.002.016h.001c1.73-.162 2.923-.12 3.658.06.734.18.976.405 1.154.772.356.733.118 2.572-.059 5.117h.002c-1.4 2.489-2.265 5.312-2.265 8.36 0 1.527.262 2.98.638 4.392h-.003c-.214 1.74-.807 3.251-1.889 3.984-1.083.733-2.85 1.306-5.686-.353h-.001c-2.837-1.66-6.019-3.27-9.51-3.27-8.413 0-15.258 6.767-15.258 15.104 0 8.336 6.845 15.101 15.258 15.101s15.258-6.765 15.258-15.101v-.001c0-1.046-.11-2.068-.315-3.054.426-2.982 1.327-4.283 2.389-4.787 1.054-.5 2.57-.295 4.342.305a17.524 17.524 0 0 0 12.273 4.998c9.65 0 17.498-7.759 17.498-17.319 0-9.56-7.849-17.32-17.498-17.32-2.528 0-4.917.558-7.088 1.516-2.766.203-4.328-.068-4.998-.71-.337-.323-.557-.776-.654-1.542v-.001c-.097-.767-.047-1.821.156-3.165l-.02-.007c1.467-2.532 2.372-5.425 2.372-8.55v-.001c0-9.56-7.847-17.318-17.496-17.318" fill="#cdcdcd"/><path d="M162.18 8.568c-9.65 0-17.498 7.759-17.498 17.319 0 9.56 7.849 17.318 17.498 17.318 2.792 0 5.396-.708 7.74-1.863l.002.015c1.73-.161 2.924-.118 3.658.061.735.18.977.405 1.155.771v.001c.355.733.118 2.572-.06 5.117h.002c-1.399 2.489-2.265 5.311-2.265 8.359 0 1.528.263 2.982.639 4.393h-.004c-.214 1.74-.807 3.251-1.888 3.984h-.001c-1.082.733-2.85 1.306-5.686-.353-2.837-1.66-6.02-3.27-9.51-3.27-8.413 0-15.258 6.767-15.258 15.103v.001c0 8.336 6.845 15.101 15.257 15.101h.001c8.413 0 15.257-6.765 15.257-15.102 0-1.046-.109-2.068-.314-3.054.425-2.982 1.326-4.284 2.388-4.787h.001c1.053-.5 2.57-.295 4.341.304a17.524 17.524 0 0 0 12.274 4.998c9.65 0 17.498-7.758 17.498-17.318 0-9.56-7.85-17.32-17.498-17.32h-.001c-2.527 0-4.916.558-7.087 1.515-2.766.204-4.329-.067-4.998-.709-.338-.323-.557-.776-.655-1.543-.097-.767-.046-1.821.157-3.166h-.001c-.004 0-.019-.006-.019-.006 1.467-2.533 2.371-5.425 2.371-8.55v-.002c0-9.56-7.847-17.317-17.496-17.317" fill="#ccc"/><g><path d="M103.574 21.5c-11.22 0-20.34 9.018-20.34 20.133 0 7.957 4.712 14.776 11.485 18.045.858 1.196 1.376 2.231 1.467 3.011v.001c.112.974-.18 1.708-.791 2.468-.982 1.219-2.844 2.343-4.657 3.576a26.542 26.542 0 0 0-13.37 8.032h-.001c-9.944 11.031-9.164 28.139 1.744 38.197 10.91 10.058 27.85 9.267 37.793-1.764 9.945-11.031 9.164-28.139-1.744-38.197-1.625-1.498-3.41-2.679-5.258-3.697-2.15-1.382-3.727-3.178-3.765-5.108-.033-1.66.935-3.567 3.603-5.476h.001c8.192-2.6 14.175-10.117 14.175-19.088 0-11.115-9.122-20.133-20.342-20.133" fill="#fff"/><path d="M103.897 20.855c-11.22 0-20.34 9.018-20.34 20.133 0 7.957 4.712 14.776 11.484 18.045.858 1.196 1.377 2.231 1.467 3.011v.001c.113.974-.179 1.708-.79 2.468h-.001c-.981 1.219-2.843 2.343-4.656 3.576h-.001a26.542 26.542 0 0 0-13.37 8.031v.001c-9.944 11.031-9.164 28.139 1.744 38.197 10.909 10.058 27.849 9.267 37.793-1.764 9.944-11.032 9.164-28.14-1.744-38.197-1.625-1.498-3.41-2.679-5.258-3.697v-.001c-2.15-1.381-3.727-3.177-3.766-5.107-.033-1.66.935-3.568 3.604-5.476 8.193-2.6 14.176-10.117 14.176-19.088 0-11.115-9.123-20.133-20.342-20.133" fill="#fdfdfd"/><path d="M104.22 20.21c-11.22 0-20.34 9.018-20.34 20.132v.001c0 7.957 4.712 14.776 11.484 18.044.858 1.197 1.376 2.232 1.467 3.012.112.974-.18 1.709-.791 2.469-.982 1.219-2.843 2.343-4.657 3.576a26.542 26.542 0 0 0-13.371 8.032c-9.944 11.031-9.164 28.139 1.744 38.197h.001c10.908 10.058 27.848 9.267 37.792-1.764 9.945-11.032 9.164-28.14-1.744-38.197-1.624-1.498-3.409-2.68-5.257-3.698h-.001c-2.149-1.381-3.727-3.177-3.765-5.107-.033-1.66.935-3.568 3.603-5.477h.001c8.192-2.6 14.175-10.116 14.175-19.088 0-11.114-9.122-20.132-20.342-20.132" fill="#fbfbfb"/><path d="M104.542 19.565c-11.22 0-20.34 9.018-20.34 20.132v.001c0 7.957 4.712 14.776 11.484 18.044.858 1.197 1.377 2.232 1.467 3.012.113.974-.179 1.709-.79 2.469h-.001c-.981 1.218-2.843 2.343-4.656 3.576a26.542 26.542 0 0 0-13.371 8.031c-9.944 11.032-9.164 28.14 1.744 38.197 10.909 10.059 27.849 9.268 37.793-1.763 9.944-11.032 9.164-28.14-1.744-38.198-1.625-1.497-3.41-2.678-5.258-3.697-2.15-1.381-3.727-3.177-3.766-5.107-.032-1.66.935-3.568 3.604-5.477 8.193-2.6 14.176-10.116 14.176-19.088 0-11.115-9.122-20.132-20.342-20.132" fill="#fafafa"/><path d="M104.865 18.92c-11.22 0-20.34 9.018-20.34 20.132 0 7.957 4.712 14.776 11.484 18.045.858 1.197 1.377 2.232 1.467 3.012.112.974-.18 1.709-.791 2.469-.982 1.218-2.843 2.343-4.656 3.576h-.001a26.542 26.542 0 0 0-13.37 8.031c-9.945 11.032-9.164 28.14 1.744 38.197 10.908 10.058 27.849 9.268 37.793-1.763 9.944-11.032 9.164-28.14-1.745-38.198-1.624-1.498-3.409-2.678-5.257-3.697h-.001c-2.149-1.382-3.726-3.177-3.765-5.107-.033-1.66.935-3.568 3.604-5.477 8.192-2.6 14.175-10.116 14.175-19.088 0-11.115-9.122-20.133-20.341-20.133" fill="#f8f8f8"/><path d="M105.187 18.274c-11.22 0-20.34 9.018-20.34 20.133 0 7.957 4.712 14.776 11.485 18.045.858 1.197 1.376 2.231 1.466 3.012.113.974-.179 1.708-.79 2.468-.982 1.219-2.844 2.343-4.657 3.577a26.542 26.542 0 0 0-13.37 8.03l-.001.001c-9.944 11.031-9.164 28.139 1.744 38.197 10.909 10.058 27.85 9.267 37.793-1.764 9.944-11.031 9.164-28.139-1.744-38.197-1.625-1.498-3.41-2.679-5.258-3.697-2.15-1.382-3.727-3.178-3.765-5.108-.033-1.659.934-3.567 3.603-5.476 8.193-2.6 14.176-10.117 14.176-19.088 0-11.115-9.122-20.133-20.342-20.133" fill="#f6f6f6"/><path d="M105.51 17.629c-11.22 0-20.34 9.018-20.34 20.133 0 7.957 4.712 14.776 11.484 18.045.858 1.196 1.377 2.231 1.467 3.011v.001c.113.974-.179 1.708-.791 2.468-.982 1.219-2.843 2.343-4.656 3.576h-.001a26.542 26.542 0 0 0-13.37 8.032c-9.945 11.031-9.164 28.139 1.744 38.197 10.908 10.058 27.849 9.267 37.793-1.764 9.944-11.031 9.164-28.139-1.744-38.197-1.625-1.498-3.41-2.679-5.258-3.697-2.15-1.382-3.727-3.178-3.766-5.108-.033-1.66.935-3.567 3.604-5.476 8.193-2.6 14.176-10.117 14.176-19.088 0-11.115-9.123-20.133-20.342-20.133" fill="#f5f5f5"/><path d="M105.832 16.984c-11.22 0-20.34 9.018-20.34 20.133 0 7.957 4.712 14.776 11.485 18.045.858 1.196 1.376 2.231 1.467 3.011.112.975-.18 1.71-.791 2.47-.982 1.218-2.843 2.342-4.657 3.575a26.542 26.542 0 0 0-13.37 8.031h-.001c-9.944 11.032-9.164 28.14 1.744 38.198 10.909 10.058 27.85 9.267 37.793-1.764 9.945-11.031 9.164-28.14-1.744-38.197-1.624-1.498-3.409-2.679-5.258-3.697-2.149-1.382-3.727-3.178-3.765-5.108-.033-1.66.935-3.567 3.603-5.476 8.193-2.6 14.176-10.117 14.176-19.088 0-11.115-9.122-20.133-20.342-20.133" fill="#f3f3f3"/><path d="M106.155 16.339c-11.22 0-20.34 9.018-20.34 20.133 0 7.957 4.712 14.776 11.484 18.044.858 1.197 1.377 2.232 1.467 3.012.113.974-.179 1.709-.79 2.469h-.001c-.981 1.218-2.843 2.343-4.656 3.576a26.542 26.542 0 0 0-13.371 8.031c-9.944 11.032-9.164 28.14 1.744 38.198 10.909 10.058 27.849 9.267 37.793-1.764 9.944-11.032 9.164-28.14-1.744-38.197-1.625-1.498-3.41-2.68-5.258-3.698-2.15-1.381-3.727-3.177-3.766-5.107-.033-1.66.935-3.568 3.604-5.477 8.193-2.6 14.176-10.116 14.176-19.087 0-11.115-9.122-20.133-20.342-20.133" fill="#f1f1f1"/><path d="M106.477 15.694c-11.22 0-20.34 9.018-20.34 20.132 0 7.957 4.713 14.777 11.485 18.045.858 1.197 1.377 2.232 1.467 3.012.112.974-.18 1.709-.791 2.469-.982 1.218-2.843 2.343-4.656 3.576h-.001a26.542 26.542 0 0 0-13.37 8.031c-9.945 11.032-9.165 28.14 1.744 38.197 10.908 10.059 27.848 9.268 37.793-1.763 9.944-11.032 9.163-28.14-1.745-38.198-1.624-1.497-3.409-2.678-5.257-3.697h-.001c-2.149-1.381-3.726-3.177-3.765-5.107-.033-1.66.935-3.568 3.603-5.477h.001c8.192-2.6 14.175-10.116 14.175-19.088 0-11.114-9.122-20.132-20.342-20.132" fill="#f0f0f0"/><path d="M106.8 15.048c-11.22 0-20.34 9.019-20.34 20.133 0 7.957 4.712 14.776 11.485 18.045.858 1.197 1.376 2.232 1.466 3.012.113.974-.179 1.709-.79 2.469-.982 1.218-2.844 2.343-4.657 3.576a26.542 26.542 0 0 0-13.371 8.031c-9.944 11.032-9.164 28.14 1.744 38.197 10.909 10.058 27.849 9.268 37.793-1.763 9.944-11.032 9.164-28.14-1.744-38.198-1.625-1.498-3.41-2.678-5.258-3.697-2.15-1.381-3.727-3.177-3.765-5.107-.033-1.66.934-3.568 3.603-5.477 8.193-2.6 14.176-10.116 14.176-19.088 0-11.115-9.122-20.133-20.342-20.133" fill="#eee"/><path d="M107.123 14.403c-11.22 0-20.34 9.018-20.34 20.133 0 7.957 4.712 14.776 11.484 18.045.858 1.197 1.377 2.231 1.467 3.012.113.974-.18 1.708-.791 2.468-.982 1.219-2.843 2.343-4.656 3.577a26.542 26.542 0 0 0-13.372 8.031c-9.944 11.031-9.163 28.139 1.745 38.197 10.908 10.058 27.849 9.267 37.793-1.764 9.944-11.031 9.164-28.139-1.744-38.197-1.625-1.498-3.41-2.679-5.258-3.697-2.15-1.382-3.727-3.178-3.766-5.108-.033-1.659.935-3.567 3.604-5.476 8.192-2.6 14.175-10.117 14.175-19.088 0-11.115-9.122-20.133-20.341-20.133" fill="#ececec"/><path d="M107.445 13.758c-11.22 0-20.34 9.018-20.34 20.133 0 7.957 4.712 14.776 11.485 18.045.858 1.196 1.376 2.231 1.467 3.012.112.974-.18 1.708-.792 2.468-.98 1.219-2.842 2.343-4.656 3.576a26.542 26.542 0 0 0-13.371 8.032c-9.944 11.031-9.164 28.139 1.744 38.197 10.909 10.058 27.85 9.267 37.793-1.764 9.944-11.031 9.164-28.139-1.744-38.197-1.624-1.498-3.41-2.679-5.258-3.697-2.149-1.382-3.727-3.178-3.765-5.108-.033-1.66.934-3.567 3.603-5.476 8.193-2.6 14.176-10.117 14.176-19.088 0-11.115-9.122-20.133-20.342-20.133" fill="#ebebeb"/><path d="M107.768 13.113c-11.22 0-20.34 9.018-20.34 20.133 0 7.957 4.712 14.776 11.484 18.045.858 1.196 1.377 2.231 1.467 3.011.113.975-.179 1.71-.79 2.47h-.001c-.981 1.218-2.843 2.342-4.656 3.575A26.542 26.542 0 0 0 81.56 68.38c-9.944 11.031-9.164 28.139 1.744 38.197 10.908 10.058 27.849 9.267 37.793-1.764 9.944-11.031 9.164-28.14-1.744-38.197-1.625-1.498-3.41-2.679-5.258-3.697-2.15-1.382-3.727-3.178-3.766-5.108-.033-1.66.935-3.567 3.604-5.476 8.193-2.6 14.176-10.117 14.176-19.088 0-11.115-9.122-20.133-20.342-20.133" fill="#e9e9e9"/><path d="M108.09 12.468c-11.22 0-20.34 9.018-20.34 20.133 0 7.957 4.712 14.776 11.485 18.044.858 1.197 1.376 2.232 1.467 3.012.112.974-.18 1.709-.791 2.469-.982 1.218-2.843 2.343-4.657 3.576a26.542 26.542 0 0 0-13.37 8.031c-9.945 11.032-9.165 28.14 1.743 38.198 10.909 10.058 27.85 9.267 37.793-1.764 9.945-11.032 9.164-28.14-1.744-38.197-1.624-1.498-3.409-2.68-5.258-3.698-2.149-1.381-3.727-3.177-3.765-5.107-.033-1.66.934-3.568 3.603-5.477 8.193-2.6 14.176-10.116 14.176-19.087 0-11.115-9.122-20.133-20.342-20.133" fill="#e7e7e7"/><path d="M108.413 11.823c-11.22 0-20.34 9.018-20.34 20.132 0 7.957 4.712 14.777 11.484 18.045.858 1.197 1.377 2.232 1.467 3.012.113.974-.179 1.709-.79 2.469-.982 1.218-2.844 2.343-4.657 3.576a26.542 26.542 0 0 0-13.371 8.031c-9.944 11.032-9.164 28.14 1.744 38.197 10.909 10.059 27.849 9.268 37.793-1.763 9.944-11.032 9.164-28.14-1.744-38.197-1.625-1.498-3.41-2.68-5.258-3.698-2.15-1.381-3.727-3.177-3.766-5.107-.033-1.66.935-3.568 3.604-5.477 8.193-2.6 14.176-10.116 14.176-19.088 0-11.114-9.122-20.132-20.342-20.132" fill="#e6e6e6"/><path d="M108.736 11.177c-11.22 0-20.34 9.019-20.34 20.133 0 7.957 4.712 14.777 11.484 18.045.858 1.197 1.377 2.232 1.467 3.012.112.974-.18 1.709-.791 2.469-.982 1.218-2.843 2.343-4.656 3.576a26.542 26.542 0 0 0-13.372 8.031c-9.944 11.031-9.164 28.14 1.745 38.197 10.908 10.058 27.848 9.268 37.793-1.763 9.944-11.032 9.164-28.14-1.745-38.198-1.624-1.497-3.409-2.678-5.257-3.697-2.15-1.381-3.727-3.177-3.766-5.107-.033-1.66.935-3.568 3.604-5.477 8.192-2.6 14.175-10.116 14.175-19.088 0-11.115-9.122-20.133-20.341-20.133" fill="#e4e4e4"/><path d="M109.058 10.532c-11.22 0-20.34 9.018-20.34 20.133 0 7.957 4.712 14.776 11.485 18.045.858 1.197 1.376 2.231 1.466 3.012.113.974-.179 1.708-.79 2.468-.982 1.219-2.844 2.343-4.657 3.577a26.542 26.542 0 0 0-13.37 8.03l-.001.001c-9.944 11.031-9.164 28.139 1.744 38.197 10.909 10.058 27.849 9.268 37.793-1.764 9.944-11.03 9.164-28.139-1.744-38.197-1.624-1.498-3.41-2.679-5.258-3.697-2.149-1.382-3.727-3.177-3.765-5.107-.033-1.66.934-3.568 3.603-5.477 8.193-2.6 14.176-10.116 14.176-19.088 0-11.115-9.122-20.133-20.342-20.133" fill="#e3e3e3"/><path d="M109.38 9.887c-11.22 0-20.34 9.018-20.34 20.133 0 7.957 4.713 14.776 11.485 18.045.858 1.196 1.377 2.231 1.467 3.012.113.974-.179 1.708-.791 2.468-.981 1.219-2.843 2.343-4.656 3.576a26.542 26.542 0 0 0-13.371 8.032c-9.945 11.031-9.164 28.139 1.744 38.197 10.908 10.058 27.849 9.267 37.793-1.764 9.944-11.031 9.164-28.139-1.744-38.197-1.625-1.498-3.41-2.679-5.258-3.697-2.15-1.382-3.727-3.178-3.766-5.108-.033-1.659.935-3.567 3.604-5.476 8.192-2.6 14.175-10.117 14.175-19.088 0-11.115-9.122-20.133-20.341-20.133" fill="#e1e1e1"/><path d="M109.703 9.242c-11.22 0-20.34 9.018-20.34 20.133 0 7.957 4.712 14.776 11.485 18.045.858 1.196 1.376 2.231 1.467 3.011.112.974-.18 1.71-.791 2.47-.982 1.218-2.843 2.342-4.657 3.575a26.542 26.542 0 0 0-13.37 8.032h-.001c-9.944 11.03-9.164 28.139 1.744 38.197 10.909 10.058 27.85 9.267 37.793-1.764 9.945-11.031 9.164-28.139-1.744-38.197-1.624-1.498-3.409-2.679-5.258-3.697-2.149-1.382-3.727-3.178-3.765-5.108-.033-1.66.934-3.567 3.603-5.476 8.193-2.6 14.176-10.117 14.176-19.088 0-11.115-9.122-20.133-20.342-20.133" fill="#dfdfdf"/><path d="M110.026 8.597c-11.22 0-20.34 9.018-20.34 20.133 0 7.957 4.712 14.776 11.484 18.044.858 1.197 1.377 2.232 1.467 3.012.113.974-.179 1.709-.79 2.469h-.001c-.981 1.218-2.843 2.343-4.656 3.576a26.542 26.542 0 0 0-13.371 8.031c-9.944 11.032-9.164 28.14 1.744 38.198s27.849 9.267 37.793-1.764c9.944-11.031 9.164-28.14-1.744-38.197-1.625-1.498-3.41-2.679-5.258-3.698-2.15-1.381-3.727-3.177-3.766-5.107-.033-1.66.935-3.567 3.604-5.477 8.192-2.6 14.176-10.116 14.176-19.087 0-11.115-9.122-20.133-20.342-20.133" fill="#dedede"/><path d="M110.348 7.952c-11.22 0-20.34 9.018-20.34 20.132 0 7.957 4.712 14.777 11.485 18.045.858 1.197 1.376 2.232 1.467 3.012.112.974-.18 1.709-.791 2.469-.982 1.218-2.843 2.343-4.657 3.576a26.542 26.542 0 0 0-13.37 8.031c-9.945 11.032-9.165 28.14 1.744 38.197 10.908 10.059 27.848 9.268 37.792-1.763 9.945-11.032 9.165-28.14-1.744-38.197-1.624-1.498-3.409-2.68-5.257-3.698-2.15-1.381-3.728-3.177-3.766-5.107-.033-1.66.934-3.568 3.603-5.477 8.193-2.6 14.176-10.116 14.176-19.088 0-11.114-9.122-20.132-20.342-20.132" fill="#dcdcdc"/><path d="M110.671 7.306c-11.22 0-20.34 9.019-20.34 20.133 0 7.957 4.712 14.777 11.485 18.045.857 1.197 1.376 2.232 1.466 3.012.113.974-.179 1.709-.79 2.469-.982 1.218-2.844 2.343-4.657 3.576a26.542 26.542 0 0 0-13.371 8.031c-9.944 11.031-9.164 28.14 1.744 38.197 10.908 10.058 27.849 9.268 37.793-1.763 9.944-11.032 9.164-28.14-1.744-38.198-1.624-1.497-3.41-2.678-5.258-3.697-2.149-1.381-3.727-3.177-3.766-5.107-.033-1.66.935-3.568 3.604-5.477 8.193-2.6 14.176-10.116 14.176-19.088 0-11.114-9.122-20.133-20.342-20.133" fill="#dadada"/><path d="M110.994 6.661c-11.22 0-20.34 9.018-20.34 20.133 0 7.957 4.712 14.776 11.484 18.045.858 1.196 1.377 2.231 1.467 3.012.113.974-.18 1.708-.791 2.468-.981 1.219-2.843 2.343-4.656 3.577a26.542 26.542 0 0 0-13.371 8.03v.001c-9.945 11.031-9.164 28.139 1.744 38.197 10.908 10.058 27.848 9.268 37.793-1.763 9.944-11.032 9.164-28.14-1.744-38.198-1.625-1.498-3.41-2.678-5.258-3.697-2.15-1.381-3.727-3.177-3.766-5.107-.033-1.66.935-3.568 3.604-5.477 8.192-2.6 14.175-10.116 14.175-19.088 0-11.115-9.122-20.133-20.341-20.133" fill="#d9d9d9"/><path d="M111.316 6.016c-11.22 0-20.34 9.018-20.34 20.133 0 7.957 4.712 14.776 11.485 18.045.858 1.196 1.376 2.231 1.466 3.012.113.974-.178 1.708-.79 2.468-.982 1.219-2.843 2.343-4.657 3.577a26.542 26.542 0 0 0-13.37 8.03h-.001c-9.944 11.032-9.164 28.14 1.744 38.198 10.909 10.058 27.849 9.267 37.793-1.764 9.944-11.031 9.164-28.139-1.744-38.197-1.624-1.498-3.409-2.679-5.258-3.697-2.149-1.382-3.727-3.178-3.765-5.108-.033-1.659.934-3.567 3.603-5.476 8.193-2.6 14.176-10.117 14.176-19.088 0-11.115-9.122-20.133-20.342-20.133" fill="#d7d7d7"/><path d="M111.639 5.371c-11.22 0-20.34 9.018-20.34 20.133 0 7.957 4.712 14.776 11.484 18.045.858 1.196 1.377 2.231 1.467 3.011.113.974-.179 1.71-.791 2.47-.981 1.218-2.843 2.342-4.656 3.575a26.542 26.542 0 0 0-13.371 8.032c-9.945 11.03-9.164 28.139 1.744 38.197 10.908 10.058 27.849 9.267 37.793-1.764 9.944-11.031 9.164-28.139-1.744-38.197-1.625-1.498-3.41-2.679-5.258-3.697-2.15-1.382-3.727-3.178-3.766-5.108-.033-1.659.935-3.567 3.604-5.476 8.192-2.6 14.176-10.117 14.176-19.088 0-11.115-9.122-20.133-20.342-20.133" fill="#d5d5d5"/><path d="M111.961 4.726c-11.22 0-20.34 9.018-20.34 20.133 0 7.957 4.712 14.776 11.485 18.045.858 1.196 1.376 2.23 1.467 3.011.112.974-.18 1.709-.791 2.469-.982 1.218-2.843 2.343-4.657 3.576a26.542 26.542 0 0 0-13.37 8.031c-9.945 11.032-9.165 28.14 1.743 38.198 10.909 10.058 27.85 9.267 37.793-1.764 9.945-11.031 9.164-28.14-1.744-38.197-1.624-1.498-3.409-2.679-5.258-3.698-2.149-1.38-3.727-3.177-3.765-5.107-.033-1.66.934-3.567 3.603-5.476 8.193-2.6 14.176-10.117 14.176-19.088 0-11.115-9.122-20.133-20.342-20.133" fill="#d4d4d4"/><path d="M112.284 4.08c-11.22 0-20.34 9.019-20.34 20.133 0 7.957 4.712 14.777 11.484 18.045.858 1.197 1.377 2.232 1.467 3.012.113.974-.179 1.709-.79 2.469-.982 1.218-2.844 2.343-4.657 3.576a26.542 26.542 0 0 0-13.371 8.031c-9.944 11.032-9.164 28.14 1.744 38.198s27.849 9.267 37.793-1.764c9.944-11.031 9.164-28.14-1.744-38.197-1.624-1.498-3.41-2.68-5.258-3.698-2.149-1.381-3.727-3.177-3.766-5.107-.033-1.66.935-3.568 3.604-5.477 8.192-2.6 14.176-10.116 14.176-19.088 0-11.114-9.122-20.132-20.342-20.132" fill="#d2d2d2"/><path d="M112.606 3.435c-11.22 0-20.34 9.019-20.34 20.133 0 7.957 4.712 14.777 11.485 18.045.858 1.197 1.377 2.232 1.467 3.012.112.974-.18 1.709-.791 2.469-.981 1.218-2.843 2.343-4.656 3.576A26.542 26.542 0 0 0 86.398 58.7c-9.944 11.031-9.164 28.14 1.745 38.197 10.908 10.059 27.848 9.268 37.793-1.763 9.944-11.032 9.164-28.14-1.745-38.198-1.624-1.497-3.409-2.678-5.257-3.697-2.15-1.381-3.727-3.177-3.766-5.107-.033-1.66.934-3.568 3.603-5.477 8.193-2.6 14.176-10.116 14.176-19.088 0-11.114-9.122-20.133-20.342-20.133" fill="#d0d0d0"/><path d="M112.93 2.79c-11.22 0-20.34 9.019-20.34 20.133 0 7.957 4.711 14.776 11.484 18.045.857 1.196 1.376 2.231 1.466 3.012.113.974-.179 1.708-.79 2.469-.982 1.218-2.843 2.342-4.657 3.576a26.542 26.542 0 0 0-13.371 8.03v.001c-9.944 11.031-9.164 28.139 1.744 38.197 10.908 10.058 27.849 9.268 37.793-1.763 9.944-11.032 9.164-28.14-1.744-38.198-1.624-1.497-3.41-2.678-5.258-3.697-2.149-1.381-3.727-3.177-3.765-5.107-.034-1.66.934-3.568 3.603-5.477 8.193-2.6 14.176-10.116 14.176-19.088 0-11.114-9.122-20.133-20.342-20.133" fill="#cfcfcf"/><path d="M113.252 2.145c-11.22 0-20.34 9.018-20.34 20.133 0 7.957 4.712 14.776 11.484 18.045.858 1.196 1.377 2.231 1.467 3.012.113.974-.179 1.708-.791 2.468-.981 1.219-2.843 2.343-4.656 3.577a26.542 26.542 0 0 0-13.371 8.03C77.1 68.443 77.88 85.55 88.789 95.609s27.848 9.268 37.793-1.764c9.944-11.03 9.164-28.139-1.744-38.197-1.625-1.498-3.41-2.679-5.258-3.697-2.15-1.381-3.727-3.177-3.766-5.108-.033-1.659.935-3.567 3.604-5.476 8.192-2.6 14.175-10.116 14.175-19.088 0-11.115-9.122-20.133-20.341-20.133" fill="#cdcdcd"/><path d="M113.574 1.5c-11.22 0-20.34 9.018-20.34 20.133 0 7.957 4.712 14.776 11.485 18.045.858 1.196 1.376 2.231 1.467 3.011.112.974-.18 1.71-.791 2.47-.982 1.218-2.843 2.342-4.657 3.575a26.542 26.542 0 0 0-13.37 8.032c-9.945 11.03-9.165 28.139 1.743 38.197 10.909 10.058 27.849 9.267 37.793-1.764 9.945-11.031 9.164-28.139-1.744-38.197-1.624-1.498-3.409-2.679-5.258-3.697-2.149-1.382-3.727-3.178-3.765-5.108-.033-1.659.934-3.567 3.603-5.476 8.193-2.6 14.176-10.117 14.176-19.088 0-11.115-9.122-20.133-20.342-20.133" fill="#ccc"/></g><g><path d="M51.021 23.475c-9.65 0-17.492 7.833-17.492 17.476 0 .923.134 1.81.272 2.694l.193 1.177c.96 3.42 1.177 6.29.637 8.358-.601 2.3-1.917 3.752-3.856 4.502-1.522.588-3.508.642-5.765.222a13.822 13.822 0 0 0-5.094-.994C12.24 56.91 6 63.144 6 70.814v.001c0 7.67 6.24 13.906 13.916 13.906 1.625 0 3.163-.335 4.613-.848l.02.053c2.577-.833 4.408-1.032 5.652-.852h.001c1.244.18 1.914.673 2.427 1.428 1.012 1.491 1.128 4.241 1.562 6.842-.19.992-.308 2.01-.308 3.056v.001c0 8.981 7.305 16.279 16.293 16.279s16.29-7.298 16.29-16.28c0-8.982-7.302-16.279-16.29-16.279-1.667 0-3.244.323-4.758.79v-.002l-.024-.071c-4.203 1.154-7.244 1.295-9.222.709-1.919-.57-2.889-1.737-3.342-3.617v-.001a13.787 13.787 0 0 0 1.002-5.115c0-1.699-.348-3.307-.908-4.812l.062-.215c1.417-4.861 5.47-8.742 13.276-8.033l.017-.06c1.518.43 3.088.734 4.742.734 9.65 0 17.49-7.834 17.49-17.477s-7.84-17.477-17.49-17.477" fill="#fff"/><path d="M51.344 22.83c-9.65 0-17.492 7.833-17.492 17.476 0 .923.133 1.81.271 2.693V43a181449.321 181449.321 0 0 0 .194 1.178c.96 3.419 1.176 6.288.636 8.357-.6 2.3-1.916 3.752-3.855 4.501-1.523.589-3.508.643-5.766.223a13.822 13.822 0 0 0-5.093-.994h-.001c-7.675 0-13.915 6.234-13.915 13.904v.001c0 7.67 6.24 13.906 13.916 13.906 1.625 0 3.162-.335 4.613-.848l.02.053c2.577-.833 4.408-1.032 5.652-.852 1.244.18 1.915.673 2.427 1.428 1.013 1.49 1.128 4.241 1.563 6.842-.19.992-.309 2.01-.309 3.056v.001c0 8.981 7.305 16.278 16.293 16.278h.001c8.988 0 16.29-7.297 16.29-16.279s-7.303-16.28-16.29-16.28h-.001c-1.666 0-3.243.324-4.758.79l-.023-.072c-4.203 1.153-7.245 1.295-9.223.709-1.918-.57-2.888-1.737-3.341-3.618a13.787 13.787 0 0 0 1.002-5.115c0-1.699-.349-3.307-.909-4.812l.063-.215v-.001c1.416-4.86 5.469-8.741 13.275-8.032l.018-.061c1.517.43 3.088.734 4.742.734 9.65 0 17.49-7.833 17.49-17.476 0-9.643-7.84-17.477-17.49-17.477" fill="#fdfdfd"/><path d="M51.667 22.184c-9.65 0-17.493 7.834-17.493 17.477 0 .923.134 1.81.272 2.693v.001l.193 1.177c.96 3.42 1.177 6.29.637 8.357v.001c-.601 2.3-1.916 3.752-3.855 4.501h-.001c-1.522.589-3.508.643-5.765.223a13.822 13.822 0 0 0-5.094-.994c-7.676 0-13.916 6.234-13.916 13.904s6.24 13.906 13.916 13.906c1.625 0 3.163-.334 4.613-.847.003.005.02.052.02.052 2.577-.832 4.408-1.031 5.652-.851h.001c1.244.18 1.914.673 2.427 1.428 1.012 1.49 1.128 4.24 1.563 6.841v.001c-.19.992-.31 2.01-.31 3.056.001 8.982 7.306 16.28 16.294 16.28 8.988-.001 16.29-7.299 16.29-16.28 0-8.982-7.302-16.28-16.29-16.28-1.667 0-3.243.324-4.758.79v-.001l-.023-.072h-.001c-4.202 1.154-7.244 1.296-9.222.71-1.919-.57-2.888-1.737-3.342-3.618a13.787 13.787 0 0 0 1.002-5.115c0-1.699-.348-3.307-.908-4.812v-.001l.062-.214v-.001c1.417-4.86 5.47-8.742 13.276-8.032l.017-.061c1.518.43 3.088.734 4.743.734 9.65 0 17.49-7.833 17.49-17.476 0-9.644-7.84-17.477-17.49-17.477" fill="#fbfbfb"/><path d="M51.99 21.54c-9.651 0-17.493 7.832-17.493 17.476 0 .923.133 1.81.272 2.693l.193 1.178c.96 3.42 1.177 6.29.637 8.357v.001c-.601 2.3-1.917 3.752-3.856 4.501-1.523.588-3.508.643-5.766.223a13.822 13.822 0 0 0-5.093-.994c-7.676 0-13.916 6.234-13.916 13.904s6.24 13.906 13.916 13.906c1.625 0 3.163-.334 4.613-.847a12.412 12.412 0 0 1 .02.052c2.577-.832 4.408-1.031 5.652-.851 1.244.18 1.915.673 2.428 1.427v.001c1.012 1.49 1.127 4.24 1.562 6.841a16.257 16.257 0 0 0-.308 3.058c0 8.981 7.305 16.278 16.292 16.278h.001c8.988 0 16.29-7.298 16.29-16.28 0-8.981-7.303-16.278-16.29-16.278h-.001c-1.666 0-3.243.323-4.757.789v-.001l-.024-.072c-4.203 1.154-7.244 1.296-9.222.71h-.001c-1.918-.57-2.888-1.737-3.341-3.618a13.787 13.787 0 0 0 1.002-5.115c0-1.7-.349-3.307-.908-4.813l.062-.214v-.001c1.416-4.86 5.47-8.742 13.275-8.033l.018-.06c1.518.43 3.088.734 4.742.734 9.65 0 17.49-7.833 17.49-17.476 0-9.644-7.84-17.477-17.49-17.477" fill="#fafafa"/><path d="M52.312 20.894c-9.65 0-17.492 7.833-17.492 17.477 0 .922.133 1.809.271 2.693l.193 1.178c.96 3.42 1.177 6.289.637 8.357-.6 2.3-1.916 3.753-3.855 4.502-1.523.588-3.508.643-5.766.223a13.822 13.822 0 0 0-5.094-.994c-7.676 0-13.916 6.234-13.916 13.904S13.53 82.14 21.206 82.14c1.625 0 3.163-.334 4.614-.848l.02.053c2.577-.833 4.407-1.031 5.651-.851h.001c1.244.18 1.915.673 2.427 1.427 1.012 1.491 1.128 4.242 1.563 6.842-.19.992-.309 2.01-.309 3.057 0 8.982 7.305 16.279 16.293 16.279 8.989 0 16.291-7.298 16.291-16.28 0-8.981-7.303-16.279-16.29-16.279h-.001c-1.666 0-3.243.324-4.758.79v-.001a28.561 28.561 0 0 0-.024-.072c-4.202 1.154-7.244 1.295-9.222.71v-.001c-1.919-.569-2.888-1.736-3.342-3.617a13.787 13.787 0 0 0 1.002-5.115c0-1.7-.348-3.307-.908-4.813l.063-.215c1.416-4.86 5.469-8.742 13.275-8.033l.018-.06c1.517.43 3.087.734 4.742.734 9.65 0 17.49-7.833 17.49-17.477 0-9.643-7.84-17.476-17.49-17.476" fill="#f8f8f8"/><path d="M52.634 20.249c-9.65 0-17.492 7.833-17.492 17.476 0 .923.134 1.81.272 2.694l.193 1.177v.001c.96 3.42 1.177 6.289.637 8.357-.601 2.3-1.917 3.753-3.856 4.502-1.522.588-3.508.643-5.765.222a13.822 13.822 0 0 0-5.094-.994c-7.676 0-13.916 6.234-13.916 13.905 0 7.67 6.24 13.906 13.916 13.906 1.625 0 3.163-.335 4.613-.848l.02.053c2.577-.833 4.408-1.032 5.652-.852 1.245.18 1.915.673 2.428 1.428 1.012 1.491 1.127 4.241 1.562 6.842-.19.992-.308 2.01-.308 3.057 0 8.982 7.305 16.279 16.293 16.279s16.29-7.298 16.29-16.28c0-8.981-7.303-16.279-16.29-16.279-1.667 0-3.244.324-4.758.79v-.001a28.166 28.166 0 0 0-.024-.072c-4.203 1.154-7.244 1.295-9.222.709-1.92-.569-2.889-1.736-3.342-3.617a13.787 13.787 0 0 0 1.002-5.115c0-1.7-.348-3.307-.908-4.813l.062-.215c1.417-4.861 5.47-8.742 13.276-8.033a62.83 62.83 0 0 0 .017-.06c1.518.43 3.088.734 4.742.734 9.65 0 17.49-7.833 17.49-17.477 0-9.643-7.84-17.476-17.49-17.476" fill="#f6f6f6"/><path d="M52.957 19.604c-9.65 0-17.492 7.833-17.492 17.476 0 .923.133 1.81.271 2.694l.194 1.177c.96 3.42 1.176 6.29.636 8.358-.6 2.3-1.916 3.752-3.855 4.502-1.523.588-3.508.642-5.766.222a13.822 13.822 0 0 0-5.094-.994c-7.676 0-13.916 6.234-13.916 13.904v.001c0 7.67 6.241 13.906 13.916 13.906 1.626 0 3.163-.335 4.614-.848l.02.053c2.577-.833 4.407-1.032 5.652-.852 1.244.18 1.915.673 2.427 1.428 1.013 1.49 1.128 4.241 1.563 6.842-.19.992-.309 2.01-.309 3.056v.001c0 8.981 7.305 16.279 16.293 16.279 8.989 0 16.291-7.298 16.291-16.28 0-8.982-7.303-16.279-16.29-16.279h-.001c-1.666 0-3.243.323-4.758.79v-.002a12.896 12.896 0 0 1-.024-.071c-4.202 1.154-7.244 1.295-9.222.709-1.919-.569-2.888-1.736-3.341-3.617a13.787 13.787 0 0 0 1.001-5.116c0-1.699-.348-3.307-.908-4.812l.063-.215c1.416-4.861 5.469-8.742 13.275-8.033l.018-.06c1.517.43 3.088.734 4.742.734 9.65 0 17.49-7.834 17.49-17.477s-7.84-17.476-17.49-17.476" fill="#f5f5f5"/><path d="M53.28 18.958c-9.65 0-17.493 7.834-17.493 17.477 0 .923.134 1.81.272 2.693v.001l.193 1.177c.96 3.42 1.177 6.29.637 8.358-.601 2.3-1.916 3.752-3.856 4.502-1.522.588-3.508.642-5.765.222a13.822 13.822 0 0 0-5.094-.994c-7.676 0-13.916 6.234-13.916 13.904 0 7.671 6.24 13.907 13.916 13.907 1.625 0 3.163-.335 4.613-.848l.02.053c2.577-.833 4.408-1.032 5.652-.852 1.245.18 1.915.673 2.428 1.428 1.012 1.49 1.128 4.241 1.562 6.842-.189.992-.308 2.01-.308 3.056 0 8.982 7.305 16.28 16.293 16.28s16.29-7.298 16.29-16.28c0-8.982-7.302-16.28-16.29-16.28-1.667 0-3.244.324-4.758.79l-.023-.072h-.001c-4.202 1.153-7.244 1.295-9.222.709-1.919-.57-2.889-1.737-3.342-3.618a13.787 13.787 0 0 0 1.002-5.115c0-1.699-.348-3.307-.908-4.812l.062-.215c1.417-4.861 5.47-8.742 13.276-8.033l.017-.061c1.518.43 3.088.734 4.742.734 9.65 0 17.49-7.833 17.49-17.476 0-9.644-7.84-17.477-17.49-17.477" fill="#f3f3f3"/><path d="M53.602 18.313c-9.65 0-17.492 7.834-17.492 17.477 0 .923.133 1.81.271 2.693l.194 1.178c.96 3.42 1.176 6.29.636 8.357v.001c-.6 2.3-1.916 3.752-3.855 4.501-1.523.589-3.508.643-5.766.223a13.822 13.822 0 0 0-5.093-.994c-7.676 0-13.916 6.234-13.916 13.904S14.82 79.56 22.497 79.56c1.625 0 3.162-.334 4.613-.847l.02.052c2.577-.832 4.408-1.031 5.652-.851 1.244.18 1.915.673 2.427 1.428 1.013 1.49 1.128 4.241 1.563 6.841v.001c-.19.992-.309 2.01-.309 3.056 0 8.982 7.305 16.28 16.293 16.28h.001c8.988 0 16.29-7.298 16.29-16.28 0-8.982-7.303-16.28-16.29-16.28h-.001c-1.666 0-3.243.324-4.757.79a44.29 44.29 0 0 0-.024-.072c-4.203 1.153-7.244 1.295-9.223.709-1.918-.57-2.888-1.737-3.341-3.618a13.787 13.787 0 0 0 1.002-5.115c0-1.699-.349-3.307-.909-4.812l.063-.215c1.416-4.862 5.469-8.743 13.275-8.033l.018-.061c1.518.43 3.088.734 4.742.734 9.65 0 17.49-7.833 17.49-17.476 0-9.644-7.84-17.477-17.49-17.477" fill="#f1f1f1"/><path d="M53.925 17.668c-9.65 0-17.492 7.833-17.492 17.477 0 .922.133 1.81.271 2.693l.193 1.178c.96 3.42 1.177 6.29.637 8.357-.6 2.3-1.916 3.753-3.855 4.502-1.523.588-3.508.643-5.766.223a13.822 13.822 0 0 0-5.094-.994c-7.676 0-13.916 6.234-13.916 13.904s6.24 13.906 13.916 13.906c1.625 0 3.163-.334 4.613-.847l.02.052c2.577-.832 4.408-1.031 5.652-.851h.001c1.244.18 1.914.673 2.427 1.427 1.012 1.491 1.128 4.242 1.563 6.842-.19.992-.309 2.01-.309 3.057 0 8.982 7.305 16.28 16.293 16.28 8.988-.001 16.291-7.299 16.291-16.28 0-8.982-7.303-16.28-16.291-16.28-1.667 0-3.243.324-4.758.79a13.62 13.62 0 0 0-.023-.073c-4.203 1.154-7.245 1.296-9.223.71-1.919-.57-2.888-1.737-3.342-3.618a13.787 13.787 0 0 0 1.002-5.115c0-1.699-.348-3.307-.908-4.813l.063-.214v-.001c1.416-4.86 5.469-8.742 13.275-8.033l.017-.06c1.518.43 3.088.734 4.743.734 9.65 0 17.49-7.833 17.49-17.476 0-9.644-7.84-17.477-17.49-17.477" fill="#f0f0f0"/><path d="M54.247 17.023c-9.65 0-17.492 7.833-17.492 17.477 0 .922.133 1.809.272 2.693l.193 1.178c.96 3.42 1.177 6.289.637 8.357-.601 2.3-1.917 3.753-3.856 4.502-1.522.588-3.508.643-5.765.223a13.822 13.822 0 0 0-5.094-.994c-7.676 0-13.916 6.234-13.916 13.904s6.24 13.906 13.916 13.906c1.625 0 3.163-.334 4.613-.848l.02.053c2.577-.833 4.408-1.031 5.652-.851 1.244.18 1.915.673 2.428 1.427 1.012 1.491 1.127 4.242 1.562 6.842-.19.992-.308 2.01-.308 3.057 0 8.982 7.305 16.279 16.293 16.279s16.29-7.298 16.29-16.28c0-8.981-7.303-16.279-16.29-16.279-1.667 0-3.244.324-4.758.79v-.001l-.024-.072c-4.203 1.154-7.244 1.295-9.222.71-1.92-.57-2.889-1.737-3.342-3.618a13.787 13.787 0 0 0 1.002-5.115c0-1.7-.349-3.307-.908-4.813l.062-.215c1.416-4.86 5.47-8.742 13.275-8.033l.018-.06c1.518.43 3.088.734 4.742.734 9.65 0 17.49-7.833 17.49-17.477 0-9.643-7.84-17.476-17.49-17.476" fill="#eee"/><path d="M54.57 16.378c-9.65 0-17.492 7.833-17.492 17.476 0 .923.133 1.81.271 2.694l.193 1.177c.96 3.42 1.177 6.29.637 8.358-.6 2.3-1.916 3.753-3.855 4.502-1.523.588-3.508.643-5.766.223a13.822 13.822 0 0 0-5.094-.995c-7.676 0-13.916 6.234-13.916 13.905 0 7.67 6.24 13.906 13.916 13.906 1.625 0 3.163-.335 4.614-.848l.02.053c2.576-.833 4.407-1.032 5.652-.852 1.244.18 1.915.673 2.427 1.428 1.013 1.491 1.128 4.241 1.563 6.842-.19.992-.309 2.01-.309 3.057 0 8.982 7.305 16.279 16.293 16.279s16.291-7.298 16.291-16.28c0-8.981-7.303-16.279-16.29-16.279h-.001c-1.666 0-3.243.324-4.758.79v-.001l-.023-.072c-4.203 1.154-7.245 1.295-9.223.709-1.919-.569-2.888-1.736-3.342-3.617a13.787 13.787 0 0 0 1.002-5.115c0-1.7-.348-3.307-.908-4.813l.063-.215c1.416-4.861 5.469-8.742 13.275-8.033a13.039 13.039 0 0 0 .018-.06c1.517.43 3.088.734 4.742.734 9.65 0 17.49-7.834 17.49-17.477s-7.84-17.476-17.49-17.476" fill="#ececec"/><path d="M54.892 15.733c-9.65 0-17.492 7.833-17.492 17.476 0 .923.134 1.81.272 2.694l.193 1.177c.96 3.42 1.177 6.29.637 8.358-.601 2.3-1.917 3.752-3.856 4.502-1.522.588-3.508.642-5.765.222a13.822 13.822 0 0 0-5.094-.994c-7.676 0-13.916 6.234-13.916 13.905 0 7.67 6.24 13.906 13.916 13.906 1.625 0 3.163-.335 4.613-.848l.02.053c2.577-.833 4.408-1.032 5.652-.852 1.245.18 1.915.673 2.428 1.428 1.012 1.49 1.127 4.241 1.562 6.842a16.257 16.257 0 0 0-.308 3.057c0 8.981 7.305 16.279 16.293 16.279s16.29-7.298 16.29-16.28c0-8.982-7.302-16.279-16.29-16.279-1.667 0-3.244.323-4.758.79v-.001a94.047 94.047 0 0 0-.024-.072c-4.202 1.154-7.244 1.295-9.222.709-1.919-.569-2.889-1.736-3.342-3.617a13.787 13.787 0 0 0 1.002-5.116c0-1.698-.348-3.306-.908-4.812l.062-.215c1.416-4.861 5.47-8.742 13.276-8.033l.017-.06c1.518.43 3.088.734 4.742.734 9.65 0 17.49-7.834 17.49-17.477s-7.84-17.476-17.49-17.476" fill="#ebebeb"/><path d="M55.215 15.088c-9.65 0-17.492 7.833-17.492 17.476 0 .923.133 1.81.271 2.693l.194 1.178c.96 3.42 1.176 6.29.636 8.358-.6 2.3-1.916 3.752-3.855 4.502-1.523.588-3.508.642-5.766.222a13.822 13.822 0 0 0-5.093-.994c-7.676 0-13.917 6.234-13.917 13.904s6.241 13.907 13.917 13.907c1.625 0 3.162-.335 4.613-.848l.02.053c2.577-.833 4.407-1.032 5.652-.852 1.244.18 1.915.673 2.427 1.428 1.013 1.49 1.128 4.241 1.563 6.842-.19.992-.309 2.01-.309 3.056 0 8.982 7.305 16.28 16.293 16.28 8.989 0 16.291-7.298 16.291-16.28 0-8.982-7.303-16.28-16.29-16.28h-.001c-1.666.001-3.243.324-4.758.79a16.34 16.34 0 0 0-.023-.072c-4.203 1.153-7.245 1.295-9.223.709-1.918-.57-2.888-1.737-3.341-3.618a13.787 13.787 0 0 0 1.002-5.115c0-1.699-.349-3.307-.909-4.812l.063-.215c1.416-4.861 5.469-8.742 13.275-8.033l.018-.06c1.518.43 3.088.734 4.742.734 9.65 0 17.49-7.834 17.49-17.477 0-9.644-7.84-17.477-17.49-17.477" fill="#e9e9e9"/><path d="M55.538 14.442c-9.65 0-17.493 7.834-17.493 17.477 0 .923.134 1.81.272 2.693l.193 1.178c.96 3.42 1.177 6.29.637 8.357-.6 2.3-1.916 3.753-3.856 4.502-1.522.589-3.508.643-5.765.223a13.822 13.822 0 0 0-5.094-.994c-7.676 0-13.916 6.234-13.916 13.904s6.24 13.906 13.916 13.906c1.625 0 3.163-.334 4.613-.847l.02.053c2.577-.833 4.408-1.032 5.652-.852 1.245.18 1.915.673 2.428 1.428 1.012 1.49 1.128 4.24 1.562 6.841-.189.993-.308 2.01-.308 3.057 0 8.982 7.305 16.28 16.293 16.28s16.29-7.298 16.29-16.28c0-8.982-7.302-16.28-16.29-16.28-1.667 0-3.243.324-4.758.79l-.023-.072c-4.203 1.153-7.245 1.295-9.223.709-1.919-.57-2.889-1.737-3.342-3.618a13.787 13.787 0 0 0 1.002-5.115c0-1.699-.348-3.307-.908-4.812l.062-.215c1.417-4.861 5.47-8.743 13.276-8.033a738.214 738.214 0 0 0 .018-.061c1.517.43 3.087.734 4.742.734 9.65 0 17.49-7.833 17.49-17.476 0-9.644-7.84-17.477-17.49-17.477" fill="#e7e7e7"/><path d="M55.86 13.797c-9.65 0-17.492 7.833-17.492 17.477 0 .922.133 1.81.271 2.693l.194 1.178c.96 3.42 1.177 6.29.637 8.357-.601 2.3-1.917 3.753-3.856 4.502-1.523.588-3.508.643-5.766.223a13.822 13.822 0 0 0-5.093-.994c-7.676 0-13.916 6.234-13.916 13.904s6.24 13.906 13.916 13.906c1.625 0 3.162-.334 4.613-.847l.02.052c2.577-.832 4.408-1.031 5.652-.851 1.244.18 1.915.673 2.428 1.428 1.012 1.49 1.127 4.24 1.562 6.841-.19.992-.309 2.01-.309 3.057 0 8.982 7.305 16.28 16.293 16.28 8.989-.001 16.291-7.299 16.291-16.28 0-8.982-7.303-16.28-16.29-16.28-1.667 0-3.244.324-4.758.79l-.024-.073c-4.203 1.154-7.244 1.296-9.222.71-1.92-.57-2.889-1.737-3.342-3.618a13.787 13.787 0 0 0 1.002-5.115c0-1.699-.349-3.307-.909-4.813l.063-.214c1.416-4.862 5.469-8.743 13.275-8.034l.018-.06c1.518.43 3.088.734 4.742.734 9.65 0 17.49-7.833 17.49-17.476 0-9.644-7.84-17.477-17.49-17.477" fill="#e6e6e6"/><path d="M56.183 13.152c-9.65 0-17.492 7.833-17.492 17.477 0 .922.133 1.809.271 2.693l.193 1.178c.96 3.42 1.177 6.289.637 8.357-.6 2.3-1.916 3.753-3.855 4.502-1.523.588-3.508.643-5.766.223a13.822 13.822 0 0 0-5.094-.994c-7.676 0-13.916 6.234-13.916 13.904s6.24 13.906 13.916 13.906c1.625 0 3.163-.334 4.614-.848a15.379 15.379 0 0 0 .02.053c2.576-.833 4.407-1.031 5.651-.851 1.245.18 1.916.673 2.428 1.427 1.012 1.491 1.128 4.242 1.563 6.842-.19.992-.309 2.01-.309 3.057 0 8.982 7.305 16.28 16.293 16.28 8.988-.001 16.291-7.299 16.291-16.28 0-8.982-7.303-16.28-16.291-16.28-1.666 0-3.243.324-4.758.79a20.645 20.645 0 0 0-.023-.073c-4.203 1.154-7.245 1.295-9.223.71-1.919-.57-2.888-1.737-3.342-3.618a13.787 13.787 0 0 0 1.002-5.115c0-1.699-.348-3.307-.908-4.813l.063-.215c1.416-4.86 5.469-8.742 13.275-8.033l.018-.06c1.517.43 3.087.734 4.742.734 9.65 0 17.49-7.833 17.49-17.476 0-9.644-7.84-17.477-17.49-17.477" fill="#e4e4e4"/><path d="M56.505 12.507c-9.65 0-17.492 7.833-17.492 17.476 0 .923.133 1.81.272 2.694l.193 1.178c.96 3.419 1.177 6.289.637 8.357-.601 2.3-1.917 3.753-3.856 4.502-1.522.588-3.508.643-5.765.223a13.822 13.822 0 0 0-5.094-.995c-7.676 0-13.916 6.234-13.916 13.905 0 7.67 6.24 13.906 13.916 13.906 1.625 0 3.163-.335 4.613-.848l.02.053c2.577-.833 4.408-1.032 5.652-.852 1.244.18 1.915.673 2.428 1.428 1.012 1.49 1.127 4.241 1.562 6.842-.19.992-.308 2.01-.308 3.057 0 8.981 7.305 16.279 16.293 16.279s16.29-7.298 16.29-16.28c0-8.981-7.302-16.279-16.29-16.279-1.667 0-3.244.324-4.758.79v-.001a20.53 20.53 0 0 0-.024-.072c-4.203 1.154-7.244 1.295-9.222.71v-.001c-1.919-.569-2.889-1.736-3.342-3.617a13.787 13.787 0 0 0 1.002-5.115c0-1.7-.348-3.307-.908-4.813a202.654 202.654 0 0 1 .062-.215c1.416-4.86 5.47-8.742 13.276-8.033 0-.004.017-.06.017-.06 1.518.43 3.088.734 4.742.734 9.65 0 17.49-7.834 17.49-17.477s-7.84-17.476-17.49-17.476" fill="#e3e3e3"/><path d="M56.828 11.862c-9.65 0-17.492 7.833-17.492 17.476 0 .923.133 1.81.271 2.694l.194 1.177c.96 3.42 1.176 6.29.636 8.358-.6 2.3-1.916 3.752-3.855 4.502-1.523.588-3.508.643-5.766.222a13.822 13.822 0 0 0-5.094-.994c-7.675 0-13.916 6.234-13.916 13.905 0 7.67 6.24 13.906 13.916 13.906 1.625 0 3.163-.335 4.614-.848l.02.053c2.576-.833 4.407-1.032 5.652-.852 1.244.18 1.915.673 2.427 1.428 1.013 1.49 1.128 4.241 1.563 6.842-.19.992-.309 2.01-.309 3.056 0 8.982 7.305 16.28 16.293 16.28s16.291-7.298 16.291-16.28c0-8.981-7.303-16.279-16.29-16.279h-.001c-1.666 0-3.243.323-4.758.79v-.001l-.023-.072c-4.203 1.154-7.245 1.295-9.223.709-1.918-.569-2.888-1.736-3.342-3.617a13.787 13.787 0 0 0 1.002-5.116c0-1.698-.348-3.306-.908-4.812l.063-.215c1.416-4.861 5.469-8.742 13.275-8.033l.018-.06c1.518.43 3.088.734 4.742.734 9.65 0 17.49-7.834 17.49-17.477s-7.84-17.476-17.49-17.476" fill="#e1e1e1"/><path d="M57.15 11.217c-9.65 0-17.492 7.833-17.492 17.476 0 .923.134 1.81.272 2.693l.193 1.178c.96 3.42 1.177 6.29.637 8.358-.6 2.3-1.916 3.752-3.856 4.502-1.522.588-3.508.642-5.765.222a13.822 13.822 0 0 0-5.094-.994c-7.676 0-13.916 6.234-13.916 13.904s6.24 13.907 13.916 13.907c1.625 0 3.163-.335 4.613-.848l.02.053c2.577-.833 4.408-1.032 5.652-.852 1.245.18 1.915.673 2.428 1.428 1.012 1.49 1.128 4.241 1.562 6.842-.189.992-.308 2.01-.308 3.056 0 8.982 7.305 16.28 16.293 16.28s16.29-7.298 16.29-16.28c0-8.982-7.302-16.279-16.29-16.279-1.667 0-3.243.323-4.758.79v-.001l-.023-.072c-4.203 1.153-7.245 1.295-9.223.709-1.919-.569-2.889-1.736-3.342-3.617a13.787 13.787 0 0 0 1.002-5.116c0-1.698-.348-3.307-.908-4.812l.062-.215c1.416-4.861 5.47-8.742 13.276-8.033l.017-.06c1.518.43 3.088.734 4.742.734h.001c9.65 0 17.49-7.834 17.49-17.477 0-9.644-7.84-17.477-17.49-17.477" fill="#dfdfdf"/><path d="M57.473 10.571c-9.65 0-17.492 7.834-17.492 17.477 0 .923.133 1.81.271 2.693l.194 1.178c.96 3.42 1.176 6.29.636 8.357-.6 2.3-1.916 3.753-3.855 4.502-1.523.589-3.508.643-5.766.223a13.822 13.822 0 0 0-5.093-.994c-7.676 0-13.916 6.234-13.916 13.904s6.24 13.906 13.916 13.906c1.625 0 3.162-.334 4.613-.847l.02.053c2.577-.833 4.407-1.032 5.652-.852 1.244.18 1.915.673 2.427 1.428 1.013 1.49 1.128 4.24 1.563 6.841-.19.993-.309 2.01-.309 3.057 0 8.982 7.305 16.28 16.293 16.28 8.989 0 16.291-7.298 16.291-16.28 0-8.982-7.303-16.28-16.29-16.28-1.667 0-3.244.324-4.758.79l-.024-.072c-4.203 1.153-7.244 1.295-9.223.709-1.918-.57-2.888-1.737-3.341-3.618a13.787 13.787 0 0 0 1.002-5.115c0-1.699-.349-3.307-.909-4.812l.063-.215c1.416-4.861 5.469-8.743 13.275-8.033l.018-.061c1.518.43 3.088.734 4.742.734 9.65 0 17.49-7.833 17.49-17.476 0-9.644-7.84-17.477-17.49-17.477" fill="#dedede"/><path d="M57.796 9.926c-9.65 0-17.493 7.833-17.493 17.477 0 .922.134 1.81.272 2.693l.193 1.178c.96 3.42 1.177 6.29.637 8.357-.6 2.3-1.916 3.753-3.855 4.502-1.523.588-3.508.643-5.766.223a13.822 13.822 0 0 0-5.094-.994c-7.676 0-13.916 6.234-13.916 13.904s6.24 13.906 13.916 13.906c1.625 0 3.163-.334 4.613-.847a22.648 22.648 0 0 0 .02.052c2.577-.832 4.408-1.031 5.652-.851 1.245.18 1.915.673 2.428 1.428 1.012 1.49 1.128 4.24 1.563 6.841-.19.992-.309 2.01-.309 3.057 0 8.982 7.305 16.28 16.293 16.28s16.29-7.298 16.29-16.28c0-8.982-7.302-16.28-16.29-16.28-1.666 0-3.243.324-4.758.79 0-.004-.023-.073-.023-.073-4.203 1.154-7.245 1.296-9.223.71-1.919-.57-2.888-1.737-3.342-3.618a13.787 13.787 0 0 0 1.002-5.115c0-1.699-.348-3.307-.908-4.812l.062-.215c1.417-4.861 5.47-8.743 13.276-8.034l.017-.06c1.518.43 3.088.734 4.743.734 9.65 0 17.49-7.833 17.49-17.476 0-9.644-7.84-17.477-17.49-17.477" fill="#dcdcdc"/><path d="M58.118 9.281c-9.65 0-17.492 7.833-17.492 17.477 0 .922.133 1.809.272 2.693l.193 1.178c.96 3.42 1.177 6.289.637 8.357-.601 2.3-1.917 3.753-3.856 4.502-1.522.588-3.508.643-5.766.223a13.822 13.822 0 0 0-5.093-.994c-7.676 0-13.916 6.234-13.916 13.904s6.24 13.906 13.916 13.906c1.625 0 3.162-.334 4.613-.848 0 .003.02.053.02.053 2.577-.833 4.408-1.031 5.652-.851 1.244.18 1.915.672 2.428 1.427 1.012 1.491 1.127 4.242 1.562 6.842-.19.992-.308 2.01-.308 3.057 0 8.982 7.304 16.28 16.293 16.28 8.988-.001 16.29-7.299 16.29-16.28 0-8.982-7.302-16.28-16.29-16.28-1.667 0-3.244.324-4.758.79l-.024-.073c-4.203 1.154-7.244 1.295-9.222.71-1.92-.57-2.889-1.737-3.342-3.618a13.787 13.787 0 0 0 1.002-5.115c0-1.699-.349-3.307-.908-4.813 0-.004.062-.215.062-.215 1.416-4.86 5.469-8.742 13.275-8.033l.018-.06c1.518.43 3.088.734 4.742.734 9.65 0 17.49-7.833 17.49-17.477 0-9.643-7.84-17.476-17.49-17.476" fill="#dadada"/><path d="M58.44 8.636c-9.65 0-17.491 7.833-17.491 17.476 0 .923.133 1.81.271 2.694l.193 1.178c.96 3.419 1.177 6.289.637 8.357-.6 2.3-1.916 3.753-3.855 4.502-1.523.588-3.508.643-5.766.223a13.822 13.822 0 0 0-5.094-.995c-7.675 0-13.916 6.234-13.916 13.905 0 7.67 6.24 13.906 13.916 13.906 1.625 0 3.163-.334 4.614-.848l.02.053c2.576-.833 4.407-1.032 5.651-.852 1.245.18 1.916.673 2.428 1.428 1.012 1.49 1.128 4.241 1.563 6.842-.19.992-.309 2.01-.309 3.057 0 8.981 7.305 16.279 16.293 16.279s16.291-7.298 16.291-16.28c0-8.981-7.303-16.279-16.29-16.279h-.001c-1.666 0-3.243.324-4.758.79l-.023-.073c-4.203 1.154-7.245 1.295-9.223.709-1.919-.569-2.888-1.736-3.342-3.617a13.787 13.787 0 0 0 1.002-5.115c0-1.7-.348-3.307-.908-4.813l.063-.215c1.416-4.86 5.468-8.742 13.275-8.033l.018-.06c1.518.43 3.088.734 4.742.734 9.65 0 17.49-7.834 17.49-17.477s-7.84-17.476-17.49-17.476" fill="#d9d9d9"/><path d="M58.763 7.99c-9.65 0-17.492 7.834-17.492 17.477 0 .923.134 1.81.272 2.694l.193 1.177c.96 3.42 1.177 6.29.637 8.358-.601 2.3-1.916 3.752-3.856 4.502-1.522.588-3.508.643-5.765.222a13.822 13.822 0 0 0-5.094-.994c-7.676 0-13.916 6.234-13.916 13.905 0 7.67 6.24 13.906 13.916 13.906 1.625 0 3.163-.335 4.613-.848l.02.053c2.577-.833 4.408-1.032 5.652-.852 1.244.18 1.915.673 2.428 1.428 1.012 1.49 1.127 4.241 1.562 6.842-.19.992-.308 2.01-.308 3.057 0 8.981 7.305 16.279 16.293 16.279s16.29-7.298 16.29-16.28c0-8.981-7.302-16.279-16.29-16.279-1.667 0-3.244.323-4.758.79l-.024-.073c-4.202 1.154-7.244 1.295-9.222.709-1.919-.569-2.889-1.736-3.342-3.617a13.787 13.787 0 0 0 1.002-5.115c0-1.7-.348-3.307-.908-4.813l.062-.215c1.416-4.86 5.469-8.742 13.276-8.033l.017-.06c1.518.43 3.088.734 4.742.734h.001c9.65 0 17.49-7.834 17.49-17.477S68.414 7.99 58.764 7.99" fill="#d7d7d7"/><path d="M59.086 7.346c-9.65 0-17.492 7.833-17.492 17.476 0 .923.133 1.81.271 2.693l.194 1.178c.96 3.42 1.176 6.29.636 8.358-.6 2.3-1.916 3.752-3.855 4.502-1.523.588-3.508.642-5.766.222a13.822 13.822 0 0 0-5.094-.994c-7.675 0-13.916 6.234-13.916 13.904s6.24 13.907 13.916 13.907c1.625 0 3.163-.335 4.614-.848l.02.053c2.576-.833 4.407-1.032 5.652-.852 1.244.18 1.915.673 2.427 1.428 1.013 1.49 1.128 4.241 1.563 6.842-.19.992-.309 2.01-.309 3.056 0 8.982 7.305 16.28 16.293 16.28s16.291-7.298 16.291-16.28c0-8.981-7.303-16.279-16.29-16.279-1.667 0-3.244.323-4.759.79v-.001a13.344 13.344 0 0 0-.023-.072c-4.203 1.154-7.245 1.295-9.223.709-1.918-.569-2.888-1.736-3.341-3.617a13.787 13.787 0 0 0 1.001-5.116c0-1.698-.348-3.306-.908-4.812l.063-.215c1.416-4.861 5.469-8.742 13.275-8.033a9.098 9.098 0 0 0 .018-.06c1.518.43 3.088.734 4.742.734 9.65 0 17.49-7.834 17.49-17.477 0-9.644-7.84-17.476-17.49-17.476" fill="#d5d5d5"/><path d="M59.409 6.7c-9.65 0-17.493 7.834-17.493 17.477 0 .922.134 1.81.272 2.693l.193 1.178c.96 3.42 1.177 6.29.637 8.357-.6 2.3-1.916 3.753-3.856 4.502-1.522.589-3.507.643-5.765.223a13.822 13.822 0 0 0-5.094-.994c-7.676 0-13.916 6.234-13.916 13.904s6.24 13.907 13.916 13.907c1.625 0 3.163-.335 4.613-.848l.02.053c2.577-.833 4.408-1.032 5.652-.852 1.245.18 1.915.673 2.428 1.428 1.012 1.49 1.128 4.24 1.562 6.842-.189.991-.308 2.01-.308 3.056 0 8.982 7.305 16.28 16.293 16.28s16.29-7.298 16.29-16.28c0-8.982-7.302-16.28-16.29-16.28-1.666 0-3.243.324-4.758.79l-.023-.072c-4.203 1.153-7.245 1.295-9.223.709-1.919-.57-2.889-1.737-3.342-3.618a13.787 13.787 0 0 0 1.002-5.115c0-1.699-.348-3.307-.908-4.812l.062-.215c1.416-4.861 5.47-8.743 13.276-8.033v-.001l.017-.06c1.518.43 3.088.734 4.743.734 9.65 0 17.49-7.833 17.49-17.476 0-9.644-7.84-17.477-17.49-17.477" fill="#d4d4d4"/><path d="M59.731 6.055c-9.65 0-17.492 7.834-17.492 17.477 0 .922.133 1.81.271 2.693l.194 1.178c.96 3.42 1.177 6.29.636 8.357-.6 2.3-1.916 3.753-3.855 4.502-1.522.588-3.508.643-5.766.223a13.822 13.822 0 0 0-5.093-.994c-7.676 0-13.916 6.234-13.916 13.904s6.24 13.906 13.916 13.906c1.625 0 3.162-.334 4.613-.847l.02.052c2.577-.832 4.407-1.031 5.652-.851 1.244.18 1.915.673 2.428 1.428 1.012 1.49 1.127 4.24 1.562 6.841-.19.992-.309 2.01-.309 3.057 0 8.982 7.305 16.28 16.293 16.28 8.989 0 16.291-7.298 16.291-16.28 0-8.982-7.303-16.28-16.29-16.28-1.667 0-3.244.324-4.758.79a260.055 260.055 0 0 1-.024-.073c-4.203 1.154-7.244 1.296-9.223.71-1.918-.57-2.888-1.737-3.341-3.618a13.787 13.787 0 0 0 1.002-5.115c0-1.699-.349-3.307-.909-4.813l.063-.214c1.416-4.861 5.469-8.743 13.275-8.034l.018-.06c1.518.43 3.088.734 4.742.734 9.65 0 17.49-7.833 17.49-17.476v-.001c0-9.643-7.84-17.476-17.49-17.476" fill="#d2d2d2"/><path d="M60.054 5.41c-9.65 0-17.492 7.833-17.492 17.477 0 .922.133 1.809.271 2.693l.193 1.178c.96 3.42 1.177 6.289.637 8.357-.6 2.3-1.916 3.753-3.855 4.502-1.523.588-3.508.643-5.766.223a13.823 13.823 0 0 0-5.094-.994c-7.675 0-13.916 6.234-13.916 13.904s6.24 13.906 13.916 13.906c1.625 0 3.163-.334 4.614-.847l.019.052c2.577-.833 4.408-1.031 5.652-.851 1.245.18 1.915.672 2.428 1.427 1.012 1.49 1.128 4.241 1.563 6.842-.19.992-.309 2.01-.309 3.057 0 8.982 7.305 16.28 16.293 16.28 8.988-.001 16.291-7.299 16.291-16.28 0-8.982-7.303-16.28-16.291-16.28-1.666 0-3.243.324-4.758.79l-.023-.073c-4.203 1.154-7.245 1.296-9.223.71-1.919-.57-2.888-1.737-3.342-3.618a13.787 13.787 0 0 0 1.002-5.115c0-1.699-.348-3.307-.908-4.813l.063-.214c1.416-4.861 5.468-8.743 13.275-8.034l.018-.06c1.517.43 3.088.734 4.742.734 9.65 0 17.49-7.833 17.49-17.476v-.001c0-9.643-7.84-17.476-17.49-17.476" fill="#d0d0d0"/><path d="M60.376 4.765c-9.65 0-17.492 7.833-17.492 17.476 0 .923.133 1.81.272 2.694l.193 1.178c.96 3.419 1.177 6.289.637 8.357-.601 2.3-1.917 3.753-3.856 4.502-1.522.588-3.508.643-5.765.223a13.822 13.822 0 0 0-5.094-.995c-7.676 0-13.916 6.234-13.916 13.905 0 7.67 6.24 13.906 13.916 13.906 1.625 0 3.163-.334 4.613-.848l.02.053c2.577-.833 4.408-1.031 5.652-.851 1.244.18 1.915.672 2.428 1.427 1.012 1.49 1.127 4.241 1.562 6.842-.19.992-.308 2.01-.308 3.057 0 8.981 7.304 16.279 16.293 16.279 8.988 0 16.29-7.298 16.29-16.28 0-8.981-7.302-16.279-16.29-16.279-1.667 0-3.244.324-4.758.79l-.024-.073c-4.202 1.154-7.244 1.295-9.222.71-1.919-.57-2.889-1.737-3.342-3.618a13.787 13.787 0 0 0 1.002-5.115c0-1.699-.348-3.307-.908-4.813a12836.86 12836.86 0 0 0 .062-.215c1.416-4.86 5.469-8.742 13.276-8.033a22.448 22.448 0 0 0 .018-.06c1.517.43 3.087.734 4.741.734h.001c9.65 0 17.49-7.834 17.49-17.477s-7.84-17.476-17.49-17.476" fill="#cfcfcf"/><path d="M60.699 4.12c-9.65 0-17.492 7.833-17.492 17.476 0 .923.133 1.81.271 2.694l.194 1.177c.96 3.42 1.176 6.29.636 8.358-.6 2.3-1.916 3.752-3.855 4.502-1.523.588-3.508.643-5.766.222a13.822 13.822 0 0 0-5.094-.994c-7.675 0-13.916 6.234-13.916 13.905 0 7.67 6.24 13.906 13.916 13.906 1.625 0 3.163-.335 4.614-.848l.02.053c2.576-.833 4.407-1.032 5.652-.852 1.244.18 1.915.673 2.427 1.428 1.013 1.49 1.128 4.241 1.563 6.842-.19.992-.309 2.01-.309 3.057 0 8.981 7.305 16.279 16.293 16.279s16.291-7.298 16.291-16.28c0-8.981-7.303-16.279-16.29-16.279-1.667 0-3.244.323-4.759.79l-.023-.073c-4.203 1.154-7.245 1.295-9.223.709-1.918-.569-2.888-1.736-3.342-3.617a13.787 13.787 0 0 0 1.002-5.115c0-1.7-.348-3.307-.908-4.813l.063-.215c1.416-4.86 5.468-8.742 13.275-8.033a8.492 8.492 0 0 0 .018-.06c1.518.43 3.088.734 4.742.734 9.65 0 17.49-7.834 17.49-17.477 0-9.644-7.84-17.476-17.49-17.476" fill="#cdcdcd"/><path d="M61.021 3.475c-9.65 0-17.492 7.833-17.492 17.476 0 .923.134 1.81.272 2.694l.193 1.177c.96 3.42 1.177 6.29.637 8.358-.6 2.3-1.916 3.752-3.856 4.502-1.522.588-3.508.642-5.765.222a13.822 13.822 0 0 0-5.094-.994C22.24 36.91 16 43.144 16 50.814s6.24 13.907 13.916 13.907c1.625 0 3.163-.335 4.613-.848l.02.053c2.577-.833 4.408-1.032 5.652-.852 1.244.18 1.915.673 2.428 1.428 1.012 1.49 1.127 4.241 1.562 6.842-.19.992-.308 2.01-.308 3.056 0 8.982 7.305 16.28 16.293 16.28s16.29-7.298 16.29-16.28c0-8.981-7.302-16.279-16.29-16.279-1.666 0-3.243.323-4.758.79l-.024-.073c-4.202 1.154-7.244 1.295-9.222.709-1.919-.569-2.889-1.736-3.342-3.617a13.787 13.787 0 0 0 1.002-5.116c0-1.698-.348-3.306-.908-4.812l.062-.215c1.416-4.86 5.469-8.742 13.276-8.033l.017-.06c1.518.43 3.088.734 4.742.734h.001c9.65 0 17.49-7.834 17.49-17.477 0-9.644-7.84-17.476-17.49-17.476" fill="#ccc"/></g></g><g transform="translate(233.95 -395.768)"><path d="M-191.096 447.975c-.79 8.275 4.193 9.753 12.75 7.403l-10.61 11.7c.133-3.448.012-11.312-10.693-8.144 4.958-1.974 7.101-8.358 8.553-10.959z" fill="#ffd42a" fill-rule="evenodd" stroke="#ffd42a" stroke-width="1.565" stroke-linecap="round" stroke-linejoin="round"/><path d="M-189.426 419.266c2.514 8.747-.04 15.227-10.326 15.12 3.021 1.509 6.083 2.924 8.018 6.946 1.503-5.162 6.012-9.342 14.117-8.606-4.413-2.155-1.585-6.055-11.81-13.46z" fill="#f95" fill-rule="evenodd" stroke="#f95" stroke-width="1.565" stroke-linecap="round" stroke-linejoin="round"/><ellipse cx="204.035" cy="446.584" rx="13.116" ry="13.105" transform="scale(-1 1)" fill="#ffedda" stroke="#37abc8" stroke-width="1.6"/><ellipse cx="172.931" cy="416.72" rx="16.691" ry="16.677" transform="scale(-1 1)" fill="#ffedda" stroke="#006c35" stroke-width="1.6"/><ellipse cy="470.169" cx="173.776" rx="15.492" ry="15.479" transform="scale(-1 1)" fill="#ffedda" stroke="#f95" stroke-width="1.6"/><path d="M-129.219 434.06c5.74 6.818-.704 8.835-4.836 11.99 6.263-2.567 13.054-2.185 20.613 2.482-5.877-2.961-8.722-9.57 2.417-14.8-7.34 4.423-12.947 2.982-18.194.329z" fill="#f95" fill-rule="evenodd" stroke="#f95" stroke-width="1.565" stroke-linecap="round" stroke-linejoin="round"/><ellipse cy="417.402" cx="-120.377" rx="19.541" ry="19.334" fill="#ffedda" stroke="#003380" stroke-width="1.6"/><ellipse cy="432.077" cx="221.02" transform="matrix(.73517 .67788 -.66957 .74275 0 0)" rx="26.082" ry="26.11" fill="#ffedda" stroke="#d45500" stroke-width="1.6"/><path d="M-60.11 455.926c-.457 3.712-2.52 7.04-8.94 4.126l5.182 9.802c.87-6.416 6.506-7.27 11.054-4.328z" fill="#ffd42a" fill-rule="evenodd" stroke="#ffd42a" stroke-width="1.565" stroke-linecap="round" stroke-linejoin="round"/><path d="M-57.418 430.093c-.71 4.536 2.286 6.893 6.397 6.334-4.446 1.199-4.863 1.305-7.456 6.704.597-4.115-.279-6.965-5.627-6.801 5.77-1.452 4.49-1.215 6.686-6.237z" fill="#f95" fill-rule="evenodd" stroke="#f95" stroke-width="1.565" stroke-linecap="round" stroke-linejoin="round"/><ellipse cy="471.292" cx="-77.991" rx="14.458" ry="14.303" fill="#ffedda" stroke="#006c35" stroke-width="1.6"/><ellipse ry="16.519" rx="16.697" cx="-44.043" cy="451.434" fill="#ffedda" stroke="#d45500" stroke-width="1.6"/><ellipse cy="421.656" cx="-71.773" rx="16.697" ry="16.519" fill="#ffedda" stroke="#37abc8" stroke-width="1.6"/></g><g transform="translate(233.95 -395.768)"><a xlink:href="#Telemetrie"><text transform="scale(1.02148 .97897)" y="455.294" x="-199.761" style="line-height:125%;-inkscape-font-specification:'Open Sans Semi-Bold';text-align:start" font-weight="600" font-size="4.392" font-family="Open Sans" letter-spacing="0" word-spacing="0" stroke-width=".265"><tspan style="-inkscape-font-specification:'Open Sans, Verdana, Helvetica, Arial, sans-serif';text-align:center" y="455.294" x="-199.761" font-weight="400" font-size="4.667" font-family="'Open Sans',Verdana,Helvetica,Arial,sans-serif" text-anchor="middle">Fernber-</tspan><tspan style="-inkscape-font-specification:'Open Sans, Verdana, Helvetica, Arial, sans-serif';text-align:center" y="461.127" x="-199.761" font-weight="400" font-size="4.667" font-family="'Open Sans',Verdana,Helvetica,Arial,sans-serif" text-anchor="middle">tragung</tspan></text></a><a xlink:href="#Telemetrie"><text y="414.661" x="-172.517" style="line-height:125%;-inkscape-font-specification:'Open Sans Semi-Bold';text-align:start" transform="scale(1.00042 .99958)" font-weight="600" font-size="5.081" font-family="Open Sans" letter-spacing="0" word-spacing="0" stroke-width=".265"><tspan style="-inkscape-font-specification:'Open Sans, Verdana, Helvetica, Arial, sans-serif';text-align:center" y="414.661" x="-172.517" font-weight="400" font-size="5.333" font-family="'Open Sans',Verdana,Helvetica,Arial,sans-serif" text-anchor="middle">Messwert-</tspan><tspan style="-inkscape-font-specification:'Open Sans, Verdana, Helvetica, Arial, sans-serif';text-align:center" y="421.327" x="-172.517" font-weight="400" font-size="5.333" font-family="'Open Sans',Verdana,Helvetica,Arial,sans-serif" text-anchor="middle">aufnahme</tspan></text></a><text transform="scale(1.00042 .99958)" y="469.302" x="-173.989" style="line-height:125%;-inkscape-font-specification:'Open Sans Semi-Bold';text-align:start" font-weight="600" font-size="4.538" font-family="Open Sans" letter-spacing="0" word-spacing="0" stroke-width=".265"><tspan style="-inkscape-font-specification:'Open Sans, Verdana, Helvetica, Arial, sans-serif';text-align:center" y="469.302" x="-173.989" font-weight="400" font-size="4.667" font-family="'Open Sans',Verdana,Helvetica,Arial,sans-serif" text-anchor="middle">Datenbank-</tspan><tspan style="-inkscape-font-specification:'Open Sans, Verdana, Helvetica, Arial, sans-serif';text-align:center" y="475.136" x="-173.989" font-weight="400" font-size="4.667" font-family="'Open Sans',Verdana,Helvetica,Arial,sans-serif" text-anchor="middle">verwaltung</tspan></text><a xlink:href="#Datenauswertung_in_R"><text transform="scale(1.00042 .99958)" style="line-height:125%;-inkscape-font-specification:'Open Sans Semi-Bold';text-align:start" x="-120.407" y="414.641" font-weight="600" font-size="5.081" font-family="Open Sans" letter-spacing="0" word-spacing="0" stroke-width=".265"><tspan x="-120.407" y="414.641" style="-inkscape-font-specification:'Open Sans, Verdana, Helvetica, Arial, sans-serif';text-align:center" font-weight="400" font-size="5.333" font-family="'Open Sans',Verdana,Helvetica,Arial,sans-serif" text-anchor="middle">Daten-</tspan><tspan x="-120.407" y="421.308" style="-inkscape-font-specification:'Open Sans, Verdana, Helvetica, Arial, sans-serif';text-align:center" font-weight="400" font-size="5.333" font-family="'Open Sans',Verdana,Helvetica,Arial,sans-serif" text-anchor="middle">aufarbeitung</tspan></text></a><a xlink:href="#Datenauswertung_in_R"><text style="line-height:125%;-inkscape-font-specification:'Open Sans';text-align:start" x="-127.443" y="464.77" transform="scale(.99437 1.00567)" font-weight="400" font-size="7.628" font-family="Open Sans" letter-spacing="0" word-spacing="0" stroke-width=".265"><tspan x="-127.443" y="464.77" style="-inkscape-font-specification:'Open Sans, Verdana, Helvetica, Arial, sans-serif';text-align:center" font-size="8" font-family="'Open Sans',Verdana,Helvetica,Arial,sans-serif" text-anchor="middle">statistische</tspan><tspan x="-127.443" y="474.77" style="-inkscape-font-specification:'Open Sans, Verdana, Helvetica, Arial, sans-serif';text-align:center" font-size="8" font-family="'Open Sans',Verdana,Helvetica,Arial,sans-serif" text-anchor="middle">Auswertung</tspan></text></a><a xlink:href="#Interaktive_Grafiken"><text transform="scale(1.00042 .99958)" y="473.345" x="-77.817" style="line-height:125%;-inkscape-font-specification:'Open Sans Semi-Bold';text-align:start" font-weight="600" font-size="5.081" font-family="Open Sans" letter-spacing="0" word-spacing="0" stroke-width=".265"><tspan style="-inkscape-font-specification:'Open Sans, Verdana, Helvetica, Arial, sans-serif';text-align:center" y="473.345" x="-77.817" font-weight="400" font-size="5.333" font-family="'Open Sans',Verdana,Helvetica,Arial,sans-serif" text-anchor="middle">Web Apps</tspan></text></a><a xlink:href="#Dynamische_Dokumente"><text transform="scale(1.00042 .99958)" y="450.734" x="-43.803" style="line-height:125%;-inkscape-font-specification:'Open Sans Semi-Bold';text-align:start" font-weight="600" font-size="4.844" font-family="Open Sans" letter-spacing="0" word-spacing="0" stroke-width=".265"><tspan style="-inkscape-font-specification:'Open Sans, Verdana, Helvetica, Arial, sans-serif';text-align:center" y="450.734" x="-43.803" font-weight="400" font-size="4.933" font-family="'Open Sans',Verdana,Helvetica,Arial,sans-serif" text-anchor="middle">dynamische</tspan><tspan style="-inkscape-font-specification:'Open Sans, Verdana, Helvetica, Arial, sans-serif';text-align:center" y="456.901" x="-43.803" font-weight="400" font-size="4.933" font-family="'Open Sans',Verdana,Helvetica,Arial,sans-serif" text-anchor="middle">Dokumente</tspan></text></a><a xlink:href="#Interaktive_Grafiken"><text transform="scale(1.00042 .99958)" y="420.414" x="-71.757" style="line-height:125%;-inkscape-font-specification:'Open Sans Semi-Bold';text-align:start" font-weight="600" font-size="5.081" font-family="Open Sans" letter-spacing="0" word-spacing="0" stroke-width=".265"><tspan style="-inkscape-font-specification:'Open Sans, Verdana, Helvetica, Arial, sans-serif';text-align:center" y="420.414" x="-71.757" font-weight="400" font-size="5.333" font-family="'Open Sans',Verdana,Helvetica,Arial,sans-serif" text-anchor="middle">interaktive</tspan><tspan style="-inkscape-font-specification:'Open Sans, Verdana, Helvetica, Arial, sans-serif';text-align:center" y="427.081" x="-71.757" font-weight="400" font-size="5.333" font-family="'Open Sans',Verdana,Helvetica,Arial,sans-serif" text-anchor="middle">Grafiken</tspan></text></a></g><path d="M-283.545-23.657c-11.34-.339-19.363 12.63-15.375 23.314 4.017 10.759-11.473 10.499-19.362 10.52-10.08.026-12.346 16.346-4.618 23.148 7 6.163 20.114-4.648 22.733 5.706 1.68 6.637-.32 14.753 6.146 19.524 7.707 5.686 19.732 3.529 23.706-5.512 4.287-9.751-3.155-24.288-14.272-21.98-7.633 1.585-18.195 3.27-17.457-8.59.637-10.234 8.19-15.086 17.045-13.13 8.527 1.883 17.393-5.183 17.875-13.569.738-12.827-6.203-19.126-16.42-19.43zM-230.992-25.631c-12.314-.611-21.4 12.697-18.731 24.818 1.744 7.923 19.983 14.627 7.208 21.425-8.007 4.26-16.644 8.578-19.56 17.9-4.607 14.72 4.858 32.354 20.604 34.569 15.267 2.147 30.785-10.67 30.008-26.38-.478-9.678-6.884-17.66-14.903-23.358-9.165-6.513 7.632-11.883 10.768-17.654 8.4-15.455-1.984-30.656-15.394-31.32zM-174.718 12.63c2.545-.463 7.083 3.804 5.696 6.525-2.863 5.619-.379 9.063-2.383 14.887-3.283 9.543-15.45-4.24-23.552.583-8.592 5.114-11.045 18.187-2.621 24.354 7.703 5.64 23.424 2.292 22.767-7.824-.618-9.505 5.286-14.64 13.517-8.137 9.25 7.309 24.79-4.575 23.411-16.723-1.13-9.961-12.164-17.646-21.957-13.818-10.118 3.955-6.96-9.277-5.954-15.427 1.998-12.208-15.724-19.684-25.767-13.029-8.44 5.593-10.31 18.68-2.766 25.555 5.749 5.24 13.449 4.173 19.61 3.054z" fill="#fff" fill-rule="evenodd" stroke="#fff" stroke-width="1.565" stroke-linecap="round" stroke-linejoin="round"/><g transform="translate(32.26 -262.533)"><path d="M-47.717 646.702c.959 4.4 5.067 6.002 13.625 3.653-5.299 2.004-10.203 5.98-10.61 11.7-.867-5.073-.114-11.563-10.693-8.144 4.958-1.975 6.226-4.609 7.678-7.21z" fill="#ffd42a" fill-rule="evenodd" stroke="#ffd42a" stroke-width="1.565" stroke-linecap="round" stroke-linejoin="round"/><path d="M-45.173 614.242c2.64 8.122.862 13.26-3.462 14.93-1.864.72-4.202.797-6.863.19 3.02 1.51 6.082 2.924 8.017 6.946 1.504-5.162 6.012-9.342 14.117-8.605-4.413-2.156-9.96-4.556-11.809-13.461z" fill="#f95" fill-rule="evenodd" stroke="#f95" stroke-width="1.565" stroke-linecap="round" stroke-linejoin="round"/><ellipse transform="scale(-1 1)" cx="59.781" cy="641.56" rx="13.116" ry="13.105" fill="#ffedda" stroke="#d45500" stroke-width="1.6"/><ellipse transform="scale(-1 1)" cx="28.677" cy="611.696" rx="16.691" ry="16.677" fill="#ffedda" stroke="#006c35" stroke-width="1.6"/><ellipse transform="scale(-1 1)" cy="665.145" cx="29.523" rx="15.492" ry="15.479" fill="#ffedda" stroke="#f95" stroke-width="1.6"/><text transform="scale(1.02148 .97897)" y="654.425" x="-58.769" style="line-height:125%;-inkscape-font-specification:'Open Sans Semi-Bold';text-align:start" font-weight="600" font-size="4.392" font-family="Open Sans" letter-spacing="0" word-spacing="0" stroke-width=".265"><tspan style="-inkscape-font-specification:'Open Sans Semi-Bold';text-align:center" y="654.425" x="-58.769" text-anchor="middle">Fernber-</tspan><tspan style="-inkscape-font-specification:'Open Sans Semi-Bold';text-align:center" y="659.915" x="-58.769" text-anchor="middle">tragung</tspan></text><text y="609.713" x="-41.135" style="line-height:125%;-inkscape-font-specification:'Open Sans Bold';text-align:start" transform="scale(1.00042 .99958)" font-weight="700" font-size="5.081" font-family="Open Sans" letter-spacing="0" word-spacing="0" stroke-width=".265"><tspan style="-inkscape-font-specification:'Open Sans Semi-Bold'" y="609.713" x="-41.135" font-weight="600">Messwert-</tspan><tspan style="-inkscape-font-specification:'Open Sans Semi-Bold'" y="616.064" x="-41.135" font-weight="600">aufnahme</tspan></text><text style="line-height:125%;-inkscape-font-specification:'Open Sans Bold';text-align:start" x="-29.499" y="663.798" transform="scale(1.00042 .99958)" font-weight="700" font-size="4.538" font-family="Open Sans" letter-spacing="0" word-spacing="0" stroke-width=".265"><tspan x="-29.499" y="663.798" style="-inkscape-font-specification:'Open Sans Semi-Bold';text-align:center" font-weight="600" text-anchor="middle">Datenbank-</tspan><tspan x="-29.499" y="669.471" style="-inkscape-font-specification:'Open Sans Semi-Bold';text-align:center" font-weight="600" text-anchor="middle">verwaltung</tspan></text><path d="M15.035 629.037c5.74 6.818-.704 8.834-4.836 11.99 6.263-2.568 13.054-2.186 20.613 2.481-5.878-2.96-8.722-9.57 2.417-14.8-7.34 4.424-12.947 2.983-18.194.329z" fill="#0091d5" fill-rule="evenodd" stroke="#0094d5" stroke-width="1.565" stroke-linecap="round" stroke-linejoin="round"/><ellipse cy="612.378" cx="23.876" rx="19.541" ry="19.334" fill="#42b863" stroke="#006c35" stroke-width="1.6"/><text transform="scale(1.00042 .99958)" style="line-height:125%;-inkscape-font-specification:'Open Sans Bold';text-align:start" x="24.083" y="609.137" font-weight="700" font-size="5.081" font-family="Open Sans" letter-spacing="0" word-spacing="0" fill="#fff" stroke-width=".265"><tspan x="24.083" y="609.137" style="-inkscape-font-specification:'Open Sans Bold';text-align:center" text-anchor="middle">Daten-</tspan><tspan x="24.083" y="615.489" style="-inkscape-font-specification:'Open Sans Bold';text-align:center" text-anchor="middle">aufarbeitung</tspan></text><ellipse cy="477.634" cx="458.73" transform="matrix(.73517 .67788 -.66957 .74275 0 0)" rx="26.082" ry="26.11" fill="#42b863" stroke="#006c35" stroke-width="1.6"/><text style="line-height:125%;-inkscape-font-specification:'Open Sans Bold';text-align:start" x="17.926" y="658.09" transform="scale(.99437 1.00567)" font-weight="700" font-size="7.628" font-family="Open Sans" letter-spacing="0" word-spacing="0" fill="#fff" stroke-width=".265"><tspan x="17.926" y="658.09" style="-inkscape-font-specification:'Open Sans Bold';text-align:center" text-anchor="middle">statistische</tspan><tspan x="17.926" y="667.624" style="-inkscape-font-specification:'Open Sans Bold';text-align:center" text-anchor="middle">Auswertung</tspan></text><path d="M84.143 650.902c-.457 3.712-2.52 7.04-8.94 4.126 3.213 2.598 4.48 5.363 5.183 8.178.87-6.417 4.13-6.521 7.929-5.204-1.785-2.04-3.455-4.176-4.172-7.1zM86.836 625.07c-.836 5.535.66 6.767 6.397 6.333-4.447 1.2-4.863 1.306-7.456 6.704.347-4.99 1.47-7.465-5.627-6.801 5.77-1.452 4.49-1.215 6.686-6.236z" fill="#0091d5" fill-rule="evenodd" stroke="#0094d5" stroke-width="1.565" stroke-linecap="round" stroke-linejoin="round"/><ellipse cy="666.268" cx="66.263" rx="14.458" ry="14.303" fill="#42b863" stroke="#006c35" stroke-width="1.6"/><text transform="scale(1.00042 .99958)" y="668.13" x="53.779" style="line-height:125%;-inkscape-font-specification:'Open Sans Bold';text-align:start" font-weight="700" font-size="5.081" font-family="Open Sans" letter-spacing="0" word-spacing="0" fill="#fff" stroke-width=".265"><tspan style="-inkscape-font-specification:'Open Sans Bold'" y="668.13" x="53.779">Web Apps</tspan></text><ellipse ry="16.519" rx="16.697" cx="100.211" cy="646.411" fill="#42b863" stroke="#006c35" stroke-width="1.6"/><text transform="scale(1.00042 .99958)" y="645.23" x="100.158" style="line-height:125%;-inkscape-font-specification:'Open Sans Bold';text-align:start" font-weight="700" font-size="4.844" font-family="Open Sans" letter-spacing="0" word-spacing="0" fill="#fff" stroke-width=".265"><tspan style="-inkscape-font-specification:'Open Sans Bold';text-align:center" y="645.23" x="100.158" text-anchor="middle">dynamische</tspan><tspan style="-inkscape-font-specification:'Open Sans Bold';text-align:center" y="651.285" x="100.158" text-anchor="middle">Dokumente</tspan></text><ellipse cy="616.632" cx="72.481" rx="16.697" ry="16.519" fill="#42b863" stroke="#006c35" stroke-width="1.6"/><text transform="scale(1.00042 .99958)" y="617.028" x="72.733" style="line-height:125%;-inkscape-font-specification:'Open Sans Bold';text-align:start" font-weight="700" font-size="5.081" font-family="Open Sans" letter-spacing="0" word-spacing="0" fill="#fff" stroke-width=".265"><tspan style="-inkscape-font-specification:'Open Sans Bold';text-align:center" y="617.028" x="72.733" text-anchor="middle">interaktive</tspan><tspan style="-inkscape-font-specification:'Open Sans Bold';text-align:center" y="623.379" x="72.733" text-anchor="middle">Grafiken</tspan></text></g><text style="line-height:125%;-inkscape-font-specification:'Open Sans';text-align:center" x="-217.535" y="382.974" font-weight="400" font-size="5.644" font-family="Open Sans" letter-spacing="0" word-spacing="0" text-anchor="middle" stroke-width=".265" transform="translate(32.26 -442.866)"><tspan x="-217.535" y="382.974">Unschrfe &gt; Saubere Kanten</tspan></text><path d="M-215.117-46.798c-12.314-.61-21.4 12.697-18.731 24.818 1.744 7.924 19.983 14.627 7.208 21.426-8.007 4.26-16.644 8.578-19.56 17.9-4.607 14.72 4.858 32.354 20.604 34.568 15.267 2.147 30.785-10.67 30.008-26.38-.478-9.678-6.884-17.66-14.903-23.358-9.165-6.513 7.632-11.883 10.768-17.653 8.4-15.455-1.984-30.656-15.394-31.321zM-267.67-44.824c-11.34-.338-19.363 12.63-15.375 23.314 4.017 10.76-11.473 10.5-19.362 10.52-10.08.027-12.346 16.346-4.618 23.149 7 6.162 20.114-4.649 22.733 5.705 1.68 6.637-.32 14.753 6.146 19.524 7.707 5.686 19.732 3.53 23.706-5.511 4.287-9.752-3.155-24.289-14.272-21.98-7.633 1.584-18.195 3.27-17.457-8.59.637-10.234 8.19-15.086 17.045-13.131 8.527 1.883 17.393-5.182 17.875-13.568.738-12.828-6.203-19.126-16.42-19.432zM-158.843-8.537c2.545-.462 7.083 3.805 5.697 6.525-2.864 5.619-.38 9.064-2.384 14.888-3.283 9.542-15.45-4.24-23.552.583-8.592 5.114-11.045 18.186-2.621 24.353 7.703 5.64 23.424 2.292 22.767-7.824-.618-9.505 5.286-14.639 13.517-8.136 9.25 7.308 24.79-4.576 23.411-16.724-1.13-9.96-12.164-17.645-21.957-13.818-10.118 3.955-6.96-9.277-5.954-15.426 1.998-12.209-15.724-19.684-25.767-13.03-8.44 5.594-10.31 18.68-2.766 25.555 5.749 5.24 13.449 4.173 19.61 3.054z" fill="#ccc" fill-rule="evenodd" stroke="#ccc" stroke-width="1.565" stroke-linecap="round" stroke-linejoin="round"/></svg>