<?xml version="1.0" encoding="UTF-8" standalone="no"?>
<!-- Created with Inkscape (http://www.inkscape.org/) -->

<svg
   xmlns:dc="http://purl.org/dc/elements/1.1/"
   xmlns:cc="http://creativecommons.org/ns#"
   xmlns:rdf="http://www.w3.org/1999/02/22-rdf-syntax-ns#"
   xmlns:svg="http://www.w3.org/2000/svg"
   xmlns="http://www.w3.org/2000/svg"
   xmlns:xlink="http://www.w3.org/1999/xlink"
   xmlns:sodipodi="http://sodipodi.sourceforge.net/DTD/sodipodi-0.dtd"
   xmlns:inkscape="http://www.inkscape.org/namespaces/inkscape"
   width="201.40575mm"
   height="133.89848mm"
   viewBox="0 0 201.40575 133.89849"
   id="svg2"
   version="1.1"
   inkscape:version="0.91+devel+osxmenu r12922"
   sodipodi:docname="nStat-logo-catchphrases.svg">
  <defs
     id="defs4">
    <linearGradient
       inkscape:collect="always"
       id="linearGradient8173">
      <stop
         id="stop8177"
         offset="0"
         style="stop-color:#006c35;stop-opacity:1" />
      <stop
         id="stop8175"
         offset="1"
         style="stop-color:#006cea;stop-opacity:1" />
    </linearGradient>
    <linearGradient
       inkscape:collect="always"
       xlink:href="#linearGradient8173"
       id="linearGradient8179"
       x1="48.150291"
       y1="127.90398"
       x2="178.01988"
       y2="90.61203"
       gradientUnits="userSpaceOnUse" />
    <linearGradient
       inkscape:collect="always"
       xlink:href="#linearGradient8173"
       id="linearGradient8471"
       gradientUnits="userSpaceOnUse"
       x1="48.150291"
       y1="127.90398"
       x2="178.01988"
       y2="90.61203"
       gradientTransform="matrix(0.61586444,0,0.12702004,0.62882687,22.335045,100.56478)" />
    <linearGradient
       inkscape:collect="always"
       xlink:href="#linearGradient8173"
       id="linearGradient8922"
       x1="73.638084"
       y1="235.5679"
       x2="160.42773"
       y2="235.5679"
       gradientUnits="userSpaceOnUse"
       gradientTransform="translate(-9.1603963,57.519836)" />
  </defs>
  <sodipodi:namedview
     id="base"
     pagecolor="#ffffff"
     bordercolor="#666666"
     borderopacity="1.0"
     inkscape:pageopacity="0.0"
     inkscape:pageshadow="2"
     inkscape:zoom="2.3713275"
     inkscape:cx="366.99348"
     inkscape:cy="394.24375"
     inkscape:document-units="mm"
     inkscape:current-layer="g34587"
     showgrid="false"
     showguides="true"
     inkscape:guide-bbox="true"
     inkscape:window-width="1280"
     inkscape:window-height="751"
     inkscape:window-x="0"
     inkscape:window-y="23"
     inkscape:window-maximized="0"
     inkscape:snap-global="false"
     fit-margin-top="5"
     fit-margin-left="5"
     fit-margin-right="5"
     fit-margin-bottom="5"
     inkscape:object-paths="true">
    <sodipodi:guide
       position="104.64894,445.94675"
       orientation="0,1"
       id="guide8158" />
    <sodipodi:guide
       position="97.165391,458.77568"
       orientation="0,1"
       id="guide8160" />
    <sodipodi:guide
       position="102.58128,332.30103"
       orientation="0,1"
       id="guide8498" />
    <sodipodi:guide
       position="108.51044,524.4414"
       orientation="0,1"
       id="guide8629" />
    <sodipodi:guide
       position="92.906396,539.46548"
       orientation="0,1"
       id="guide8631" />
    <sodipodi:guide
       position="103.72786,520.93217"
       orientation="0,1"
       id="guide8633" />
    <sodipodi:guide
       position="108.89822,19.972112"
       orientation="0,1"
       id="guide34898" />
  </sodipodi:namedview>
  <metadata
     id="metadata7">
    <rdf:RDF>
      <cc:Work
         rdf:about="">
        <dc:format>image/svg+xml</dc:format>
        <dc:type
           rdf:resource="http://purl.org/dc/dcmitype/StillImage" />
        <dc:title></dc:title>
      </cc:Work>
    </rdf:RDF>
  </metadata>
  <g
     inkscape:label="Ebene 1"
     inkscape:groupmode="layer"
     id="layer1"
     transform="translate(21.260842,-439.86664)">
    <g
       id="g34349"
       style="opacity:1" />
    <g
       id="g8322"
       transform="matrix(0.61586446,0,0,0.61586446,2.0214384,157.15288)"
       style="fill:#ffffff" />
    <g
       id="g8763"
       transform="translate(0,179.91672)">
      <path
         style="fill:none;fill-rule:evenodd;stroke:#006c35;stroke-width:0.28637698;stroke-linecap:butt;stroke-linejoin:miter;stroke-miterlimit:4;stroke-dasharray:none;stroke-opacity:1"
         d="m 6.124231,247.15172 c 0.5610841,0.004 21.920501,-0.21927 22.45956,-0.23912 24.978526,-0.91985 26.668008,-27.48739 38.082254,-27.69877 11.660575,-0.21594 21.161781,28.02796 82.487725,28.02795"
         id="path8765"
         inkscape:connector-curvature="0"
         sodipodi:nodetypes="cssc" />
      <path
         sodipodi:nodetypes="czc"
         inkscape:connector-curvature="0"
         id="path8767"
         d="m 20.415843,246.93579 c 26.560183,0.21594 26.344245,-29.66538 39.732306,-30.09726 13.388062,-0.43187 21.161774,30.40326 82.487721,30.40325"
         style="fill:none;fill-rule:evenodd;stroke:#006c35;stroke-width:0.28637698;stroke-linecap:butt;stroke-linejoin:miter;stroke-miterlimit:4;stroke-dasharray:none;stroke-opacity:1" />
      <path
         style="fill:none;fill-rule:evenodd;stroke:#006c35;stroke-width:0.28637698;stroke-linecap:butt;stroke-linejoin:miter;stroke-miterlimit:4;stroke-dasharray:none;stroke-opacity:1"
         d="m 13.897944,246.93579 c 26.560183,0.21594 25.696435,-33.98411 39.084496,-34.41599 13.388058,-0.43187 19.650217,34.72199 80.97616,34.72198"
         id="path8769"
         inkscape:connector-curvature="0"
         sodipodi:nodetypes="czc" />
      <path
         sodipodi:nodetypes="cssc"
         inkscape:connector-curvature="0"
         id="path8771"
         d="m 6.124231,247.15172 c 26.560184,0.21595 28.50361,-37.65503 41.891671,-38.0869 12.585458,-0.40598 13.912411,32.96538 64.970908,37.31966 3.25611,0.27768 32.49053,0.8573 36.16696,0.8573"
         style="fill:none;fill-rule:evenodd;stroke:#006c35;stroke-width:0.65589571;stroke-linecap:butt;stroke-linejoin:miter;stroke-miterlimit:4;stroke-dasharray:none;stroke-opacity:1" />
      <rect
         transform="matrix(1,0,-0.21165385,0.97734469,0,0)"
         rx="4.5434055"
         style="opacity:0.76599995;fill:url(#linearGradient8922);fill-opacity:1;stroke:none;stroke-width:0.48833567;stroke-miterlimit:4;stroke-dasharray:none;stroke-opacity:1"
         id="rect8773"
         width="86.78965"
         height="15.766727"
         x="73.638084"
         y="227.68454"
         ry="4.312396" />
      <g
         transform="matrix(0.61586446,0,0,0.61586446,2.0214384,157.15288)"
         style="font-style:normal;font-weight:normal;font-size:6.52936745px;line-height:125%;font-family:sans-serif;letter-spacing:0.01322917px;word-spacing:0px;fill:#ffffff;fill-opacity:0.91787438;stroke:none;stroke-width:0.565;stroke-linecap:butt;stroke-linejoin:miter;stroke-miterlimit:4;stroke-dasharray:none;stroke-opacity:1"
         aria-label="Statistics"
         id="text8775">
        <path
           d="m 58.626804,128.23573 q -1.939222,0 -3.584623,-0.29382 -1.616018,-0.3232 -2.673775,-0.88146 l 0.969611,-4.55424 q 1.204668,0.61703 2.73254,0.999 1.557254,0.38196 2.938215,0.38196 1.586636,0 2.32119,-0.26444 0.763936,-0.29382 0.940228,-1.11652 0.02938,-0.11753 0.02938,-0.29382 0,-0.58764 -0.558261,-0.88146 -0.558261,-0.32321 -2.174279,-0.88147 l -0.881465,-0.29382 q -2.086133,-0.73455 -3.085126,-1.73355 -0.969611,-1.02837 -0.969611,-2.61501 0,-0.76393 0.146911,-1.38096 0.617025,-2.85007 2.820686,-4.26041 2.203662,-1.43973 6.287781,-1.43973 1.498489,0 3.085126,0.26444 1.616018,0.23506 2.615011,0.58765 l -0.969611,4.58361 q -2.350572,-1.02837 -4.789291,-1.02837 -1.557254,0 -2.409336,0.23505 -0.8227,0.23506 -0.998993,1.02838 -0.02938,0.0881 -0.02938,0.26444 0,0.49949 0.499496,0.76393 0.528879,0.26444 2.086133,0.73456 l 0.587643,0.17629 q 2.468101,0.73455 3.496476,1.85108 1.057757,1.08714 1.057757,2.67377 0,0.61703 -0.205675,1.6454 -0.587643,2.76192 -2.761922,4.26041 -2.144897,1.46911 -6.522837,1.46911 z"
           style="font-style:italic;font-variant:normal;font-weight:bold;font-stretch:normal;font-size:29.38215065px;font-family:Kanit;-inkscape-font-specification:'Kanit Bold Italic';letter-spacing:0.01322917px;fill:#ffffff;fill-opacity:0.91787438;stroke:none;stroke-width:0.565;stroke-miterlimit:4;stroke-dasharray:none;stroke-opacity:1"
           id="path8213"
           inkscape:connector-curvature="0" />
        <path
           d="m 74.132532,128.20555 q -1.924601,0 -2.926447,-0.87002 -1.001847,-0.89639 -1.001847,-2.50462 0,-0.60638 0.158186,-1.31822 l 0.949118,-4.40285 -1.634592,0 0.764567,-3.66465 1.634592,0 0.553653,-2.55735 5.193785,-1.1864 -0.790932,3.74375 2.873719,0 -0.949118,3.66465 -2.689168,0 -0.870025,4.03375 q -0.07909,0.34274 -0.07909,0.58002 0,0.50092 0.316372,0.68547 0.342737,0.18455 1.054576,0.18455 0.764567,0 1.634592,-0.26364 l -0.711838,3.29555 q -1.502771,0.58001 -3.4801,0.58001 z"
           style="letter-spacing:0.01852083px;fill:#ffffff;fill-opacity:0.91787438;stroke:none;stroke-width:0.565;stroke-miterlimit:4;stroke-dasharray:none;stroke-opacity:1"
           id="path8215"
           inkscape:connector-curvature="0" />
        <path
           d="m 84.13945,128.20555 q -2.267338,0 -3.506464,-1.00184 -1.239127,-1.02821 -1.239127,-3.13737 0,-0.97548 0.210915,-1.9246 0.448195,-2.10915 1.5555,-3.66465 1.107304,-1.58186 2.662803,-2.42552 1.581864,-0.87003 3.374642,-0.87003 0.949118,0 1.687321,0.23728 0.738203,0.23728 1.212762,0.63275 l 0.131822,-0.60638 4.956506,0 -2.636439,12.49672 -4.297396,0 -0.05273,-0.97548 q -1.819143,1.23912 -4.060116,1.23912 z M 86.327694,124.62 q 0.580017,0 1.133669,-0.18455 0.580017,-0.21092 0.975483,-0.58002 l 0.949118,-4.42922 q -0.580017,-0.65911 -1.687321,-0.65911 -2.293702,0 -3.031905,3.40101 -0.158187,0.65911 -0.158187,1.13367 0,0.71184 0.421831,1.02821 0.42183,0.29001 1.397312,0.29001 z"
           style="font-style:italic;font-variant:normal;font-weight:bold;font-stretch:normal;font-size:26.36439133px;font-family:Kanit;-inkscape-font-specification:'Kanit Bold Italic';letter-spacing:0.01322917px;fill:#ffffff;fill-opacity:0.91787438;stroke:none;stroke-width:0.565;stroke-miterlimit:4;stroke-dasharray:none;stroke-opacity:1"
           id="path8217"
           inkscape:connector-curvature="0" />
        <path
           d="m 100.21972,128.20555 q -1.924604,0 -2.926451,-0.87002 -1.001846,-0.89639 -1.001846,-2.50462 0,-0.60638 0.158186,-1.31822 l 0.949118,-4.40285 -1.634592,0 0.764567,-3.66465 1.634592,0 0.553653,-2.55735 5.193783,-1.1864 -0.79093,3.74375 2.87372,0 -0.94912,3.66465 -2.68917,0 -0.87002,4.03375 q -0.0791,0.34274 -0.0791,0.58002 0,0.50092 0.31638,0.68547 0.34273,0.18455 1.05457,0.18455 0.76457,0 1.6346,-0.26364 l -0.71184,3.29555 q -1.50277,0.58001 -3.4801,0.58001 z"
           style="font-style:italic;font-variant:normal;font-weight:bold;font-stretch:normal;font-size:26.36439133px;font-family:Kanit;-inkscape-font-specification:'Kanit Bold Italic';letter-spacing:0.01322917px;fill:#ffffff;fill-opacity:0.91787438;stroke:none;stroke-width:0.565;stroke-miterlimit:4;stroke-dasharray:none;stroke-opacity:1"
           id="path8219"
           inkscape:connector-curvature="0" />
        <path
           d="m 110.19498,110.19867 5.35197,0 -0.76457,3.58556 -5.35197,0 0.76457,-3.58556 z m -1.50277,8.85844 -1.81915,0 1.1864,-3.61192 6.35382,0 -2.63644,12.49672 -4.95651,0 1.87188,-8.8848 z"
           style="font-style:italic;font-variant:normal;font-weight:bold;font-stretch:normal;font-size:26.36439133px;font-family:Kanit;-inkscape-font-specification:'Kanit Bold Italic';letter-spacing:0.01322917px;fill:#ffffff;fill-opacity:0.91787438;stroke:none;stroke-width:0.565;stroke-miterlimit:4;stroke-dasharray:none;stroke-opacity:1"
           id="path8221"
           inkscape:connector-curvature="0" />
        <path
           d="m 118.97849,128.20555 q -1.5555,0 -2.92645,-0.23728 -1.37095,-0.21091 -2.13552,-0.55365 l 0.73821,-3.55919 q 0.81729,0.42183 2.00369,0.65911 1.21276,0.23728 2.18825,0.23728 1.16003,0 1.55549,-0.0527 0.39547,-0.0791 0.47456,-0.44819 0.0791,-0.29001 -0.26364,-0.47456 -0.34274,-0.18455 -1.26549,-0.47456 l -1.23913,-0.42183 q -1.37095,-0.52729 -2.03006,-1.21277 -0.65911,-0.68547 -0.65911,-1.71368 0,-0.4482 0.10546,-0.87003 0.39547,-1.95096 2.05642,-2.92644 1.66096,-0.97549 4.87742,-0.97549 1.16003,0 2.42552,0.18456 1.26549,0.18455 1.97733,0.42183 l -0.7382,3.4801 q -0.68548,-0.31638 -1.58187,-0.47456 -0.89639,-0.18455 -1.68732,-0.18455 -1.05457,0 -1.63459,0.10545 -0.58002,0.0791 -0.65911,0.42183 -0.0527,0.29001 0.26365,0.4482 0.31637,0.15818 1.16003,0.39546 l 1.1073,0.34274 q 1.58187,0.50092 2.26734,1.21276 0.71184,0.68548 0.71184,1.68732 0,0.39547 -0.13182,1.00185 -0.42183,1.97733 -2.08279,2.97918 -1.66096,1.00184 -4.87741,1.00184 z"
           style="font-style:italic;font-variant:normal;font-weight:bold;font-stretch:normal;font-size:26.36439133px;font-family:Kanit;-inkscape-font-specification:'Kanit Bold Italic';letter-spacing:0.01322917px;fill:#ffffff;fill-opacity:0.91787438;stroke:none;stroke-width:0.565;stroke-miterlimit:4;stroke-dasharray:none;stroke-opacity:1"
           id="path8223"
           inkscape:connector-curvature="0" />
        <path
           d="m 131.87608,128.20555 q -1.9246,0 -2.92645,-0.87002 -1.00185,-0.89639 -1.00185,-2.50462 0,-0.60638 0.15819,-1.31822 l 0.94912,-4.40285 -1.63459,0 0.76456,-3.66465 1.63459,0 0.55366,-2.55735 5.19378,-1.1864 -0.79093,3.74375 2.87372,0 -0.94912,3.66465 -2.68917,0 -0.87002,4.03375 q -0.0791,0.34274 -0.0791,0.58002 0,0.50092 0.31637,0.68547 0.34273,0.18455 1.05457,0.18455 0.76457,0 1.6346,-0.26364 l -0.71184,3.29555 q -1.50277,0.58001 -3.4801,0.58001 z"
           style="font-style:italic;font-variant:normal;font-weight:bold;font-stretch:normal;font-size:26.36439133px;font-family:Kanit;-inkscape-font-specification:'Kanit Bold Italic';letter-spacing:0.01322917px;fill:#ffffff;fill-opacity:0.91787438;stroke:none;stroke-width:0.565;stroke-miterlimit:4;stroke-dasharray:none;stroke-opacity:1"
           id="path8225"
           inkscape:connector-curvature="0" />
        <path
           d="m 141.85134,110.19867 5.35197,0 -0.76457,3.58556 -5.35197,0 0.76457,-3.58556 z m -1.50277,8.85844 -1.81915,0 1.1864,-3.61192 6.35382,0 -2.63644,12.49672 -4.95651,0 1.87188,-8.8848 z"
           style="font-style:italic;font-variant:normal;font-weight:bold;font-stretch:normal;font-size:26.36439133px;font-family:Kanit;-inkscape-font-specification:'Kanit Bold Italic';letter-spacing:0.01322917px;fill:#ffffff;fill-opacity:0.91787438;stroke:none;stroke-width:0.565;stroke-miterlimit:4;stroke-dasharray:none;stroke-opacity:1"
           id="path8227"
           inkscape:connector-curvature="0" />
        <path
           d="m 152.58581,128.20555 q -2.76826,0 -4.45558,-1.26549 -1.68732,-1.26549 -1.68732,-3.66465 0,-0.76456 0.18455,-1.58186 1.39731,-6.51201 8.75298,-6.51201 1.42368,0 2.47825,0.21092 1.05458,0.18455 1.95097,0.65911 l -0.73821,3.4801 q -1.39731,-0.7382 -3.37464,-0.7382 -1.74005,0 -2.71553,0.65911 -0.97548,0.65911 -1.29186,2.24097 -0.10545,0.44819 -0.10545,0.94912 0,1.02821 0.68547,1.50277 0.71184,0.44819 2.18824,0.44819 1.87188,0 3.77011,-0.87002 l -0.79093,3.63828 q -2.05642,0.84366 -4.85105,0.84366 z"
           style="letter-spacing:0.079375px;fill:#ffffff;fill-opacity:0.91787438;stroke:none;stroke-width:0.565;stroke-miterlimit:4;stroke-dasharray:none;stroke-opacity:1"
           id="path8229"
           inkscape:connector-curvature="0" />
        <path
           d="m 164.05089,128.20555 q -1.55549,0 -2.92644,-0.23728 -1.37095,-0.21091 -2.13552,-0.55365 l 0.7382,-3.55919 q 0.8173,0.42183 2.0037,0.65911 1.21276,0.23728 2.18824,0.23728 1.16004,0 1.5555,-0.0527 0.39547,-0.0791 0.47456,-0.44819 0.0791,-0.29001 -0.26364,-0.47456 -0.34274,-0.18455 -1.26549,-0.47456 l -1.23913,-0.42183 q -1.37095,-0.52729 -2.03006,-1.21277 -0.65911,-0.68547 -0.65911,-1.71368 0,-0.4482 0.10546,-0.87003 0.39546,-1.95096 2.05642,-2.92644 1.66096,-0.97549 4.87741,-0.97549 1.16004,0 2.42553,0.18456 1.26549,0.18455 1.97733,0.42183 l -0.73821,3.4801 q -0.68547,-0.31638 -1.58186,-0.47456 -0.89639,-0.18455 -1.68732,-0.18455 -1.05458,0 -1.63459,0.10545 -0.58002,0.0791 -0.65911,0.42183 -0.0527,0.29001 0.26364,0.4482 0.31637,0.15818 1.16003,0.39546 l 1.10731,0.34274 q 1.58186,0.50092 2.26734,1.21276 0.71184,0.68548 0.71184,1.68732 0,0.39547 -0.13183,1.00185 -0.42183,1.97733 -2.08278,2.97918 -1.66096,1.00184 -4.87742,1.00184 z"
           style="font-style:italic;font-variant:normal;font-weight:bold;font-stretch:normal;font-size:26.36439133px;font-family:Kanit;-inkscape-font-specification:'Kanit Bold Italic';letter-spacing:0.01322917px;fill:#ffffff;fill-opacity:0.91787438;stroke:none;stroke-width:0.565;stroke-miterlimit:4;stroke-dasharray:none;stroke-opacity:1"
           id="path8231"
           inkscape:connector-curvature="0" />
      </g>
      <g
         transform="matrix(0.64674255,0,0,0.61586446,0.0742885,157.15288)"
         id="g8785"
         aria-label="n"
         style="font-style:normal;font-weight:normal;font-size:6.90818119px;line-height:125%;font-family:sans-serif;letter-spacing:0px;word-spacing:0px;fill:#ffffff;fill-opacity:0.75845409;stroke:none;stroke-width:0.25818995px;stroke-linecap:butt;stroke-linejoin:miter;stroke-opacity:1">
        <path
           sodipodi:nodetypes="ccscccccccscccccccccsscccsccccccccccccccccsscccccccccccscccc"
           inkscape:connector-curvature="0"
           id="path8787"
           style="font-style:normal;font-variant:normal;font-weight:normal;font-stretch:normal;font-size:31.08681679px;font-family:Satisfy;-inkscape-font-specification:Satisfy;fill:#ffffff;fill-opacity:0.75845409;stroke:none;stroke-width:0.25818995px;stroke-opacity:1"
           d="m 48.150291,127.90398 c -0.465493,0 -0.870269,-0.0911 -1.214329,-0.27323 -0.323821,-0.16191 -0.586925,-0.38453 -0.789314,-0.66788 -0.202388,-0.28334 -0.33394,-0.60716 -0.394656,-0.97146 -0.06072,-0.38454 -0.04048,-0.78932 0.06072,-1.21433 0.06071,-0.28335 0.161907,-0.65777 0.303582,-1.12326 0.141672,-0.48573 0.283344,-1.00181 0.425015,-1.54826 0.161911,-0.56669 0.303582,-1.12326 0.425015,-1.66971 0.141672,-0.56669 0.232747,-1.07266 0.273224,-1.51791 0.04048,-0.46549 0.02024,-0.83991 -0.06072,-1.12325 -0.08096,-0.30359 -0.252985,-0.45538 -0.51609,-0.45538 -0.323821,0 -0.657761,0.11132 -1.001821,0.33395 -0.34406,0.20239 -0.698239,0.48573 -1.062538,0.85003 -0.34406,0.36429 -0.698239,0.78931 -1.062537,1.27504 -0.34406,0.46549 -0.68812,0.95122 -1.03218,1.45719 -0.182149,0.68812 -0.33394,1.29529 -0.455373,1.8215 l -0.333941,1.39648 c -0.08096,0.40477 -0.16191,0.76907 -0.242865,1.09289 -0.08095,0.30359 -0.151791,0.59705 -0.212508,0.88039 -0.06071,0.20239 -0.242863,0.40477 -0.546448,0.60716 -0.303582,0.18215 -0.627403,0.33395 -0.971463,0.45538 -0.34406,0.12143 -0.637523,0.18215 -0.880388,0.18215 -0.263105,0 -0.374418,-0.0911 -0.333941,-0.27323 0.02024,-0.12143 0.09108,-0.39466 0.212508,-0.81967 0.101194,-0.42501 0.232746,-0.92086 0.394657,-1.48755 0.141671,-0.58693 0.293462,-1.20421 0.455373,-1.85185 0.161911,-0.64765 0.313702,-1.26493 0.455373,-1.85185 0.101194,-0.46549 0.212508,-0.98158 0.333941,-1.54827 0.101194,-0.48573 0.222627,-1.05242 0.364298,-1.70006 0.161911,-0.64765 0.34406,-1.35601 0.546448,-2.12508 0.141672,-0.12143 0.283344,-0.21251 0.425015,-0.27322 0.161911,-0.081 0.323821,-0.14168 0.485732,-0.18215 0.161911,-0.0607 0.333941,-0.10121 0.51609,-0.12143 0.16191,0 0.32382,0.0101 0.485731,0.0303 0.141672,0.0203 0.283344,0.0607 0.425015,0.12144 0.161911,0.0405 0.303582,0.1113 0.425015,0.2125 -0.06071,0.14167 -0.131549,0.34406 -0.212507,0.60717 -0.08096,0.24287 -0.161911,0.50597 -0.242866,0.78931 -0.08096,0.32382 -0.182149,0.65776 -0.303582,1.00182 0.263105,-0.36429 0.556567,-0.72859 0.880388,-1.09289 0.34406,-0.38454 0.708359,-0.7286 1.092896,-1.03218 0.404776,-0.30359 0.829791,-0.54645 1.275045,-0.7286 0.445254,-0.20239 0.900627,-0.30358 1.36612,-0.30358 0.384537,0 0.728597,0.11131 1.03218,0.33394 0.303582,0.22263 0.536328,0.53633 0.698239,0.9411 0.182149,0.38454 0.283343,0.85003 0.303582,1.39648 0.04048,0.54645 -0.03036,1.14349 -0.212508,1.79114 l -0.33394,1.33576 c -0.101194,0.42501 -0.232746,0.93098 -0.394657,1.51791 -0.141672,0.56669 -0.323821,1.19409 -0.546448,1.88221 -0.121433,0.44525 -0.17203,0.82979 -0.151791,1.15361 0.04048,0.32382 0.242868,0.48573 0.607164,0.48573 1.025036,-0.27482 2.021362,-0.99196 2.563599,-1.83199 0.182149,-0.2631 0.354178,-0.43513 0.516089,-0.51609 0.161911,-0.081 0.283344,-0.0911 0.364299,-0.0304 0.101194,0.0607 0.151791,0.2024 0.151791,0.42502 0,0.20238 -0.08095,0.46549 -0.242866,0.78931 -0.673814,1.24778 -1.526248,2.11712 -2.715389,2.74274 -0.485731,0.28335 -0.951224,0.42502 -1.396478,0.42502 z" />
      </g>
      <g
         transform="matrix(0.72669432,0,0,0.79530577,0.37264035,52.783623)"
         style="font-style:normal;font-variant:normal;font-weight:normal;font-stretch:normal;font-size:16.28330231px;line-height:125%;font-family:Arial;-inkscape-font-specification:Arial;letter-spacing:0px;word-spacing:0px;fill:#006c35;fill-opacity:1;stroke:none;stroke-width:0.24259055px;stroke-linecap:butt;stroke-linejoin:miter;stroke-opacity:1"
         aria-label="messen &gt;&gt; verarbeiten &gt;&gt; visualisieren"
         id="flowRoot8789">
        <path
           d="m 10.741354,249.95657 q 1.159329,0 1.38696,1.20697 l 0.03176,0 q 0.359975,-0.58231 0.846999,-0.89464 0.492318,-0.31233 1.04816,-0.31233 0.719949,0 1.095804,0.44996 0.38115,0.44997 0.38115,1.25462 0,0.40232 -0.121756,0.95287 l -0.704068,3.37212 -1.593415,0 0.730536,-3.45682 q 0.0847,-0.35997 0.0847,-0.62995 0,-0.65113 -0.518786,-0.65113 -0.487024,0 -0.884055,0.5929 -0.391736,0.5929 -0.624661,1.68341 l -0.508199,2.46159 -1.5934157,0 0.7252427,-3.45682 q 0.0847,-0.35997 0.0847,-0.62995 0,-0.65113 -0.518787,-0.65113 -0.4870241,0 -0.8840546,0.60348 -0.3970305,0.60349 -0.6246613,1.68341 l -0.5187865,2.45101 -1.5934157,0 1.2546163,-5.91841 1.2175602,0 -0.1111685,1.09581 0.031762,0 q 0.7728861,-1.20697 1.8792781,-1.20697 z"
           style="font-style:italic;font-variant:normal;font-weight:bold;font-stretch:normal;font-size:10.84157944px;font-family:'Open Sans';-inkscape-font-specification:'Open Sans Bold Italic';letter-spacing:0px;fill:#006c35;fill-opacity:1;stroke-width:0.24259055px"
           id="path9562"
           inkscape:connector-curvature="0" />
        <path
           d="m 19.761887,251.10531 q -0.465849,0 -0.878761,0.4235 -0.412911,0.4235 -0.539961,1.03228 l 0.238218,0 q 0.82053,0 1.275791,-0.2541 0.460556,-0.2594 0.460556,-0.69878 0,-0.5029 -0.555843,-0.5029 z m -0.868173,4.9867 q -1.111686,0 -1.725759,-0.59819 -0.614074,-0.59819 -0.614074,-1.68871 0,-1.0958 0.434086,-1.99574 0.439381,-0.90522 1.185798,-1.37637 0.746417,-0.47643 1.688703,-0.47643 0.936992,0 1.461072,0.43408 0.524081,0.4288 0.524081,1.18051 0,0.98993 -0.884055,1.52989 -0.884055,0.53467 -2.525114,0.53467 l -0.269981,0 -0.01059,0.11116 0,0.10588 q 0,0.48173 0.269981,0.7623 0.275274,0.27527 0.783473,0.27527 0.460556,0 0.836411,-0.10058 0.375856,-0.10058 0.910523,-0.35468 l 0,1.20168 q -0.910523,0.45526 -2.064558,0.45526 z"
           style="font-style:italic;font-variant:normal;font-weight:bold;font-stretch:normal;font-size:10.84157944px;font-family:'Open Sans';-inkscape-font-specification:'Open Sans Bold Italic';letter-spacing:0px;fill:#006c35;fill-opacity:1;stroke-width:0.24259055px"
           id="path9564"
           inkscape:connector-curvature="0" />
        <path
           d="m 26.500818,254.03275 q 0,0.99522 -0.661718,1.52989 -0.656423,0.52937 -1.831634,0.52937 -0.56643,0 -0.989929,-0.0794 -0.418205,-0.0794 -0.783473,-0.26468 l 0,-1.31285 q 0.831117,0.47644 1.688703,0.47644 0.423499,0 0.69348,-0.1694 0.26998,-0.1747 0.26998,-0.47115 0,-0.22763 -0.195868,-0.40761 -0.195868,-0.17999 -0.69348,-0.45527 -0.640543,-0.35997 -0.894642,-0.71465 -0.2541,-0.35997 -0.2541,-0.847 0,-0.89993 0.582312,-1.39225 0.587605,-0.49761 1.672822,-0.49761 1.064041,0 1.921627,0.5029 l -0.52408,1.13816 q -0.741124,-0.44468 -1.365785,-0.44468 -0.301743,0 -0.487024,0.13764 -0.185281,0.13234 -0.185281,0.35997 0,0.20646 0.1694,0.36527 0.169399,0.15352 0.635249,0.39174 0.65113,0.3335 0.942285,0.72524 0.291156,0.39174 0.291156,0.89994 z"
           style="font-style:italic;font-variant:normal;font-weight:bold;font-stretch:normal;font-size:10.84157944px;font-family:'Open Sans';-inkscape-font-specification:'Open Sans Bold Italic';letter-spacing:0px;fill:#006c35;fill-opacity:1;stroke-width:0.24259055px"
           id="path9566"
           inkscape:connector-curvature="0" />
        <path
           d="m 31.625159,254.03275 q 0,0.99522 -0.661718,1.52989 -0.656423,0.52937 -1.831634,0.52937 -0.56643,0 -0.989929,-0.0794 -0.418205,-0.0794 -0.783473,-0.26468 l 0,-1.31285 q 0.831117,0.47644 1.688703,0.47644 0.423499,0 0.69348,-0.1694 0.26998,-0.1747 0.26998,-0.47115 0,-0.22763 -0.195868,-0.40761 -0.195868,-0.17999 -0.69348,-0.45527 -0.640543,-0.35997 -0.894642,-0.71465 -0.2541,-0.35997 -0.2541,-0.847 0,-0.89993 0.582312,-1.39225 0.587605,-0.49761 1.672822,-0.49761 1.064041,0 1.921627,0.5029 l -0.52408,1.13816 q -0.741124,-0.44468 -1.365785,-0.44468 -0.301743,0 -0.487024,0.13764 -0.185281,0.13234 -0.185281,0.35997 0,0.20646 0.1694,0.36527 0.169399,0.15352 0.635249,0.39174 0.65113,0.3335 0.942285,0.72524 0.291156,0.39174 0.291156,0.89994 z"
           style="font-style:italic;font-variant:normal;font-weight:bold;font-stretch:normal;font-size:10.84157944px;font-family:'Open Sans';-inkscape-font-specification:'Open Sans Bold Italic';letter-spacing:0px;fill:#006c35;fill-opacity:1;stroke-width:0.24259055px"
           id="path9568"
           inkscape:connector-curvature="0" />
        <path
           d="m 36.045432,251.10531 q -0.465849,0 -0.878761,0.4235 -0.412912,0.4235 -0.539962,1.03228 l 0.238219,0 q 0.820529,0 1.275791,-0.2541 0.460555,-0.2594 0.460555,-0.69878 0,-0.5029 -0.555842,-0.5029 z m -0.868174,4.9867 q -1.111685,0 -1.725759,-0.59819 -0.614074,-0.59819 -0.614074,-1.68871 0,-1.0958 0.434087,-1.99574 0.43938,-0.90522 1.185798,-1.37637 0.746417,-0.47643 1.688703,-0.47643 0.936992,0 1.461072,0.43408 0.52408,0.4288 0.52408,1.18051 0,0.98993 -0.884054,1.52989 -0.884055,0.53467 -2.525114,0.53467 l -0.269981,0 -0.01059,0.11116 0,0.10588 q 0,0.48173 0.269981,0.7623 0.275275,0.27527 0.783474,0.27527 0.460555,0 0.836411,-0.10058 0.375855,-0.10058 0.910523,-0.35468 l 0,1.20168 q -0.910523,0.45526 -2.064559,0.45526 z"
           style="font-style:italic;font-variant:normal;font-weight:bold;font-stretch:normal;font-size:10.84157944px;font-family:'Open Sans';-inkscape-font-specification:'Open Sans Bold Italic';letter-spacing:0px;fill:#006c35;fill-opacity:1;stroke-width:0.24259055px"
           id="path9570"
           inkscape:connector-curvature="0" />
        <path
           d="m 43.567835,255.98614 -1.593416,0 0.725243,-3.45682 q 0.0847,-0.35997 0.0847,-0.62995 0,-0.65113 -0.571724,-0.65113 -0.487024,0 -0.884055,0.60348 -0.39703,0.60349 -0.624661,1.68341 l -0.518787,2.45101 -1.593415,0 1.254616,-5.91841 1.21756,0 -0.111168,1.09581 0.03176,0 q 0.772886,-1.20697 1.879278,-1.20697 0.730536,0 1.127566,0.44467 0.402325,0.43938 0.402325,1.25991 0,0.38644 -0.121757,0.95287 l -0.704067,3.37212 z"
           style="font-style:italic;font-variant:normal;font-weight:bold;font-stretch:normal;font-size:10.84157944px;font-family:'Open Sans';-inkscape-font-specification:'Open Sans Bold Italic';letter-spacing:0px;fill:#006c35;fill-opacity:1;stroke-width:0.24259055px"
           id="path9572"
           inkscape:connector-curvature="0" />
        <path
           d="m 48.332202,253.6463 3.403875,-1.48754 -3.403875,-1.67811 0,-1.2705 5.03964,2.62569 0,0.75701 -5.03964,2.31866 0,-1.26521 z"
           style="font-style:italic;font-variant:normal;font-weight:bold;font-stretch:normal;font-size:10.84157944px;font-family:'Open Sans';-inkscape-font-specification:'Open Sans Bold Italic';letter-spacing:0px;fill:#006c35;fill-opacity:1;stroke-width:0.24259055px"
           id="path9574"
           inkscape:connector-curvature="0" />
        <path
           d="m 54.303538,253.6463 3.403875,-1.48754 -3.403875,-1.67811 0,-1.2705 5.039641,2.62569 0,0.75701 -5.039641,2.31866 0,-1.26521 z"
           style="font-style:italic;font-variant:normal;font-weight:bold;font-stretch:normal;font-size:10.84157944px;font-family:'Open Sans';-inkscape-font-specification:'Open Sans Bold Italic';letter-spacing:0px;fill:#006c35;fill-opacity:1;stroke-width:0.24259055px"
           id="path9576"
           inkscape:connector-curvature="0" />
        <path
           d="m 64.922781,254.39272 q 0.291156,-0.80994 0.487024,-1.1805 l 1.572241,-3.14449 1.709878,0 -3.197419,5.91841 -1.709878,0 -0.730536,-5.91841 1.561653,0 0.238219,3.10214 q 0.03706,0.70406 0.03706,1.22285 l 0.03176,0 z"
           style="font-style:italic;font-variant:normal;font-weight:bold;font-stretch:normal;font-size:10.84157944px;font-family:'Open Sans';-inkscape-font-specification:'Open Sans Bold Italic';letter-spacing:0px;fill:#006c35;fill-opacity:1;stroke-width:0.24259055px"
           id="path9578"
           inkscape:connector-curvature="0" />
        <path
           d="m 71.746413,251.10531 q -0.465849,0 -0.878761,0.4235 -0.412912,0.4235 -0.539962,1.03228 l 0.238219,0 q 0.820529,0 1.275791,-0.2541 0.460555,-0.2594 0.460555,-0.69878 0,-0.5029 -0.555842,-0.5029 z m -0.868174,4.9867 q -1.111685,0 -1.725759,-0.59819 -0.614074,-0.59819 -0.614074,-1.68871 0,-1.0958 0.434087,-1.99574 0.43938,-0.90522 1.185798,-1.37637 0.746417,-0.47643 1.688703,-0.47643 0.936992,0 1.461072,0.43408 0.52408,0.4288 0.52408,1.18051 0,0.98993 -0.884054,1.52989 -0.884055,0.53467 -2.525114,0.53467 l -0.269981,0 -0.01059,0.11116 0,0.10588 q 0,0.48173 0.26998,0.7623 0.275275,0.27527 0.783474,0.27527 0.460555,0 0.836411,-0.10058 0.375855,-0.10058 0.910523,-0.35468 l 0,1.20168 q -0.910523,0.45526 -2.064559,0.45526 z"
           style="font-style:italic;font-variant:normal;font-weight:bold;font-stretch:normal;font-size:10.84157944px;font-family:'Open Sans';-inkscape-font-specification:'Open Sans Bold Italic';letter-spacing:0px;fill:#006c35;fill-opacity:1;stroke-width:0.24259055px"
           id="path9580"
           inkscape:connector-curvature="0" />
        <path
           d="m 78.554161,249.95657 q 0.312331,0 0.508199,0.0582 l -0.349386,1.53518 q -0.238219,-0.0847 -0.529374,-0.0847 -0.614074,0 -1.079923,0.48703 -0.460556,0.48173 -0.656424,1.38696 l -0.561137,2.64687 -1.593415,0 1.254616,-5.91841 1.21756,0 -0.111168,1.09581 0.03176,0 q 0.77818,-1.20697 1.86869,-1.20697 z"
           style="font-style:italic;font-variant:normal;font-weight:bold;font-stretch:normal;font-size:10.84157944px;font-family:'Open Sans';-inkscape-font-specification:'Open Sans Bold Italic';letter-spacing:0px;fill:#006c35;fill-opacity:1;stroke-width:0.24259055px"
           id="path9582"
           inkscape:connector-curvature="0" />
        <path
           d="m 80.819882,256.09201 q -0.77818,0 -1.228147,-0.56114 -0.444675,-0.56643 -0.444675,-1.58282 0,-1.04816 0.38115,-1.99574 0.381149,-0.95288 1.000517,-1.47166 0.619367,-0.52408 1.360491,-0.52408 0.513492,0 0.884054,0.22233 0.375856,0.22234 0.582312,0.64584 l 0.04235,0 0.301743,-0.75701 1.228147,0 -1.25991,5.91841 -1.212266,0 0.07411,-0.7676 -0.02117,0 q -0.709361,0.87347 -1.688703,0.87347 z m 0.624662,-1.28638 q 0.365268,0 0.704067,-0.35468 0.338799,-0.35468 0.545255,-0.95817 0.206456,-0.60878 0.206456,-1.37637 0,-0.37585 -0.206456,-0.61937 -0.201162,-0.2488 -0.534668,-0.2488 -0.359974,0 -0.688186,0.38115 -0.322918,0.38115 -0.518786,1.00581 -0.190575,0.62466 -0.190575,1.23873 0,0.46585 0.174693,0.69878 0.179988,0.23292 0.5082,0.23292 z"
           style="font-style:italic;font-variant:normal;font-weight:bold;font-stretch:normal;font-size:10.84157944px;font-family:'Open Sans';-inkscape-font-specification:'Open Sans Bold Italic';letter-spacing:0px;fill:#006c35;fill-opacity:1;stroke-width:0.24259055px"
           id="path9584"
           inkscape:connector-curvature="0" />
        <path
           d="m 89.56514,249.95657 q 0.312331,0 0.508199,0.0582 l -0.349387,1.53518 q -0.238218,-0.0847 -0.529374,-0.0847 -0.614074,0 -1.079923,0.48703 -0.460555,0.48173 -0.656423,1.38696 l -0.561137,2.64687 -1.593416,0 1.254617,-5.91841 1.21756,0 -0.111169,1.09581 0.03176,0 q 0.77818,-1.20697 1.86869,-1.20697 z"
           style="font-style:italic;font-variant:normal;font-weight:bold;font-stretch:normal;font-size:10.84157944px;font-family:'Open Sans';-inkscape-font-specification:'Open Sans Bold Italic';letter-spacing:0px;fill:#006c35;fill-opacity:1;stroke-width:0.24259055px"
           id="path9586"
           inkscape:connector-curvature="0" />
        <path
           d="m 93.985413,249.95657 q 0.772886,0 1.21756,0.57172 0.449968,0.57172 0.449968,1.57753 0,1.00581 -0.359974,1.9481 -0.359974,0.93699 -0.98993,1.48754 -0.629955,0.55055 -1.392253,0.55055 -1.026986,0 -1.461072,-0.86288 l -0.04235,0 -0.307037,0.75701 -1.222854,0 1.746934,-8.23706 1.593416,0 -0.328212,1.52459 q -0.217043,0.96346 -0.444674,1.58283 l 0.04235,0 q 0.412911,-0.51878 0.751711,-0.70936 0.344093,-0.19057 0.746417,-0.19057 z m -0.640542,1.29167 q -0.359975,0 -0.688187,0.34409 -0.328212,0.34409 -0.539961,0.95817 -0.21175,0.60878 -0.21175,1.32343 0,0.4235 0.195869,0.6776 0.195868,0.2541 0.539961,0.2541 0.354681,0 0.677599,-0.36527 0.322918,-0.36526 0.518786,-1.00051 0.201162,-0.64055 0.201162,-1.25991 0,-0.9317 -0.693479,-0.9317 z"
           style="font-style:italic;font-variant:normal;font-weight:bold;font-stretch:normal;font-size:10.84157944px;font-family:'Open Sans';-inkscape-font-specification:'Open Sans Bold Italic';letter-spacing:0px;fill:#006c35;fill-opacity:1;stroke-width:0.24259055px"
           id="path9588"
           inkscape:connector-curvature="0" />
        <path
           d="m 99.824412,251.10531 q -0.465849,0 -0.878761,0.4235 -0.412912,0.4235 -0.539961,1.03228 l 0.238218,0 q 0.82053,0 1.275791,-0.2541 0.460551,-0.2594 0.460551,-0.69878 0,-0.5029 -0.555838,-0.5029 z m -0.868173,4.9867 q -1.111686,0 -1.72576,-0.59819 -0.614074,-0.59819 -0.614074,-1.68871 0,-1.0958 0.434087,-1.99574 0.439381,-0.90522 1.185798,-1.37637 0.746417,-0.47643 1.688703,-0.47643 0.936987,0 1.461077,0.43408 0.52408,0.4288 0.52408,1.18051 0,0.98993 -0.88406,1.52989 -0.88405,0.53467 -2.525113,0.53467 l -0.269981,0 -0.01059,0.11116 0,0.10588 q 0,0.48173 0.26998,0.7623 0.275275,0.27527 0.783474,0.27527 0.460555,0 0.83641,-0.10058 0.37586,-0.10058 0.91053,-0.35468 l 0,1.20168 q -0.91053,0.45526 -2.064564,0.45526 z"
           style="font-style:italic;font-variant:normal;font-weight:bold;font-stretch:normal;font-size:10.84157944px;font-family:'Open Sans';-inkscape-font-specification:'Open Sans Bold Italic';letter-spacing:0px;fill:#006c35;fill-opacity:1;stroke-width:0.24259055px"
           id="path9590"
           inkscape:connector-curvature="0" />
        <path
           d="m 103.87941,248.68077 q 0,-0.46055 0.24881,-0.69348 0.2541,-0.23821 0.71465,-0.23821 0.38645,0 0.58761,0.1641 0.20116,0.16411 0.20116,0.47115 0,0.42349 -0.23292,0.68818 -0.23293,0.25939 -0.71995,0.25939 -0.79936,0 -0.79936,-0.65113 z m 0.0847,7.30537 -1.59341,0 1.25461,-5.91841 1.59342,0 -1.25462,5.91841 z"
           style="font-style:italic;font-variant:normal;font-weight:bold;font-stretch:normal;font-size:10.84157944px;font-family:'Open Sans';-inkscape-font-specification:'Open Sans Bold Italic';letter-spacing:0px;fill:#006c35;fill-opacity:1;stroke-width:0.24259055px"
           id="path9592"
           inkscape:connector-curvature="0" />
        <path
           d="m 108.11441,254.80563 q 0.34409,0 0.85758,-0.18528 l 0,1.19109 q -0.5876,0.28057 -1.40813,0.28057 -0.79406,0 -1.16992,-0.33351 -0.37056,-0.3335 -0.37056,-1.03227 0,-0.26469 0.0635,-0.5929 l 0.60879,-2.85333 -0.80465,0 0.15352,-0.77818 1.03757,-0.44467 0.69877,-1.24933 1.02699,0 -0.2594,1.25991 1.49813,0 -0.26468,1.21227 -1.49284,0 -0.60878,2.85333 q -0.0318,0.15881 -0.0318,0.28056 0,0.39174 0.46585,0.39174 z"
           style="font-style:italic;font-variant:normal;font-weight:bold;font-stretch:normal;font-size:10.84157944px;font-family:'Open Sans';-inkscape-font-specification:'Open Sans Bold Italic';letter-spacing:0px;fill:#006c35;fill-opacity:1;stroke-width:0.24259055px"
           id="path9594"
           inkscape:connector-curvature="0" />
        <path
           d="m 113.52461,251.10531 q -0.46585,0 -0.87876,0.4235 -0.41292,0.4235 -0.53997,1.03228 l 0.23822,0 q 0.82053,0 1.27579,-0.2541 0.46056,-0.2594 0.46056,-0.69878 0,-0.5029 -0.55584,-0.5029 z m -0.86818,4.9867 q -1.11168,0 -1.72576,-0.59819 -0.61407,-0.59819 -0.61407,-1.68871 0,-1.0958 0.43409,-1.99574 0.43938,-0.90522 1.1858,-1.37637 0.74641,-0.47643 1.6887,-0.47643 0.93699,0 1.46107,0.43408 0.52408,0.4288 0.52408,1.18051 0,0.98993 -0.88405,1.52989 -0.88406,0.53467 -2.52512,0.53467 l -0.26998,0 -0.0106,0.11116 0,0.10588 q 0,0.48173 0.26998,0.7623 0.27528,0.27527 0.78348,0.27527 0.46055,0 0.83641,-0.10058 0.37585,-0.10058 0.91052,-0.35468 l 0,1.20168 q -0.91052,0.45526 -2.06456,0.45526 z"
           style="font-style:italic;font-variant:normal;font-weight:bold;font-stretch:normal;font-size:10.84157944px;font-family:'Open Sans';-inkscape-font-specification:'Open Sans Bold Italic';letter-spacing:0px;fill:#006c35;fill-opacity:1;stroke-width:0.24259055px"
           id="path9596"
           inkscape:connector-curvature="0" />
        <path
           d="m 121.04701,255.98614 -1.59341,0 0.72524,-3.45682 q 0.0847,-0.35997 0.0847,-0.62995 0,-0.65113 -0.57172,-0.65113 -0.48703,0 -0.88406,0.60348 -0.39703,0.60349 -0.62466,1.68341 l -0.51879,2.45101 -1.59341,0 1.25462,-5.91841 1.21756,0 -0.11117,1.09581 0.0318,0 q 0.77289,-1.20697 1.87928,-1.20697 0.73053,0 1.12756,0.44467 0.40233,0.43938 0.40233,1.25991 0,0.38644 -0.12176,0.95287 l -0.70407,3.37212 z"
           style="font-style:italic;font-variant:normal;font-weight:bold;font-stretch:normal;font-size:10.84157944px;font-family:'Open Sans';-inkscape-font-specification:'Open Sans Bold Italic';letter-spacing:0px;fill:#006c35;fill-opacity:1;stroke-width:0.24259055px"
           id="path9598"
           inkscape:connector-curvature="0" />
        <path
           d="m 125.81138,253.6463 3.40387,-1.48754 -3.40387,-1.67811 0,-1.2705 5.03964,2.62569 0,0.75701 -5.03964,2.31866 0,-1.26521 z"
           style="font-style:italic;font-variant:normal;font-weight:bold;font-stretch:normal;font-size:10.84157944px;font-family:'Open Sans';-inkscape-font-specification:'Open Sans Bold Italic';letter-spacing:0px;fill:#006c35;fill-opacity:1;stroke-width:0.24259055px"
           id="path9600"
           inkscape:connector-curvature="0" />
        <path
           d="m 131.78272,253.6463 3.40388,-1.48754 -3.40388,-1.67811 0,-1.2705 5.03964,2.62569 0,0.75701 -5.03964,2.31866 0,-1.26521 z"
           style="font-style:italic;font-variant:normal;font-weight:bold;font-stretch:normal;font-size:10.84157944px;font-family:'Open Sans';-inkscape-font-specification:'Open Sans Bold Italic';letter-spacing:0px;fill:#006c35;fill-opacity:1;stroke-width:0.24259055px"
           id="path9602"
           inkscape:connector-curvature="0" />
        <path
           d="m 142.40195,254.39272 q 0.29116,-0.80994 0.48703,-1.1805 l 1.57224,-3.14449 1.70988,0 -3.19742,5.91841 -1.70988,0 -0.73054,-5.91841 1.56166,0 0.23821,3.10214 q 0.0371,0.70406 0.0371,1.22285 l 0.0318,0 z"
           style="font-style:italic;font-variant:normal;font-weight:bold;font-stretch:normal;font-size:10.84157944px;font-family:'Open Sans';-inkscape-font-specification:'Open Sans Bold Italic';letter-spacing:0px;fill:#006c35;fill-opacity:1;stroke-width:0.24259055px"
           id="path9604"
           inkscape:connector-curvature="0" />
        <path
           d="m 147.24574,248.68077 q 0,-0.46055 0.2488,-0.69348 0.2541,-0.23821 0.71466,-0.23821 0.38644,0 0.5876,0.1641 0.20117,0.16411 0.20117,0.47115 0,0.42349 -0.23293,0.68818 -0.23292,0.25939 -0.71995,0.25939 -0.79935,0 -0.79935,-0.65113 z m 0.0847,7.30537 -1.59342,0 1.25462,-5.91841 1.59341,0 -1.25461,5.91841 z"
           style="font-style:italic;font-variant:normal;font-weight:bold;font-stretch:normal;font-size:10.84157944px;font-family:'Open Sans';-inkscape-font-specification:'Open Sans Bold Italic';letter-spacing:0px;fill:#006c35;fill-opacity:1;stroke-width:0.24259055px"
           id="path9606"
           inkscape:connector-curvature="0" />
        <path
           d="m 153.14825,254.03275 q 0,0.99522 -0.66172,1.52989 -0.65643,0.52937 -1.83164,0.52937 -0.56643,0 -0.98993,-0.0794 -0.4182,-0.0794 -0.78347,-0.26468 l 0,-1.31285 q 0.83112,0.47644 1.6887,0.47644 0.4235,0 0.69348,-0.1694 0.26998,-0.1747 0.26998,-0.47115 0,-0.22763 -0.19586,-0.40761 -0.19587,-0.17999 -0.69348,-0.45527 -0.64055,-0.35997 -0.89465,-0.71465 -0.2541,-0.35997 -0.2541,-0.847 0,-0.89993 0.58232,-1.39225 0.5876,-0.49761 1.67282,-0.49761 1.06404,0 1.92163,0.5029 l -0.52408,1.13816 q -0.74113,-0.44468 -1.36579,-0.44468 -0.30174,0 -0.48702,0.13764 -0.18528,0.13234 -0.18528,0.35997 0,0.20646 0.1694,0.36527 0.1694,0.15352 0.63524,0.39174 0.65113,0.3335 0.94229,0.72524 0.29116,0.39174 0.29116,0.89994 z"
           style="font-style:italic;font-variant:normal;font-weight:bold;font-stretch:normal;font-size:10.84157944px;font-family:'Open Sans';-inkscape-font-specification:'Open Sans Bold Italic';letter-spacing:0px;fill:#006c35;fill-opacity:1;stroke-width:0.24259055px"
           id="path9608"
           inkscape:connector-curvature="0" />
        <path
           d="m 155.27104,250.06773 1.59341,0 -0.72524,3.45682 q -0.0847,0.35997 -0.0847,0.62995 0,0.65113 0.57173,0.65113 0.48702,0 0.88405,-0.60348 0.39703,-0.60349 0.62466,-1.68341 l 0.51879,-2.45101 1.59341,0 -1.25461,5.91841 -1.21756,0 0.11117,-1.09581 -0.0318,0 q -0.76759,1.20168 -1.87927,1.20168 -0.73054,0 -1.11698,-0.43409 -0.38645,-0.43938 -0.38645,-1.2652 0,-0.49232 0.12705,-1.12757 l 0.67231,-3.19742 z"
           style="font-style:italic;font-variant:normal;font-weight:bold;font-stretch:normal;font-size:10.84157944px;font-family:'Open Sans';-inkscape-font-specification:'Open Sans Bold Italic';letter-spacing:0px;fill:#006c35;fill-opacity:1;stroke-width:0.24259055px"
           id="path9610"
           inkscape:connector-curvature="0" />
        <path
           d="m 162.5764,256.09201 q -0.77818,0 -1.22815,-0.56114 -0.44467,-0.56643 -0.44467,-1.58282 0,-1.04816 0.38115,-1.99574 0.38114,-0.95288 1.00051,-1.47166 0.61937,-0.52408 1.36049,-0.52408 0.5135,0 0.88406,0.22233 0.37585,0.22234 0.58231,0.64584 l 0.0423,0 0.30174,-0.75701 1.22815,0 -1.25991,5.91841 -1.21227,0 0.0741,-0.7676 -0.0212,0 q -0.70936,0.87347 -1.6887,0.87347 z m 0.62466,-1.28638 q 0.36527,0 0.70407,-0.35468 0.3388,-0.35468 0.54525,-0.95817 0.20646,-0.60878 0.20646,-1.37637 0,-0.37585 -0.20646,-0.61937 -0.20116,-0.2488 -0.53467,-0.2488 -0.35997,0 -0.68818,0.38115 -0.32292,0.38115 -0.51879,1.00581 -0.19057,0.62466 -0.19057,1.23873 0,0.46585 0.17469,0.69878 0.17999,0.23292 0.5082,0.23292 z"
           style="font-style:italic;font-variant:normal;font-weight:bold;font-stretch:normal;font-size:10.84157944px;font-family:'Open Sans';-inkscape-font-specification:'Open Sans Bold Italic';letter-spacing:0px;fill:#006c35;fill-opacity:1;stroke-width:0.24259055px"
           id="path9612"
           inkscape:connector-curvature="0" />
        <path
           d="m 168.65362,255.98614 -1.59342,0 1.74694,-8.23706 1.59341,0 -1.74693,8.23706 z"
           style="font-style:italic;font-variant:normal;font-weight:bold;font-stretch:normal;font-size:10.84157944px;font-family:'Open Sans';-inkscape-font-specification:'Open Sans Bold Italic';letter-spacing:0px;fill:#006c35;fill-opacity:1;stroke-width:0.24259055px"
           id="path9614"
           inkscape:connector-curvature="0" />
        <path
           d="m 171.78752,248.68077 q 0,-0.46055 0.2488,-0.69348 0.2541,-0.23821 0.71466,-0.23821 0.38644,0 0.5876,0.1641 0.20116,0.16411 0.20116,0.47115 0,0.42349 -0.23292,0.68818 -0.23293,0.25939 -0.71995,0.25939 -0.79935,0 -0.79935,-0.65113 z m 0.0847,7.30537 -1.59342,0 1.25462,-5.91841 1.59341,0 -1.25461,5.91841 z"
           style="font-style:italic;font-variant:normal;font-weight:bold;font-stretch:normal;font-size:10.84157944px;font-family:'Open Sans';-inkscape-font-specification:'Open Sans Bold Italic';letter-spacing:0px;fill:#006c35;fill-opacity:1;stroke-width:0.24259055px"
           id="path9616"
           inkscape:connector-curvature="0" />
        <path
           d="m 177.69002,254.03275 q 0,0.99522 -0.66171,1.52989 -0.65643,0.52937 -1.83164,0.52937 -0.56643,0 -0.98993,-0.0794 -0.4182,-0.0794 -0.78347,-0.26468 l 0,-1.31285 q 0.83112,0.47644 1.6887,0.47644 0.4235,0 0.69348,-0.1694 0.26998,-0.1747 0.26998,-0.47115 0,-0.22763 -0.19586,-0.40761 -0.19587,-0.17999 -0.69348,-0.45527 -0.64055,-0.35997 -0.89465,-0.71465 -0.2541,-0.35997 -0.2541,-0.847 0,-0.89993 0.58231,-1.39225 0.58761,-0.49761 1.67283,-0.49761 1.06404,0 1.92162,0.5029 l -0.52408,1.13816 q -0.74112,-0.44468 -1.36578,-0.44468 -0.30174,0 -0.48702,0.13764 -0.18529,0.13234 -0.18529,0.35997 0,0.20646 0.1694,0.36527 0.1694,0.15352 0.63525,0.39174 0.65113,0.3335 0.94229,0.72524 0.29115,0.39174 0.29115,0.89994 z"
           style="font-style:italic;font-variant:normal;font-weight:bold;font-stretch:normal;font-size:10.84157944px;font-family:'Open Sans';-inkscape-font-specification:'Open Sans Bold Italic';letter-spacing:0px;fill:#006c35;fill-opacity:1;stroke-width:0.24259055px"
           id="path9618"
           inkscape:connector-curvature="0" />
        <path
           d="m 180.13044,248.68077 q 0,-0.46055 0.24881,-0.69348 0.2541,-0.23821 0.71465,-0.23821 0.38645,0 0.58761,0.1641 0.20116,0.16411 0.20116,0.47115 0,0.42349 -0.23292,0.68818 -0.23293,0.25939 -0.71995,0.25939 -0.79936,0 -0.79936,-0.65113 z m 0.0847,7.30537 -1.59341,0 1.25461,-5.91841 1.59342,0 -1.25462,5.91841 z"
           style="font-style:italic;font-variant:normal;font-weight:bold;font-stretch:normal;font-size:10.84157944px;font-family:'Open Sans';-inkscape-font-specification:'Open Sans Bold Italic';letter-spacing:0px;fill:#006c35;fill-opacity:1;stroke-width:0.24259055px"
           id="path9620"
           inkscape:connector-curvature="0" />
        <path
           d="m 185.3289,251.10531 q -0.46585,0 -0.87876,0.4235 -0.41291,0.4235 -0.53996,1.03228 l 0.23821,0 q 0.82053,0 1.2758,-0.2541 0.46055,-0.2594 0.46055,-0.69878 0,-0.5029 -0.55584,-0.5029 z m -0.86818,4.9867 q -1.11168,0 -1.72575,-0.59819 -0.61408,-0.59819 -0.61408,-1.68871 0,-1.0958 0.43409,-1.99574 0.43938,-0.90522 1.1858,-1.37637 0.74641,-0.47643 1.6887,-0.47643 0.93699,0 1.46107,0.43408 0.52408,0.4288 0.52408,1.18051 0,0.98993 -0.88405,1.52989 -0.88406,0.53467 -2.52512,0.53467 l -0.26998,0 -0.0106,0.11116 0,0.10588 q 0,0.48173 0.26999,0.7623 0.27527,0.27527 0.78347,0.27527 0.46055,0 0.83641,-0.10058 0.37586,-0.10058 0.91052,-0.35468 l 0,1.20168 q -0.91052,0.45526 -2.06456,0.45526 z"
           style="font-style:italic;font-variant:normal;font-weight:bold;font-stretch:normal;font-size:10.84157944px;font-family:'Open Sans';-inkscape-font-specification:'Open Sans Bold Italic';letter-spacing:0px;fill:#006c35;fill-opacity:1;stroke-width:0.24259055px"
           id="path9622"
           inkscape:connector-curvature="0" />
        <path
           d="m 192.13665,249.95657 q 0.31233,0 0.5082,0.0582 l -0.34939,1.53518 q -0.23822,-0.0847 -0.52937,-0.0847 -0.61408,0 -1.07992,0.48703 -0.46056,0.48173 -0.65643,1.38696 l -0.56113,2.64687 -1.59342,0 1.25462,-5.91841 1.21756,0 -0.11117,1.09581 0.0318,0 q 0.77818,-1.20697 1.86869,-1.20697 z"
           style="font-style:italic;font-variant:normal;font-weight:bold;font-stretch:normal;font-size:10.84157944px;font-family:'Open Sans';-inkscape-font-specification:'Open Sans Bold Italic';letter-spacing:0px;fill:#006c35;fill-opacity:1;stroke-width:0.24259055px"
           id="path9624"
           inkscape:connector-curvature="0" />
        <path
           d="m 195.93756,251.10531 q -0.46585,0 -0.87877,0.4235 -0.41291,0.4235 -0.53996,1.03228 l 0.23822,0 q 0.82053,0 1.27579,-0.2541 0.46056,-0.2594 0.46056,-0.69878 0,-0.5029 -0.55584,-0.5029 z m -0.86818,4.9867 q -1.11168,0 -1.72576,-0.59819 -0.61407,-0.59819 -0.61407,-1.68871 0,-1.0958 0.43409,-1.99574 0.43938,-0.90522 1.18579,-1.37637 0.74642,-0.47643 1.68871,-0.47643 0.93699,0 1.46107,0.43408 0.52408,0.4288 0.52408,1.18051 0,0.98993 -0.88406,1.52989 -0.88405,0.53467 -2.52511,0.53467 l -0.26998,0 -0.0106,0.11116 0,0.10588 q 0,0.48173 0.26998,0.7623 0.27528,0.27527 0.78348,0.27527 0.46055,0 0.83641,-0.10058 0.37585,-0.10058 0.91052,-0.35468 l 0,1.20168 q -0.91052,0.45526 -2.06456,0.45526 z"
           style="font-style:italic;font-variant:normal;font-weight:bold;font-stretch:normal;font-size:10.84157944px;font-family:'Open Sans';-inkscape-font-specification:'Open Sans Bold Italic';letter-spacing:0px;fill:#006c35;fill-opacity:1;stroke-width:0.24259055px"
           id="path9626"
           inkscape:connector-curvature="0" />
        <path
           d="m 203.45996,255.98614 -1.59341,0 0.72524,-3.45682 q 0.0847,-0.35997 0.0847,-0.62995 0,-0.65113 -0.57172,-0.65113 -0.48703,0 -0.88406,0.60348 -0.39703,0.60349 -0.62466,1.68341 l -0.51879,2.45101 -1.59341,0 1.25461,-5.91841 1.21756,0 -0.11116,1.09581 0.0318,0 q 0.77288,-1.20697 1.87928,-1.20697 0.73053,0 1.12756,0.44467 0.40233,0.43938 0.40233,1.25991 0,0.38644 -0.12176,0.95287 l -0.70407,3.37212 z"
           style="font-style:italic;font-variant:normal;font-weight:bold;font-stretch:normal;font-size:10.84157944px;font-family:'Open Sans';-inkscape-font-specification:'Open Sans Bold Italic';letter-spacing:0px;fill:#006c35;fill-opacity:1;stroke-width:0.24259055px"
           id="path9628"
           inkscape:connector-curvature="0" />
      </g>
    </g>
    <g
       id="g34502"
       transform="matrix(-1,0,0,1,22.639569,0.70362573)"
       style="opacity:1">
      <path
         style="opacity:1;fill:#0091d5;fill-opacity:1;fill-rule:evenodd;stroke:#0094d5;stroke-width:1.56500006;stroke-linecap:round;stroke-linejoin:round;stroke-miterlimit:4;stroke-dasharray:none;stroke-dashoffset:0;stroke-opacity:1"
         d="m 12.920258,498.61999 c -0.958812,4.39989 -5.0674161,6.0023 -13.62537323,3.65304 5.29918313,2.0043 10.20282613,5.98118 10.61121513,11.70001 0.8663591,-5.07322 0.1127821,-11.5627 10.6921751,-8.14411 -4.957655,-1.97448 -6.225759,-4.60816 -7.678017,-7.20894 z"
         id="path34328"
         inkscape:connector-curvature="0"
         sodipodi:nodetypes="ccccc" />
      <path
         style="opacity:1;fill:#0091d5;fill-opacity:1;fill-rule:evenodd;stroke:#0094d5;stroke-width:1.56500006;stroke-linecap:round;stroke-linejoin:round;stroke-miterlimit:4;stroke-dasharray:none;stroke-dashoffset:0;stroke-opacity:1"
         d="m 10.375866,466.16024 c -2.6397281,8.12255 -0.8618531,13.25975 3.462269,14.93055 1.86438,0.72037 4.202087,0.79638 6.863146,0.18944 -3.02079,1.50914 -6.082314,2.92398 -8.017552,6.94605 -1.503536,-5.16195 -6.0118267,-9.34153 -14.1167932,-8.60527 4.4128945,-2.15536 9.9597911,-4.55571 11.8089302,-13.46077 z"
         id="path34314"
         inkscape:connector-curvature="0"
         sodipodi:nodetypes="cscccc"
         inkscape:transform-center-x="13.901445"
         inkscape:transform-center-y="-15.86144" />
      <ellipse
         style="opacity:1;fill:#42b863;fill-opacity:1;stroke:#006c35;stroke-width:1.60000002;stroke-linecap:butt;stroke-linejoin:miter;stroke-miterlimit:4;stroke-dasharray:none;stroke-dashoffset:0;stroke-opacity:1"
         id="path33458"
         cx="24.98456"
         cy="493.47861"
         rx="13.115851"
         ry="13.104886" />
      <ellipse
         style="opacity:1;fill:#42b863;fill-opacity:1;stroke:#006c35;stroke-width:1.60000002;stroke-linecap:butt;stroke-linejoin:miter;stroke-miterlimit:4;stroke-dasharray:none;stroke-dashoffset:0;stroke-opacity:1"
         id="path33456"
         cx="-6.1197662"
         cy="463.61469"
         rx="16.691214"
         ry="16.677259" />
      <ellipse
         cy="517.06378"
         cx="-5.2741265"
         id="circle34316"
         style="opacity:1;fill:#42b863;fill-opacity:1;stroke:#006c35;stroke-width:1.60000002;stroke-linecap:butt;stroke-linejoin:miter;stroke-miterlimit:4;stroke-dasharray:none;stroke-dashoffset:0;stroke-opacity:1"
         rx="15.492188"
         ry="15.479237" />
      <text
         transform="scale(-1.0214799,0.97897178)"
         sodipodi:linespacing="125%"
         id="text33474"
         y="503.16302"
         x="-24.703421"
         style="font-style:normal;font-variant:normal;font-weight:bold;font-stretch:normal;font-size:4.39171362px;line-height:125%;font-family:'Open Sans';-inkscape-font-specification:'Open Sans Bold';text-align:start;letter-spacing:0px;word-spacing:0px;text-anchor:start;fill:#ffffff;fill-opacity:1;stroke:none;stroke-width:0.26458332px;stroke-linecap:butt;stroke-linejoin:miter;stroke-opacity:1"
         xml:space="preserve"><tspan
           style="font-style:normal;font-variant:normal;font-weight:bold;font-stretch:normal;font-family:'Open Sans';-inkscape-font-specification:'Open Sans Bold';text-align:center;text-anchor:middle;fill:#ffffff;stroke-width:0.26458332px"
           y="503.16302"
           x="-24.703421"
           sodipodi:role="line"
           id="tspan34763">Fernber-</tspan><tspan
           style="font-style:normal;font-variant:normal;font-weight:bold;font-stretch:normal;font-family:'Open Sans';-inkscape-font-specification:'Open Sans Bold';text-align:center;text-anchor:middle;fill:#ffffff;stroke-width:0.26458332px"
           y="508.65268"
           x="-24.703421"
           sodipodi:role="line"
           id="tspan34765">tragung</tspan></text>
      <text
         sodipodi:linespacing="125%"
         id="text33470"
         y="461.56897"
         x="-6.352541"
         style="font-style:normal;font-variant:normal;font-weight:bold;font-stretch:normal;font-size:5.08129644px;line-height:125%;font-family:'Open Sans';-inkscape-font-specification:'Open Sans Bold';text-align:start;letter-spacing:0px;word-spacing:0px;text-anchor:start;fill:#ffffff;fill-opacity:1;stroke:none;stroke-width:0.26458332px;stroke-linecap:butt;stroke-linejoin:miter;stroke-opacity:1"
         xml:space="preserve"
         transform="scale(-1.0004183,0.99958189)"><tspan
           style="font-style:normal;font-variant:normal;font-weight:bold;font-stretch:normal;font-family:'Open Sans';-inkscape-font-specification:'Open Sans Bold';fill:#ffffff;stroke-width:0.26458332px"
           y="461.56897"
           x="-6.352541"
           id="tspan33472"
           sodipodi:role="line">Messwert-</tspan><tspan
           id="tspan33482"
           style="font-style:normal;font-variant:normal;font-weight:bold;font-stretch:normal;font-family:'Open Sans';-inkscape-font-specification:'Open Sans Bold';fill:#ffffff;stroke-width:0.26458332px"
           y="467.92059"
           x="-6.352541"
           sodipodi:role="line">aufnahme</tspan></text>
      <text
         xml:space="preserve"
         style="font-style:normal;font-variant:normal;font-weight:bold;font-stretch:normal;font-size:4.53804159px;line-height:125%;font-family:'Open Sans';-inkscape-font-specification:'Open Sans Bold';text-align:start;letter-spacing:0px;word-spacing:0px;text-anchor:start;fill:#ffffff;fill-opacity:1;stroke:none;stroke-width:0.26458332px;stroke-linecap:butt;stroke-linejoin:miter;stroke-opacity:1"
         x="5.2831893"
         y="515.65485"
         id="text34318"
         sodipodi:linespacing="125%"
         transform="scale(-1.0004183,0.99958188)"><tspan
           id="tspan34322"
           sodipodi:role="line"
           x="5.2831898"
           y="515.65485"
           style="font-style:normal;font-variant:normal;font-weight:bold;font-stretch:normal;font-family:'Open Sans';-inkscape-font-specification:'Open Sans Bold';text-align:center;text-anchor:middle;fill:#ffffff;stroke-width:0.26458332px">Datenbank-</tspan><tspan
           id="tspan34326"
           sodipodi:role="line"
           x="5.2831898"
           y="521.32739"
           style="font-style:normal;font-variant:normal;font-weight:bold;font-stretch:normal;font-family:'Open Sans';-inkscape-font-specification:'Open Sans Bold';text-align:center;text-anchor:middle;fill:#ffffff;stroke-width:0.26458332px">verwaltung</tspan></text>
    </g>
    <g
       id="g34587"
       transform="matrix(0.90060621,0,0,0.89985331,18.3462,45.22211)"
       style="opacity:1;stroke-width:1.11082768">
      <path
         sodipodi:nodetypes="ccccc"
         inkscape:connector-curvature="0"
         id="path34560"
         d="m 60.098269,485.00867 c 6.372917,7.57662 -0.781472,9.81766 -5.369537,13.32382 6.953941,-2.85268 14.494659,-2.42817 22.888005,2.75831 -6.526211,-3.29075 -9.684839,-10.63586 2.683728,-16.44724 -8.150804,4.91555 -14.375711,3.3144 -20.202196,0.36511 z"
         style="opacity:1;fill:#0091d5;fill-opacity:1;fill-rule:evenodd;stroke:#0094d5;stroke-width:1.73844528;stroke-linecap:round;stroke-linejoin:round;stroke-miterlimit:4;stroke-dasharray:none;stroke-dashoffset:0;stroke-opacity:1" />
      <ellipse
         cy="466.49573"
         cx="69.915665"
         id="path33456-0"
         style="opacity:1;fill:#42b863;fill-opacity:1;stroke:#006c35;stroke-width:1.7773242;stroke-linecap:butt;stroke-linejoin:miter;stroke-miterlimit:4;stroke-dasharray:none;stroke-dashoffset:0;stroke-opacity:1"
         rx="21.697365"
         ry="21.485203" />
      <text
         xml:space="preserve"
         style="font-style:normal;font-variant:normal;font-weight:bold;font-stretch:normal;font-size:5.64444447px;line-height:125%;font-family:'Open Sans';-inkscape-font-specification:'Open Sans Bold';text-align:start;letter-spacing:0px;word-spacing:0px;text-anchor:start;fill:#ffffff;fill-opacity:1;stroke:none;stroke-width:0.29390645px;stroke-linecap:butt;stroke-linejoin:miter;stroke-opacity:1"
         x="70.15593"
         y="462.61124"
         id="text34390"
         sodipodi:linespacing="125%"><tspan
           sodipodi:role="line"
           id="tspan34392"
           x="70.15593"
           y="462.61124"
           style="font-style:normal;font-variant:normal;font-weight:bold;font-stretch:normal;font-family:'Open Sans';-inkscape-font-specification:'Open Sans Bold';text-align:center;text-anchor:middle;fill:#ffffff;stroke-width:0.29390645px">Daten-</tspan><tspan
           sodipodi:role="line"
           x="70.15593"
           y="469.66678"
           style="font-style:normal;font-variant:normal;font-weight:bold;font-stretch:normal;font-family:'Open Sans';-inkscape-font-specification:'Open Sans Bold';text-align:center;text-anchor:middle;fill:#ffffff;stroke-width:0.29390645px"
           id="tspan34394">aufarbeitung</tspan></text>
      <ellipse
         cy="343.84973"
         cx="398.55048"
         id="path33458-8"
         style="opacity:1;fill:#42b863;fill-opacity:1;stroke:#006c35;stroke-width:1.77738917;stroke-linecap:butt;stroke-linejoin:miter;stroke-miterlimit:4;stroke-dasharray:none;stroke-dashoffset:0;stroke-opacity:1"
         transform="matrix(0.73488846,0.67818799,-0.66925769,0.74303038,0,0)"
         rx="28.972004"
         ry="29.004429" />
      <text
         xml:space="preserve"
         style="font-style:normal;font-variant:normal;font-weight:bold;font-stretch:normal;font-size:8.4728384px;line-height:125%;font-family:'Open Sans';-inkscape-font-specification:'Open Sans Bold';text-align:start;letter-spacing:0px;word-spacing:0px;text-anchor:start;fill:#ffffff;fill-opacity:1;stroke:none;stroke-width:0.29390645px;stroke-linecap:butt;stroke-linejoin:miter;stroke-opacity:1"
         x="63.58086"
         y="518.28424"
         id="text34396"
         sodipodi:linespacing="125%"
         transform="scale(0.99395002,1.0060868)"><tspan
           sodipodi:role="line"
           id="tspan34398"
           x="63.58086"
           y="518.28424"
           style="font-style:normal;font-variant:normal;font-weight:bold;font-stretch:normal;font-family:'Open Sans';-inkscape-font-specification:'Open Sans Bold';text-align:center;text-anchor:middle;fill:#ffffff;stroke-width:0.29390645px">statistische</tspan><tspan
           sodipodi:role="line"
           x="63.58086"
           y="528.87531"
           style="font-style:normal;font-variant:normal;font-weight:bold;font-stretch:normal;font-family:'Open Sans';-inkscape-font-specification:'Open Sans Bold';text-align:center;text-anchor:middle;fill:#ffffff;stroke-width:0.29390645px"
           id="tspan34400">Auswertung</tspan></text>
    </g>
    <g
       id="g34602"
       transform="matrix(0.90060621,0,0,0.89985331,18.319611,48.945308)"
       style="opacity:1;stroke-width:1.11082768">
      <path
         sodipodi:nodetypes="ccccc"
         inkscape:connector-curvature="0"
         id="path34580"
         d="m 136.86274,505.16947 c -0.50664,4.12554 -2.79678,7.82448 -9.92554,4.58525 3.56664,2.88717 4.97439,5.96047 5.75415,9.08792 0.96582,-7.13104 4.58608,-7.24676 8.80421,-5.7824 -1.98179,-2.26815 -3.83646,-4.6415 -4.63282,-7.89077 z"
         style="opacity:1;fill:#0091d5;fill-opacity:1;fill-rule:evenodd;stroke:#0094d5;stroke-width:1.73844528;stroke-linecap:round;stroke-linejoin:round;stroke-miterlimit:4;stroke-dasharray:none;stroke-dashoffset:0;stroke-opacity:1" />
      <path
         sodipodi:nodetypes="ccccc"
         inkscape:connector-curvature="0"
         id="path34573"
         d="m 139.85286,476.46247 c -0.92762,6.1514 0.73362,7.52083 7.10294,7.03865 -4.93715,1.33216 -5.39917,1.45048 -8.27886,7.44951 0.38548,-5.54549 1.63376,-8.29552 -6.24777,-7.55809 6.40689,-1.61318 4.98593,-1.35002 7.42369,-6.93007 z"
         style="opacity:1;fill:#0091d5;fill-opacity:1;fill-rule:evenodd;stroke:#0094d5;stroke-width:1.73844528;stroke-linecap:round;stroke-linejoin:round;stroke-miterlimit:4;stroke-dasharray:none;stroke-dashoffset:0;stroke-opacity:1" />
      <ellipse
         cy="522.24603"
         cx="117.00984"
         id="ellipse34456"
         style="opacity:1;fill:#42b863;fill-opacity:1;stroke:#006c35;stroke-width:1.7773242;stroke-linecap:butt;stroke-linejoin:miter;stroke-miterlimit:4;stroke-dasharray:none;stroke-dashoffset:0;stroke-opacity:1"
         rx="16.053852"
         ry="15.894714" />
      <text
         sodipodi:linespacing="125%"
         id="text34444"
         y="524.00507"
         x="103.17266"
         style="font-style:normal;font-variant:normal;font-weight:bold;font-stretch:normal;font-size:5.64444447px;line-height:125%;font-family:'Open Sans';-inkscape-font-specification:'Open Sans Bold';text-align:start;letter-spacing:0px;word-spacing:0px;text-anchor:start;fill:#ffffff;fill-opacity:1;stroke:none;stroke-width:0.29390645px;stroke-linecap:butt;stroke-linejoin:miter;stroke-opacity:1"
         xml:space="preserve"><tspan
           style="font-style:normal;font-variant:normal;font-weight:bold;font-stretch:normal;font-family:'Open Sans';-inkscape-font-specification:'Open Sans Bold';fill:#ffffff;stroke-width:0.29390645px"
           y="524.00507"
           x="103.17266"
           id="tspan34446"
           sodipodi:role="line">Web Apps</tspan></text>
      <ellipse
         ry="18.357405"
         rx="18.540016"
         style="opacity:1;fill:#42b863;fill-opacity:1;stroke:#006c35;stroke-width:1.7773242;stroke-linecap:butt;stroke-linejoin:miter;stroke-miterlimit:4;stroke-dasharray:none;stroke-dashoffset:0;stroke-opacity:1"
         id="ellipse34454"
         cx="154.70436"
         cy="500.17838" />
      <text
         sodipodi:linespacing="125%"
         id="text34448"
         y="498.56683"
         x="154.69208"
         style="font-style:normal;font-variant:normal;font-weight:bold;font-stretch:normal;font-size:5.38062572px;line-height:125%;font-family:'Open Sans';-inkscape-font-specification:'Open Sans Bold';text-align:start;letter-spacing:0px;word-spacing:0px;text-anchor:start;fill:#ffffff;fill-opacity:1;stroke:none;stroke-width:0.29390645px;stroke-linecap:butt;stroke-linejoin:miter;stroke-opacity:1"
         xml:space="preserve"><tspan
           style="font-style:normal;font-variant:normal;font-weight:bold;font-stretch:normal;font-family:'Open Sans';-inkscape-font-specification:'Open Sans Bold';text-align:center;text-anchor:middle;fill:#ffffff;stroke-width:0.29390645px"
           y="498.56683"
           x="154.69208"
           id="tspan34450"
           sodipodi:role="line">dynamische</tspan><tspan
           id="tspan34452"
           style="font-style:normal;font-variant:normal;font-weight:bold;font-stretch:normal;font-family:'Open Sans';-inkscape-font-specification:'Open Sans Bold';text-align:center;text-anchor:middle;fill:#ffffff;stroke-width:0.29390645px"
           y="505.2926"
           x="154.69208"
           sodipodi:role="line">Dokumente</tspan></text>
      <ellipse
         cy="467.08603"
         cx="123.9137"
         id="ellipse34402"
         style="opacity:1;fill:#42b863;fill-opacity:1;stroke:#006c35;stroke-width:1.7773242;stroke-linecap:butt;stroke-linejoin:miter;stroke-miterlimit:4;stroke-dasharray:none;stroke-dashoffset:0;stroke-opacity:1"
         rx="18.540016"
         ry="18.357405" />
      <text
         sodipodi:linespacing="125%"
         id="text34390-4"
         y="467.23877"
         x="124.22717"
         style="font-style:normal;font-variant:normal;font-weight:bold;font-stretch:normal;font-size:5.64444447px;line-height:125%;font-family:'Open Sans';-inkscape-font-specification:'Open Sans Bold';text-align:start;letter-spacing:0px;word-spacing:0px;text-anchor:start;opacity:1;fill:#ffffff;fill-opacity:1;stroke:none;stroke-width:0.29390645px;stroke-linecap:butt;stroke-linejoin:miter;stroke-opacity:1"
         xml:space="preserve"><tspan
           id="tspan34394-0"
           style="font-style:normal;font-variant:normal;font-weight:bold;font-stretch:normal;font-family:'Open Sans';-inkscape-font-specification:'Open Sans Bold';text-align:center;text-anchor:middle;fill:#ffffff;stroke-width:0.29390645px"
           y="467.23877"
           x="124.22717"
           sodipodi:role="line">interaktive</tspan><tspan
           id="tspan34442"
           style="font-style:normal;font-variant:normal;font-weight:bold;font-stretch:normal;font-family:'Open Sans';-inkscape-font-specification:'Open Sans Bold';text-align:center;text-anchor:middle;fill:#ffffff;stroke-width:0.29390645px"
           y="474.29431"
           x="124.22717"
           sodipodi:role="line">Grafiken</tspan></text>
    </g>
    <path
       style="opacity:1;fill:#0091d5;fill-opacity:1;fill-rule:evenodd;stroke:#0094d5;stroke-width:1.79420233;stroke-linecap:round;stroke-linejoin:round;stroke-miterlimit:4;stroke-dasharray:none;stroke-dashoffset:0;stroke-opacity:1"
       d="m 67.201685,552.63434 7.633862,7.09715 7.633862,-7.09715 c -5.089241,1.11497 -10.178483,0.86275 -15.267724,0 z"
       id="path34847"
       inkscape:connector-curvature="0"
       sodipodi:nodetypes="cccc" />
  </g>
</svg>
