<svg xmlns="http://www.w3.org/2000/svg" xmlns:xlink="http://www.w3.org/1999/xlink" width="1536.511" height="1241.703" viewBox="0 0 406.53531 328.53381"><defs><marker id="a" orient="auto" overflow="visible"><path d="M1.96 0a2 2 0 1 1-4.001-.001A2 2 0 0 1 1.96 0z" fill-rule="evenodd" stroke="#000" stroke-width=".5332"/></marker></defs><g transform="translate(226.702 15.384)"><image xlink:href="Raspberry-Pi-Zero.jpg" width="406.535" height="228.634" preserveAspectRatio="none" x="-714.291" y="-31.251"/><g stroke="#fff" stroke-width=".8" fill-rule="evenodd"><path style="line-height:normal;font-variant-ligatures:none;font-variant-position:normal;font-variant-caps:normal;font-variant-numeric:normal;font-variant-alternates:normal;font-feature-settings:normal;text-indent:0;text-align:start;text-decoration-line:none;text-decoration-style:solid;text-decoration-color:#000;text-transform:none;block-progression:tb;shape-padding:0;isolation:auto;mix-blend-mode:normal" d="M-2.176 17.004a1.433 1.433 0 0 0-1.324.865l-49.137 114.149a1.433 1.433 0 1 0 2.631 1.132L-1.244 19.873l133.611.752a1.433 1.433 0 1 0 .016-2.865l-134.559-.756z" color="#000" font-weight="400" font-family="sans-serif" white-space="normal" overflow="visible" stroke-linecap="round" stroke-linejoin="round"/><path d="M-49.101 127.427a5.732 5.732 0 0 1 2.998 7.529 5.732 5.732 0 0 1-7.53 2.997 5.732 5.732 0 0 1-2.997-7.529 5.732 5.732 0 0 1 7.529-2.997z"/></g><text style="line-height:125%;-inkscape-font-specification:'Open Sans';text-align:center" x="68.495" y="11.27" font-weight="400" font-size="14.122" font-family="Open Sans" letter-spacing="0" word-spacing="0" text-anchor="middle" stroke-width=".662"><tspan x="68.495" y="11.27">1Ghz, Single-core CPU</tspan></text><g stroke="#fff" stroke-width="1.4" fill-rule="evenodd"><path style="line-height:normal;font-variant-ligatures:none;font-variant-position:normal;font-variant-caps:normal;font-variant-numeric:normal;font-variant-alternates:normal;font-feature-settings:normal;text-indent:0;text-align:start;text-decoration-line:none;text-decoration-style:solid;text-decoration-color:#000;text-transform:none;block-progression:tb;shape-padding:0;isolation:auto;mix-blend-mode:normal" d="M-375.713-49.086a1.733 1.733 0 0 0-1.63 1.986l18.901 139.852a1.733 1.733 0 0 0 1.693 1.5l114.905 1.511a1.733 1.733 0 1 0 .045-3.465l-113.41-1.492-18.7-138.37a1.733 1.733 0 0 0-1.804-1.522z" color="#000" font-weight="400" font-family="sans-serif" white-space="normal" overflow="visible"/><path d="M-374.715-40.602a6.933 6.933 0 0 1-7.796-5.94 6.933 6.933 0 0 1 5.94-7.795 6.933 6.933 0 0 1 7.795 5.94 6.933 6.933 0 0 1-5.94 7.795z"/></g><path d="M-389.232 148.46l18.899 139.851 114.905 1.512" fill="none" stroke="#000" stroke-width="3.465" stroke-linecap="round" stroke-linejoin="round" marker-start="url(#a)"/><text y="193.454" x="-189.285" style="line-height:125%;-inkscape-font-specification:'Open Sans';text-align:center" font-weight="400" font-size="14.122" font-family="Open Sans" letter-spacing="0" word-spacing="0" text-anchor="middle" stroke-width=".662"><tspan y="193.454" x="-189.285">HDMI</tspan></text><g stroke="#fff" stroke-width=".8" fill-rule="evenodd"><path style="line-height:normal;font-variant-ligatures:none;font-variant-position:normal;font-variant-caps:normal;font-variant-numeric:normal;font-variant-alternates:normal;font-feature-settings:normal;text-indent:0;text-align:start;text-decoration-line:none;text-decoration-style:solid;text-decoration-color:#000;text-transform:none;block-progression:tb;shape-padding:0;isolation:auto;mix-blend-mode:normal" d="M-147.264 112.69a1.733 1.733 0 0 0-1.545.855l-34.775 57.453a1.733 1.733 0 1 0 2.965 1.793l34.773-57.451a1.733 1.733 0 0 0-1.418-2.65z" color="#000" font-weight="400" font-family="sans-serif" white-space="normal" overflow="visible"/><path d="M-150.844 120.252a6.933 6.933 0 0 1-2.34-9.517 6.933 6.933 0 0 1 9.517-2.34 6.933 6.933 0 0 1 2.34 9.517 6.933 6.933 0 0 1-9.517 2.34z"/></g><g stroke="#fff" stroke-width=".8" fill-rule="evenodd"><path style="line-height:normal;font-variant-ligatures:none;font-variant-position:normal;font-variant-caps:normal;font-variant-numeric:normal;font-variant-alternates:normal;font-feature-settings:normal;text-indent:0;text-align:start;text-decoration-line:none;text-decoration-style:solid;text-decoration-color:#000;text-transform:none;block-progression:tb;shape-padding:0;isolation:auto;mix-blend-mode:normal" d="M29.629 124.785a1.733 1.733 0 0 0-1.45.713l-87.923 117.23-129.15-.751a1.733 1.733 0 1 0-.02 3.464l130.023.756a1.733 1.733 0 0 0 1.397-.691l88.445-117.93a1.733 1.733 0 0 0-1.322-2.79z" color="#000" font-weight="400" font-family="sans-serif" white-space="normal" overflow="visible"/><path d="M25.49 131.97a6.933 6.933 0 0 1-1.385-9.702 6.933 6.933 0 0 1 9.702-1.386 6.933 6.933 0 0 1 1.386 9.702 6.933 6.933 0 0 1-9.702 1.386z"/></g><text y="261.49" x="-91.011" style="line-height:125%;-inkscape-font-specification:'Open Sans';text-align:center" font-weight="400" font-size="14.122" font-family="Open Sans" letter-spacing="0" word-spacing="0" text-anchor="middle" stroke-width=".662"><tspan y="261.49" x="-91.011">HAT-compatible 40-pin header</tspan></text></g></svg>